<?xml version="1.0" encoding="UTF-8" standalone="no"?>
<!-- Created with Inkscape (http://www.inkscape.org/) -->

<svg
   xmlns:dc="http://purl.org/dc/elements/1.1/"
   xmlns:cc="http://creativecommons.org/ns#"
   xmlns:rdf="http://www.w3.org/1999/02/22-rdf-syntax-ns#"
   xmlns:svg="http://www.w3.org/2000/svg"
   xmlns="http://www.w3.org/2000/svg"
   xmlns:sodipodi="http://sodipodi.sourceforge.net/DTD/sodipodi-0.dtd"
   xmlns:inkscape="http://www.inkscape.org/namespaces/inkscape"
   version="1.1"
   id="svg3966"
   width="145.89404"
   height="224.91765"
   viewBox="0 0 145.89404 224.91765"
   sodipodi:docname="backface.svg"
   inkscape:version="0.92.4 (5da689c313, 2019-01-14)">
  <metadata
     id="metadata3972">
    <rdf:RDF>
      <cc:Work
         rdf:about="">
        <dc:format>image/svg+xml</dc:format>
        <dc:type
           rdf:resource="http://purl.org/dc/dcmitype/StillImage" />
        <dc:title></dc:title>
      </cc:Work>
    </rdf:RDF>
  </metadata>
  <defs
     id="defs3970" />
  <sodipodi:namedview
     pagecolor="#ffffff"
     bordercolor="#666666"
     borderopacity="1"
     objecttolerance="10"
     gridtolerance="10"
     guidetolerance="10"
     inkscape:pageopacity="0"
     inkscape:pageshadow="2"
     inkscape:window-width="1920"
     inkscape:window-height="1001"
     id="namedview3968"
     showgrid="false"
     fit-margin-top="0"
     fit-margin-left="0"
     fit-margin-right="-0.4"
     fit-margin-bottom="0"
     inkscape:zoom="2.1563194"
     inkscape:cx="127.37373"
     inkscape:cy="95.163458"
     inkscape:window-x="2391"
     inkscape:window-y="-9"
     inkscape:window-maximized="1"
     inkscape:current-layer="svg3966" />
  <path
     style="font-style:normal;font-variant:normal;font-weight:normal;font-stretch:normal;font-size:96px;line-height:1.25;font-family:'Niagara Solid';-inkscape-font-specification:'Niagara Solid';text-align:center;letter-spacing:6.39999771px;word-spacing:14.14999962px;text-anchor:middle;fill:#000000;fill-opacity:1;stroke:none;stroke-width:0.94627464"
     d="M 121.67578 0 L 121.67578 1.640625 L 123.98242 1.640625 L 123.98242 61.966797 L 121.67578 61.966797 L 121.67578 63.607422 L 133.3418 63.607422 L 133.3418 61.966797 L 131.03516 61.966797 L 131.03516 19.294922 C 132.07014 18.259931 133.16509 17.742188 134.31836 17.742188 C 136.06305 17.742188 136.93555 18.89658 136.93555 21.203125 L 136.93555 63.607422 L 146.29492 63.607422 L 146.29492 61.966797 L 144.03125 61.966797 L 144.03125 24.263672 C 144.03125 18.704309 141.45983 15.923828 136.31445 15.923828 C 134.12619 15.923828 132.36585 16.501028 131.03516 17.654297 L 131.03516 0 L 121.67578 0 z M 9.8027344 15.923828 C 6.8752004 15.923828 4.5089173 16.811672 2.7050781 18.585938 C 0.90124529 20.360202 1.6324866e-16 22.563489 0 25.195312 L 0 29.541016 C -2.9605947e-16 33.089545 0.93194691 35.781827 2.7949219 37.615234 L 10.246094 44.978516 C 11.902074 46.604928 12.730469 48.88106 12.730469 51.808594 L 12.730469 58.773438 C 12.730469 61.198266 11.813876 62.410156 9.9804688 62.410156 C 8.0583516 62.410156 7.0976562 61.198266 7.0976562 58.773438 L 7.0976562 49.146484 L 0 49.146484 L 0 54.78125 C -2.9605947e-16 57.383505 0.93194691 59.584839 2.7949219 61.388672 C 4.6579032 63.162937 7.0529349 64.050781 9.9804688 64.050781 C 12.908009 64.050781 15.30304 63.149536 17.166016 61.345703 C 18.910712 59.601006 19.783203 57.413073 19.783203 54.78125 L 19.783203 49.724609 C 19.783203 46.176079 18.851263 43.470403 16.988281 41.607422 L 9.5371094 34.244141 C 7.910703 32.647302 7.0976562 30.384565 7.0976562 27.457031 L 7.0976562 21.203125 C 7.0976563 18.778296 7.9989015 17.564453 9.8027344 17.564453 C 11.636141 17.564453 12.552734 18.778296 12.552734 21.203125 L 12.552734 30.828125 L 19.605469 30.828125 L 19.605469 25.195312 C 19.605469 22.563489 18.70423 20.360202 16.900391 18.585938 C 15.096558 16.811672 12.730275 15.923828 9.8027344 15.923828 z M 43.09375 15.923828 C 40.90549 15.923828 39.147102 16.501028 37.816406 17.654297 L 37.816406 16.367188 L 28.457031 16.367188 L 28.457031 18.009766 L 30.763672 18.009766 L 30.763672 74.697266 L 28.457031 74.697266 L 28.457031 76.337891 L 40.121094 76.337891 L 40.121094 74.697266 L 37.816406 74.697266 L 37.816406 62.320312 C 39.147102 63.473582 40.90549 64.050781 43.09375 64.050781 C 48.239118 64.050781 50.8125 61.272254 50.8125 55.712891 L 50.8125 24.263672 C 50.8125 18.704309 48.239118 15.923828 43.09375 15.923828 z M 74.699219 15.923828 C 72.510959 15.923828 70.752577 16.501028 69.421875 17.654297 L 69.421875 16.367188 L 60.0625 16.367188 L 60.0625 18.009766 L 62.369141 18.009766 L 62.369141 61.966797 L 60.0625 61.966797 L 60.0625 63.607422 L 71.728516 63.607422 L 71.728516 61.966797 L 69.421875 61.966797 L 69.421875 19.294922 C 70.456866 18.259931 71.549856 17.742188 72.703125 17.742188 C 74.47739 17.742188 75.365234 18.89658 75.365234 21.203125 L 75.365234 63.607422 L 84.679688 63.607422 L 84.679688 61.966797 L 82.417969 61.966797 L 82.417969 24.263672 C 82.417969 18.704309 79.844587 15.923828 74.699219 15.923828 z M 103.02344 15.923828 C 100.0959 15.923828 97.729621 16.811672 95.925781 18.585938 C 94.121949 20.360202 93.220703 22.563489 93.220703 25.195312 L 93.220703 29.541016 C 93.220703 33.089545 94.150697 35.781827 96.013672 37.615234 L 103.4668 44.978516 C 105.12278 46.604928 105.95117 48.88106 105.95117 51.808594 L 105.95117 58.773438 C 105.95117 61.198266 105.03263 62.410156 103.19922 62.410156 C 101.2771 62.410156 100.31641 61.198266 100.31641 58.773438 L 100.31641 49.146484 L 93.220703 49.146484 L 93.220703 54.78125 C 93.220703 57.383505 94.150697 59.584839 96.013672 61.388672 C 97.876653 63.162937 100.27168 64.050781 103.19922 64.050781 C 106.12676 64.050781 108.52375 63.149536 110.38672 61.345703 C 112.13141 59.601006 113.00391 57.413073 113.00391 54.78125 L 113.00391 49.724609 C 113.00391 46.176079 112.07196 43.470403 110.20898 41.607422 L 102.75586 34.244141 C 101.12945 32.647302 100.31641 30.384565 100.31641 27.457031 L 100.31641 21.203125 C 100.31641 18.778296 101.2196 17.564453 103.02344 17.564453 C 104.85684 17.564453 105.77344 18.778296 105.77344 21.203125 L 105.77344 30.828125 L 112.82617 30.828125 L 112.82617 25.195312 C 112.82617 22.563489 111.92298 20.360202 110.11914 18.585938 C 108.31531 16.811672 105.95098 15.923828 103.02344 15.923828 z M 41.097656 17.742188 C 42.842347 17.742188 43.714844 18.89658 43.714844 21.203125 L 43.714844 58.773438 C 43.714844 61.079982 42.842347 62.232422 41.097656 62.232422 C 39.944381 62.232422 38.851391 61.714678 37.816406 60.679688 L 37.816406 19.294922 C 38.851391 18.259931 39.944381 17.742188 41.097656 17.742188 z M 45.056641 160.86719 L 45.056641 162.50781 L 47.363281 162.50781 L 47.363281 222.83203 L 45.056641 222.83203 L 45.056641 224.47461 L 56.722656 224.47461 L 56.722656 222.83203 L 54.416016 222.83203 L 54.416016 180.16211 C 55.451 179.12712 56.545943 178.60938 57.699219 178.60938 C 59.443909 178.60937 60.316406 179.76181 60.316406 182.06836 L 60.316406 224.47461 L 69.675781 224.47461 L 69.675781 222.83203 L 67.414062 222.83203 L 67.414062 185.12891 C 67.414062 179.56955 64.840681 176.79102 59.695312 176.79102 C 57.507052 176.79102 55.746711 177.36822 54.416016 178.52148 L 54.416016 160.86719 L 45.056641 160.86719 z M 77.017578 160.86719 L 77.017578 162.50781 L 79.324219 162.50781 L 79.324219 222.83203 L 77.017578 222.83203 L 77.017578 224.47461 L 88.683594 224.47461 L 88.683594 222.83203 L 86.376953 222.83203 L 86.376953 201.32031 L 92.277344 224.47461 L 101.45898 224.47461 L 101.45898 222.83203 L 99.019531 222.83203 L 91.035156 193.42383 L 97.732422 178.875 L 100.03906 178.875 L 100.03906 177.23438 L 93.119141 177.23438 L 93.119141 178.875 L 95.470703 178.875 L 86.376953 198.21484 L 86.376953 160.86719 L 77.017578 160.86719 z M 26.003906 176.79102 C 23.046798 176.79102 20.59427 177.69226 18.642578 179.49609 C 16.690887 181.27035 15.714844 183.45829 15.714844 186.06055 L 15.714844 215.64648 C 15.714844 218.24874 16.690887 220.45203 18.642578 222.25586 C 20.59427 224.03013 23.046798 224.91797 26.003906 224.91797 C 28.961014 224.91797 31.402101 224.03013 33.324219 222.25586 C 35.27591 220.45203 36.251953 218.24874 36.251953 215.64648 L 36.251953 210.01367 L 29.154297 210.01367 L 29.154297 219.63867 C 29.154297 222.06351 28.10345 223.27734 26.003906 223.27734 C 23.874788 223.27734 22.810547 222.06351 22.810547 219.63867 L 22.810547 182.06836 C 22.810547 179.64353 23.874788 178.43164 26.003906 178.43164 C 28.10345 178.43164 29.154297 179.64353 29.154297 182.06836 L 29.154297 191.69531 L 36.251953 191.69531 L 36.251953 186.06055 C 36.251953 183.45829 35.27591 181.27035 33.324219 179.49609 C 31.402101 177.69226 28.961014 176.79102 26.003906 176.79102 z M 119.62305 176.79102 C 116.6955 176.79102 114.33117 177.67691 112.52734 179.45117 C 110.7235 181.22544 109.82031 183.42872 109.82031 186.06055 L 109.82031 190.4082 C 109.82031 193.95673 110.75225 196.64706 112.61523 198.48047 L 120.06836 205.84375 C 121.72434 207.47016 122.55078 209.74825 122.55078 212.67578 L 122.55078 219.63867 C 122.55078 222.06351 121.63419 223.27734 119.80078 223.27734 C 117.87866 223.27734 116.91797 222.06351 116.91797 219.63867 L 116.91797 210.01367 L 109.82031 210.01367 L 109.82031 215.64648 C 109.82031 218.24874 110.75225 220.45203 112.61523 222.25586 C 114.47821 224.03013 116.87324 224.91797 119.80078 224.91797 C 122.72831 224.91797 125.12335 224.01477 126.98633 222.21094 C 128.73102 220.46624 129.60352 218.2783 129.60352 215.64648 L 129.60352 210.58984 C 129.60352 207.04132 128.67352 204.33564 126.81055 202.47266 L 119.35742 195.10938 C 117.73101 193.51254 116.91797 191.25175 116.91797 188.32422 L 116.91797 182.06836 C 116.91797 179.64353 117.81921 178.43164 119.62305 178.43164 C 121.45645 178.43164 122.37305 179.64353 122.37305 182.06836 L 122.37305 191.69531 L 129.42578 191.69531 L 129.42578 186.06055 C 129.42578 183.42872 128.52454 181.22544 126.7207 179.45117 C 124.91687 177.67691 122.55058 176.79102 119.62305 176.79102 z "
     id="path4027" />
</svg>
