<?xml version="1.0" encoding="UTF-8" standalone="no"?>
<svg
   xmlns:dc="http://purl.org/dc/elements/1.1/"
   xmlns:cc="http://creativecommons.org/ns#"
   xmlns:rdf="http://www.w3.org/1999/02/22-rdf-syntax-ns#"
   xmlns:svg="http://www.w3.org/2000/svg"
   xmlns="http://www.w3.org/2000/svg"
   xmlns:sodipodi="http://sodipodi.sourceforge.net/DTD/sodipodi-0.dtd"
   xmlns:inkscape="http://www.inkscape.org/namespaces/inkscape"
   id="Layer_5"
   enable-background="new 0 0 64 64"
   height="512"
   viewBox="0 0 64 64"
   width="512"
   version="1.1"
   sodipodi:docname="coconut.svg"
   inkscape:version="0.92.4 (5da689c313, 2019-01-14)">
  <metadata
     id="metadata4413">
    <rdf:RDF>
      <cc:Work
         rdf:about="">
        <dc:format>image/svg+xml</dc:format>
        <dc:type
           rdf:resource="http://purl.org/dc/dcmitype/StillImage" />
      </cc:Work>
    </rdf:RDF>
  </metadata>
  <defs
     id="defs4411" />
  <sodipodi:namedview
     pagecolor="#ffffff"
     bordercolor="#666666"
     borderopacity="1"
     objecttolerance="10"
     gridtolerance="10"
     guidetolerance="10"
     inkscape:pageopacity="0"
     inkscape:pageshadow="2"
     inkscape:window-width="1133"
     inkscape:window-height="862"
     id="namedview4409"
     showgrid="false"
     inkscape:zoom="0.7890625"
     inkscape:cx="211.24535"
     inkscape:cy="330.99127"
     inkscape:window-x="2931"
     inkscape:window-y="76"
     inkscape:window-maximized="0"
     inkscape:current-layer="Layer_5" />
  <g
     id="g4506">
    <g
       transform="matrix(0.62289559,0,0,0.62139752,11.75032,0.62956507)"
       id="g4406">
      <g
         id="g4396">
        <g
           id="g4298">
          <path
             style="fill:#ecc19c"
             inkscape:connector-curvature="0"
             id="path4296"
             d="M 62,62 H 2 c 0,-2.21 3.36,-4.21 8.8,-5.66 0.63,0.42 1.39,0.66 2.2,0.66 1.41,0 2.65,-0.73 3.36,-1.83 2.61,-0.42 5.48,-0.75 8.53,-0.94 C 27.17,54.08 29.55,54 32,54 c 2.15,0 4.25,0.06 6.27,0.18 2.64,0.15 5.14,0.39 7.47,0.71 1.02,1.85 3,3.11 5.26,3.11 1.38,0 2.64,-0.46 3.65,-1.25 l 0.01,0.01 C 59.23,58.16 62,59.99 62,62 Z" />
        </g>
        <g
           id="g4302">
          <path
             style="fill:#cf9e76"
             inkscape:connector-curvature="0"
             id="path4300"
             d="M 24.89,54.23 C 24.75,53.22 24.61,52.14 24.46,51 24.22,49.13 23.98,47.11 23.73,45 23.51,43.06 23.28,41.04 23.08,39 22.87,37 22.69,34.98 22.53,33 22.44,31.85 22.35,30.72 22.28,29.61 V 29.6 C 20.93,28.97 20,27.59 20,26 c 0,1.59 -0.93,2.97 -2.28,3.6 v 0.01 c -0.07,1.11 -0.16,2.24 -0.25,3.39 -0.16,1.97 -0.35,4 -0.55,6 -0.2,2.04 -0.42,4.06 -0.65,6 -0.2,1.74 -0.41,3.43 -0.61,5.02 0.32,0.27 0.59,0.61 0.8,0.98 0.34,0.59 0.54,1.27 0.54,2 0,0.8 -0.24,1.54 -0.64,2.17 2.61,-0.42 5.48,-0.75 8.53,-0.94 z" />
        </g>
        <g
           id="g4306">
          <path
             style="fill:#cf9e76"
             inkscape:connector-curvature="0"
             id="path4304"
             d="M 48.09,42 C 47.86,40.09 47.62,38.07 47.4,36 47.18,34.02 46.97,32 46.79,30 46.59,27.83 46.41,25.68 46.28,23.61 V 23.6 C 44.93,22.97 44,21.59 44,20 c 0,1.59 -0.93,2.97 -2.28,3.6 v 0.01 c -0.13,2.07 -0.31,4.22 -0.51,6.39 -0.18,2 -0.39,4.02 -0.6,6 -0.23,2.06 -0.47,4.08 -0.7,6 -0.27,2.16 -0.53,4.19 -0.77,6 -0.35,2.62 -0.66,4.77 -0.87,6.18 2.64,0.15 5.14,0.39 7.47,0.71 C 45.27,54.04 45,53.05 45,52 c 0,-1.54 0.58,-2.94 1.53,-4 0.59,-0.66 1.32,-1.18 2.13,-1.53 -0.18,-1.4 -0.37,-2.9 -0.57,-4.47 z" />
        </g>
        <g
           id="g4310">
          <path
             style="fill:#b4dd7f"
             inkscape:connector-curvature="0"
             id="path4308"
             d="m 33.01,26 c 1.21,2.48 1.25,5.44 -0.03,8 L 27.29,28.28 C 27.73,27.63 28,26.84 28,26 28,23.79 26.21,22 24,22 h 6.29 0.01 c -0.45,1.98 -0.22,4.1 0.72,6 z" />
        </g>
        <g
           id="g4314">
          <path
             style="fill:#b4dd7f"
             inkscape:connector-curvature="0"
             id="path4312"
             d="M 10.41,22 H 16 c -2.21,0 -4,1.79 -4,4 0,0.84 0.27,1.63 0.71,2.28 L 7.02,34 C 5.3,30.54 5.97,26.35 8.69,23.61 L 9.67,22.64 C 9.9,22.4 10.16,22.2 10.41,22 Z" />
        </g>
        <g
           id="g4318">
          <path
             style="fill:#b4dd7f"
             inkscape:connector-curvature="0"
             id="path4316"
             d="m 13.18,16.13 c 2.15,0.37 4.07,1.53 5.4,3.23 C 17.64,19.86 17,20.85 17,22 H 16 10.41 2 c 1.19,-3.58 4.55,-6 8.32,-6 h 1.36 c 0.51,0 1.01,0.04 1.5,0.13 z" />
        </g>
        <g
           id="g4322">
          <path
             style="fill:#b4dd7f"
             inkscape:connector-curvature="0"
             id="path4320"
             d="m 17.36,11.61 c 1.98,1.98 2.88,4.72 2.57,7.39 -0.49,0.01 -0.95,0.14 -1.35,0.36 -1.33,-1.7 -3.25,-2.86 -5.4,-3.23 L 6,8.95 C 9.46,7.22 13.65,7.9 16.39,10.64 Z" />
        </g>
        <g
           id="g4326">
          <path
             style="fill:#b4dd7f"
             inkscape:connector-curvature="0"
             id="path4324"
             d="m 35,10 h -0.68 c -3.77,0 -7.13,2.42 -8.32,6 h 2.32 c -2.74,0 -5.27,1.28 -6.9,3.36 -0.4,-0.22 -0.86,-0.35 -1.35,-0.36 -0.31,-2.67 0.59,-5.41 2.57,-7.39 l 0.97,-0.97 C 26.35,7.9 31.54,8.27 35,10 Z" />
        </g>
        <g
           id="g4330">
          <path
             style="fill:#b4dd7f"
             inkscape:connector-curvature="0"
             id="path4328"
             d="m 29,16 h 5.41 c -0.25,0.2 -0.51,0.4 -0.74,0.64 l -0.98,0.97 C 31.47,18.85 30.66,20.38 30.3,22 H 30.29 24 23 C 23,20.85 22.36,19.86 21.42,19.36 23.05,17.28 25.58,16 28.32,16 Z" />
        </g>
        <g
           id="g4334">
          <path
             style="fill:#b4dd7f"
             inkscape:connector-curvature="0"
             id="path4332"
             d="M 34.41,16 H 40 c -2.21,0 -4,1.79 -4,4 0,0.84 0.27,1.63 0.71,2.28 l -3.7,3.72 -1.99,2 c -0.94,-1.9 -1.17,-4.02 -0.72,-6 0.36,-1.62 1.17,-3.15 2.39,-4.39 l 0.98,-0.97 C 33.9,16.4 34.16,16.2 34.41,16 Z" />
        </g>
        <g
           id="g4338">
          <path
             style="fill:#b4dd7f"
             inkscape:connector-curvature="0"
             id="path4336"
             d="M 41.31,12.04 C 40.5,12.77 40,13.83 40,15 c 0,0.35 0.04,0.68 0.13,1 -0.05,0 -0.09,0 -0.13,0 H 34.41 29 28.32 26 c 1.19,-3.58 4.55,-6 8.32,-6 H 35 35.68 c 0.51,0 1.01,0.04 1.5,0.13 0.01,0 0.01,0.01 0.01,0.01 1.53,0.26 2.95,0.92 4.12,1.9 z" />
        </g>
        <g
           id="g4342">
          <path
             style="fill:#b4dd7f"
             inkscape:connector-curvature="0"
             id="path4340"
             d="m 41.36,5.61 c 1.49,1.49 2.37,3.4 2.58,5.39 -1.01,0.02 -1.93,0.41 -2.63,1.04 -1.17,-0.98 -2.59,-1.64 -4.12,-1.9 0,0 0,-0.01 -0.01,-0.01 L 30,2.95 C 33.46,1.22 37.65,1.9 40.39,4.64 Z" />
        </g>
        <g
           id="g4346">
          <path
             style="fill:#b4dd7f"
             inkscape:connector-curvature="0"
             id="path4344"
             d="m 58,2.95 -7.18,7.18 c -0.01,0 -0.01,0.01 -0.01,0.01 -1.53,0.26 -2.95,0.92 -4.12,1.9 C 45.99,11.41 45.07,11.02 44.06,11 44.27,9.01 45.15,7.1 46.64,5.61 L 47.61,4.64 C 50.35,1.9 54.54,1.22 58,2.95 Z" />
        </g>
        <g
           id="g4350">
          <path
             style="fill:#b4dd7f"
             inkscape:connector-curvature="0"
             id="path4348"
             d="M 62,16 H 53.59 48 47.87 C 47.96,15.68 48,15.35 48,15 c 0,-1.17 -0.5,-2.23 -1.31,-2.96 1.17,-0.98 2.59,-1.64 4.12,-1.9 0,0 0,-0.01 0.01,-0.01 0.49,-0.09 0.99,-0.13 1.5,-0.13 h 1.36 c 3.77,0 7.13,2.42 8.32,6 z" />
        </g>
        <g
           id="g4354">
          <path
             style="fill:#b4dd7f"
             inkscape:connector-curvature="0"
             id="path4352"
             d="m 55.31,17.61 c 2.72,2.74 3.39,6.93 1.67,10.39 L 51.29,22.28 C 51.73,21.63 52,20.84 52,20 52,17.79 50.21,16 48,16 h 5.59 c 0.25,0.2 0.51,0.4 0.74,0.64 z" />
        </g>
        <g
           id="g4358">
          <path
             style="fill:#b27946"
             inkscape:connector-curvature="0"
             id="path4356"
             d="m 52,20 c 0,0.84 -0.27,1.63 -0.71,2.28 C 50.56,23.32 49.36,24 48,24 47.39,24 46.8,23.86 46.28,23.6 44.93,22.97 44,21.59 44,20 c 0,-0.35 0.04,-0.68 0.13,-1 v -0.01 c 1.81,-0.05 3.31,-1.3 3.74,-2.99 H 48 c 2.21,0 4,1.79 4,4 z" />
        </g>
        <g
           id="g4362">
          <path
             style="fill:#b27946"
             inkscape:connector-curvature="0"
             id="path4360"
             d="m 48,15 c 0,0.35 -0.04,0.68 -0.13,1 -0.43,1.69 -1.93,2.94 -3.74,2.99 C 44.09,19 44.04,19 44,19 42.14,19 40.57,17.73 40.13,16 40.04,15.68 40,15.35 40,15 c 0,-1.17 0.5,-2.23 1.31,-2.96 0.7,-0.63 1.62,-1.02 2.63,-1.04 H 44 c 0,0 0.04,0 0.06,0 1.01,0.02 1.93,0.41 2.63,1.04 C 47.5,12.77 48,13.83 48,15 Z" />
        </g>
        <g
           id="g4366">
          <path
             style="fill:#b27946"
             inkscape:connector-curvature="0"
             id="path4364"
             d="m 44,20 c 0,1.59 -0.93,2.97 -2.28,3.6 C 41.2,23.86 40.61,24 40,24 38.64,24 37.44,23.32 36.71,22.28 36.27,21.63 36,20.84 36,20 c 0,-2.21 1.79,-4 4,-4 h 0.13 c 0.44,1.73 2.01,3 3.87,3 0.04,0 0.09,0 0.13,-0.01 V 19 C 44.04,19.32 44,19.65 44,20 Z" />
        </g>
        <g
           id="g4370">
          <path
             style="fill:#b27946"
             inkscape:connector-curvature="0"
             id="path4368"
             d="m 16,22 h 1 c 0,1.66 1.34,3 3,3 0.04,0 0.09,0 0.13,-0.01 V 25 C 20.04,25.32 20,25.65 20,26 20,27.59 19.07,28.97 17.72,29.6 17.2,29.86 16.61,30 16,30 14.64,30 13.44,29.32 12.71,28.28 12.27,27.63 12,26.84 12,26 c 0,-2.21 1.79,-4 4,-4 z" />
        </g>
        <g
           id="g4374">
          <path
             style="fill:#b27946"
             inkscape:connector-curvature="0"
             id="path4372"
             d="M 21.42,19.36 C 22.36,19.86 23,20.85 23,22 23,23.62 21.73,24.93 20.13,24.99 20.09,25 20.04,25 20,25 c -1.66,0 -3,-1.34 -3,-3 0,-1.15 0.64,-2.14 1.58,-2.64 0.4,-0.22 0.86,-0.35 1.35,-0.36 H 20 c 0,0 0.05,0 0.07,0 0.49,0.01 0.95,0.14 1.35,0.36 z" />
        </g>
        <g
           id="g4378">
          <path
             style="fill:#b27946"
             inkscape:connector-curvature="0"
             id="path4376"
             d="m 24,22 c 2.21,0 4,1.79 4,4 0,0.84 -0.27,1.63 -0.71,2.28 C 26.56,29.32 25.36,30 24,30 23.39,30 22.8,29.86 22.28,29.6 20.93,28.97 20,27.59 20,26 c 0,-0.35 0.04,-0.68 0.13,-1 V 24.99 C 21.73,24.93 23,23.62 23,22 Z" />
        </g>
        <g
           id="g4382">
          <path
             style="fill:#a0d468"
             inkscape:connector-curvature="0"
             id="path4380"
             d="m 16.46,51 c 0.34,0.59 0.54,1.27 0.54,2 0,0.8 -0.24,1.54 -0.64,2.17 C 15.65,56.27 14.41,57 13,57 12.19,57 11.43,56.76 10.8,56.34 9.71,55.62 9,54.4 9,53 c 0,-2.21 1.79,-4 4,-4 1.02,0 1.95,0.38 2.66,1.02 0.32,0.27 0.59,0.61 0.8,0.98 z" />
        </g>
        <g
           id="g4386">
          <circle
             style="fill:#a0d468"
             id="circle4384"
             r="4"
             cy="44"
             cx="31" />
        </g>
        <g
           id="g4390">
          <circle
             style="fill:#a0d468"
             id="circle4388"
             r="4"
             cy="38"
             cx="55" />
        </g>
        <g
           id="g4394">
          <path
             style="fill:#a0d468"
             inkscape:connector-curvature="0"
             id="path4392"
             d="m 51,46 c 3.31,0 6,2.69 6,6 0,1.94 -0.92,3.66 -2.35,4.75 C 53.64,57.54 52.38,58 51,58 48.74,58 46.76,56.74 45.74,54.89 45.27,54.04 45,53.05 45,52 c 0,-1.54 0.58,-2.94 1.53,-4 0.59,-0.66 1.32,-1.18 2.13,-1.53 C 49.38,46.17 50.17,46 51,46 Z" />
        </g>
      </g>
      <g
         id="g4404">
        <path
           inkscape:connector-curvature="0"
           id="path4398"
           d="M 56.498,56.318 C 57.435,55.127 58,53.63 58,52 58,48.141 54.859,45 51,45 50.484,45 49.983,45.06 49.498,45.166 48.763,39.47 47.867,31.812 47.375,24.936 47.582,24.963 47.786,25 48,25 c 1.275,0 2.427,-0.494 3.311,-1.282 l 5.945,5.977 0.621,-1.249 c 1.898,-3.817 1.179,-8.399 -1.781,-11.445 h 7.291 L 62.948,15.685 C 61.616,11.686 57.89,9 53.676,9 H 53.365 L 59.689,2.677 58.448,2.056 C 54.594,0.129 49.957,0.882 46.909,3.929 L 45.93,4.908 C 45.134,5.703 44.484,6.626 44,7.63 43.516,6.626 42.866,5.702 42.072,4.908 L 41.093,3.929 C 38.046,0.881 33.407,0.127 29.553,2.056 l -1.241,0.621 5.897,5.896 C 30.507,7.182 25.662,7.177 22.909,9.929 L 21.93,10.908 C 21.126,11.71 20.48,12.626 20,13.615 19.52,12.626 18.874,11.709 18.071,10.907 L 17.092,9.928 C 14.044,6.88 9.406,6.127 5.552,8.055 L 4.312,8.677 10.635,15 H 10.324 C 6.11,15 2.384,17.686 1.052,21.684 L 0.612,23 h 7.291 c -2.958,3.047 -3.678,7.629 -1.78,11.445 l 0.621,1.249 5.945,-5.977 C 13.573,30.506 14.725,31 16,31 c 0.213,0 0.416,-0.037 0.622,-0.063 -0.352,4.932 -0.946,10.78 -1.769,17.428 C 14.279,48.135 13.656,48 13,48 10.243,48 8,50.243 8,53 8,54.06 8.337,55.041 8.902,55.851 3.729,57.463 1,59.574 1,62 v 1 h 62 v -1 c 0,-2.221 -2.19,-4.129 -6.502,-5.682 z M 56,52 c 0,2.757 -2.243,5 -5,5 -2.757,0 -5,-2.243 -5,-5 0,-2.757 2.243,-5 5,-5 2.757,0 5,2.243 5,5 z M 44.218,53.7 C 42.654,53.515 41.06,53.357 39.418,53.247 39.587,52.072 39.79,50.631 40.012,49 h 4.673 C 44.251,49.911 44,50.926 44,52 c 0,0.587 0.081,1.155 0.218,1.7 z M 18.392,34 h 3.217 c 0.112,1.324 0.234,2.662 0.365,4 h -3.949 c 0.135,-1.38 0.259,-2.721 0.367,-4 z M 28.324,17 H 29 31.903 c -1.121,1.155 -1.92,2.529 -2.377,4 H 23.858 C 23.683,20.326 23.345,19.72 22.877,19.233 24.324,17.806 26.259,17 28.324,17 Z m -0.798,-2 c 1.352,-2.439 3.934,-4 6.798,-4 h 1.352 c 1.483,0 2.929,0.433 4.171,1.222 C 39.313,13.017 39,13.973 39,15 H 29 28.324 Z M 44,12 c 1.654,0 3,1.346 3,3 0,1.654 -1.346,3 -3,3 -1.654,0 -3,-1.346 -3,-3 0,-1.654 1.346,-3 3,-3 z m -2.497,25 h 4.996 c 0.153,1.372 0.309,2.71 0.464,4 h -5.925 c 0.158,-1.301 0.314,-2.638 0.465,-4 z m 4.779,-2 h -4.561 c 0.141,-1.326 0.275,-2.664 0.402,-4 h 3.756 c 0.126,1.34 0.262,2.678 0.403,4 z M 40,23 c -1.654,0 -3,-1.346 -3,-3 0,-1.467 1.06,-2.687 2.454,-2.945 0.652,1.435 1.953,2.514 3.533,2.841 C 42.988,19.931 43,19.965 43,20 c 0,1.654 -1.346,3 -3,3 z m -7.392,9.207 -4.086,-4.108 C 28.821,27.459 29,26.752 29,26 29,24.87 28.609,23.838 27.974,23 h 1.148 c -0.179,1.83 0.14,3.716 1.001,5.445 l 0.621,1.249 1.88,-1.89 c 0.4,1.437 0.396,2.969 -0.016,4.403 z M 31.389,26.21 c -0.803,-2.768 -0.066,-5.798 2.016,-7.891 L 34.38,17.34 c 0.124,-0.125 0.26,-0.231 0.395,-0.34 h 1.252 C 35.391,17.838 35,18.87 35,20 c 0,0.752 0.179,1.459 0.478,2.099 z M 20,20 c 1.103,0 2,0.897 2,2 0,1.103 -0.897,2 -2,2 -1.103,0 -2,-0.897 -2,-2 0,-1.103 0.897,-2 2,-2 z m 1.019,5.852 c 1.384,-0.367 2.467,-1.45 2.834,-2.834 C 23.902,23.016 23.95,23 24,23 c 1.654,0 3,1.346 3,3 0,1.654 -1.346,3 -3,3 -1.654,0 -3,-1.346 -3,-3 0,-0.05 0.016,-0.098 0.019,-0.148 z M 17.824,40 h 4.353 c 0.14,1.348 0.286,2.686 0.435,4 h -5.223 c 0.156,-1.375 0.3,-2.705 0.435,-4 z m 5.02,6 c 0.163,1.38 0.328,2.718 0.49,4 H 16.975 C 16.89,49.888 16.801,49.78 16.708,49.676 16.866,48.421 17.014,47.2 17.156,46 Z m -4.945,6 h 5.691 c 0.058,0.444 0.115,0.879 0.171,1.304 -2.024,0.152 -3.986,0.361 -5.855,0.623 C 17.963,53.626 18,53.317 18,53 18,52.658 17.965,52.323 17.899,52 Z m 7.863,1.173 C 24.936,46.963 23.916,38.487 23.376,30.937 23.583,30.963 23.786,31 24,31 c 1.275,0 2.427,-0.494 3.311,-1.282 l 5.945,5.977 0.621,-1.249 c 1.272,-2.559 1.366,-5.574 0.309,-8.211 l 2.503,-2.516 C 37.573,24.506 38.725,25 40,25 c 0.213,0 0.416,-0.037 0.622,-0.063 -0.746,10.44 -2.394,22.553 -3.21,28.205 C 35.639,53.057 33.841,53 32,53 c -2.107,0 -4.197,0.059 -6.238,0.173 z M 46.111,47 h -5.83 c 0.166,-1.256 0.339,-2.599 0.514,-4 h 6.414 c 0.126,1.015 0.25,1.983 0.369,2.9 -0.537,0.303 -1.03,0.672 -1.467,1.1 z M 45.695,29 h -3.391 c 0.142,-1.623 0.269,-3.228 0.374,-4.793 0.514,-0.329 0.958,-0.75 1.321,-1.238 0.363,0.488 0.807,0.909 1.32,1.238 0.106,1.563 0.233,3.17 0.376,4.793 z M 48,23 c -1.654,0 -3,-1.346 -3,-3 0,-0.035 0.012,-0.069 0.013,-0.104 1.58,-0.327 2.881,-1.406 3.533,-2.841 C 49.94,17.313 51,18.533 51,20 c 0,1.654 -1.346,3 -3,3 z m 5.622,-5.659 0.974,0.979 c 2.082,2.093 2.818,5.122 2.016,7.89 L 52.523,22.099 C 52.821,21.459 53,20.752 53,20 53,18.87 52.609,17.838 51.974,17 h 1.252 c 0.135,0.109 0.271,0.216 0.396,0.341 z M 60.474,15 H 49 C 49,13.973 48.687,13.018 48.154,12.223 49.395,11.433 50.842,11 52.324,11 h 1.352 c 2.864,0 5.446,1.561 6.798,4 z M 47.343,6.322 48.322,5.343 C 50.417,3.249 53.449,2.508 56.217,3.32 l -5.898,5.898 c -1.302,0.274 -2.542,0.806 -3.635,1.578 -0.445,-0.285 -0.939,-0.495 -1.465,-0.628 0.336,-1.449 1.067,-2.79 2.124,-3.846 z m -7.664,-0.979 0.979,0.979 c 1.056,1.056 1.787,2.397 2.124,3.846 -0.526,0.133 -1.02,0.342 -1.465,0.627 C 40.224,10.023 38.984,9.491 37.682,9.217 L 31.784,3.319 c 2.769,-0.811 5.799,-0.07 7.895,2.024 z m -16.336,6.978 0.979,-0.979 c 1.47,-1.47 3.893,-1.899 6.286,-1.61 -2.53,1.039 -4.561,3.119 -5.504,5.81 -1.513,0.525 -2.874,1.43 -3.979,2.639 -0.037,-0.011 -0.074,-0.025 -0.112,-0.035 -0.05,-2.177 0.772,-4.267 2.33,-5.825 z m -7.664,-0.978 0.979,0.979 c 1.557,1.557 2.379,3.648 2.328,5.825 -0.038,0.01 -0.074,0.023 -0.111,0.034 -1.394,-1.526 -3.201,-2.554 -5.196,-2.967 L 7.783,9.319 c 2.769,-0.81 5.802,-0.07 7.896,2.024 z M 10.324,17 h 1.352 c 2.066,0 4.002,0.806 5.447,2.233 C 16.654,19.72 16.317,20.327 16.142,21 H 3.526 c 1.352,-2.439 3.934,-4 6.798,-4 z m -0.92,7.319 0.975,-0.979 c 0.124,-0.125 0.26,-0.231 0.395,-0.34 h 1.252 C 11.391,23.838 11,24.87 11,26 c 0,0.752 0.179,1.459 0.478,2.099 L 7.389,32.21 C 6.586,29.442 7.322,26.412 9.404,24.319 Z M 13,26 c 0,-1.654 1.346,-3 3,-3 0.05,0 0.098,0.016 0.148,0.019 0.367,1.384 1.45,2.467 2.834,2.834 C 18.984,25.902 19,25.95 19,26 c 0,1.654 -1.346,3 -3,3 -1.654,0 -3,-1.346 -3,-3 z m 7,2.969 c 0.363,0.488 0.807,0.909 1.321,1.238 0.04,0.592 0.083,1.19 0.129,1.793 h -2.898 c 0.046,-0.613 0.087,-1.206 0.127,-1.793 0.514,-0.328 0.957,-0.75 1.321,-1.238 z M 13,50 c 1.654,0 3,1.346 3,3 0,1.654 -1.346,3 -3,3 -1.654,0 -3,-1.346 -3,-3 0,-1.654 1.346,-3 3,-3 z M 3.4,61 C 4.231,59.904 6.448,58.583 10.694,57.41 11.388,57.774 12.164,58 13,58 14.579,58 15.972,57.25 16.889,56.103 21.45,55.383 26.662,55 32,55 c 4.559,0 9.086,0.289 13.144,0.823 C 46.395,57.733 48.551,59 51,59 c 1.407,0 2.716,-0.421 3.815,-1.139 3.268,1.055 5.046,2.192 5.775,3.139 z" />
        <path
           inkscape:connector-curvature="0"
           id="path4400"
           d="m 55,33 c -2.757,0 -5,2.243 -5,5 0,2.757 2.243,5 5,5 2.757,0 5,-2.243 5,-5 0,-2.757 -2.243,-5 -5,-5 z m 0,8 c -1.654,0 -3,-1.346 -3,-3 0,-1.654 1.346,-3 3,-3 1.654,0 3,1.346 3,3 0,1.654 -1.346,3 -3,3 z" />
        <path
           inkscape:connector-curvature="0"
           id="path4402"
           d="m 36,44 c 0,-2.757 -2.243,-5 -5,-5 -2.757,0 -5,2.243 -5,5 0,2.757 2.243,5 5,5 2.757,0 5,-2.243 5,-5 z m -5,3 c -1.654,0 -3,-1.346 -3,-3 0,-1.654 1.346,-3 3,-3 1.654,0 3,1.346 3,3 0,1.654 -1.346,3 -3,3 z" />
      </g>
    </g>
    <path
       inkscape:connector-curvature="0"
       id="path4423"
       d="M 18.550467,46.490628 V 56.631062 H 19.77566 V 46.490628 Z M 5.8162688,49.149559 c -0.4605339,0 -0.8949999,0.09341 -1.3033979,0.280229 -0.4040533,0.182478 -0.7690047,0.410572 -1.0948542,0.684285 v -0.762488 h -1.225194 v 9.964477 h 1.225194 v -3.049951 c 0.3171602,0.173786 0.6278035,0.301953 0.9319294,0.384502 0.3084709,0.08255 0.651699,0.123824 1.0296844,0.123824 0.434466,0 0.8450363,-0.0869 1.231711,-0.26068 0.3910194,-0.17813 0.7299028,-0.427948 1.0166504,-0.749454 0.3084707,-0.338882 0.5474271,-0.751627 0.7168687,-1.238229 0.1694418,-0.490946 0.2541626,-1.031855 0.2541626,-1.622729 0,-1.177403 -0.2454734,-2.0963 -0.7364197,-2.756688 C 7.3760016,49.481924 6.6938901,49.149559 5.8162688,49.149559 Z m 19.9810902,0 c -0.430123,0 -0.836348,0.08907 -1.218678,0.267195 -0.377985,0.178132 -0.758142,0.425777 -1.140472,0.742937 v -0.808106 h -1.225195 v 7.279477 h 1.225195 v -5.435168 c 0.334538,-0.256335 0.669077,-0.467052 1.003616,-0.63215 0.338882,-0.165096 0.675594,-0.247645 1.010132,-0.247645 0.351918,0 0.621287,0.04779 0.808108,0.143373 0.186821,0.09124 0.330194,0.230268 0.43012,0.417088 0.09124,0.173786 0.149889,0.406227 0.17596,0.697319 0.03042,0.286748 0.04562,0.590873 0.04562,0.912379 v 4.144804 h 1.225194 v -4.659648 c 0,-0.130339 -0.0043,-0.26068 -0.01303,-0.391019 -0.0087,-0.134685 -0.01955,-0.251991 -0.03259,-0.351917 0.343227,-0.265025 0.686455,-0.482257 1.029684,-0.651699 0.343227,-0.173787 0.686455,-0.26068 1.029684,-0.26068 0.351917,0 0.621286,0.04779 0.808108,0.143373 0.186819,0.09559 0.330192,0.236786 0.43012,0.423607 0.09124,0.173786 0.149888,0.406224 0.175959,0.697316 0.03042,0.291093 0.04562,0.593047 0.04562,0.905863 v 4.144804 h 1.225194 v -4.724817 c 0,-0.868932 -0.191165,-1.544526 -0.573495,-2.026783 -0.377987,-0.486602 -0.966688,-0.729903 -1.766106,-0.729903 -0.464877,0 -0.901517,0.09341 -1.309913,0.280229 -0.408398,0.182478 -0.860243,0.482258 -1.355534,0.899345 -0.169443,-0.369296 -0.42795,-0.658215 -0.775523,-0.866758 -0.343227,-0.208544 -0.762487,-0.312816 -1.257778,-0.312816 z m 12.421381,0 c -1.060098,0 -1.915996,0.349744 -2.567693,1.049234 -0.647355,0.699491 -0.971033,1.644455 -0.971033,2.834891 0,1.203472 0.338884,2.133228 1.016651,2.789272 0.677767,0.651699 1.620558,0.977548 2.828373,0.977548 0.473569,0 0.925413,-0.05866 1.355534,-0.175959 0.430122,-0.117306 0.851553,-0.262851 1.264296,-0.436637 v -1.335984 h -0.06517 c -0.212888,0.191167 -0.571323,0.386676 -1.075302,0.586529 -0.499637,0.195509 -0.9971,0.293266 -1.492391,0.293266 -0.373641,0 -0.71687,-0.05213 -1.029685,-0.156408 -0.30847,-0.104272 -0.575666,-0.26068 -0.801588,-0.469223 C 36.446119,54.8932 36.261471,54.621658 36.126786,54.291463 35.992103,53.956924 35.92476,53.565904 35.92476,53.118404 h 5.363482 v -0.664733 c 0,-1.055752 -0.267195,-1.870375 -0.801589,-2.44387 -0.530049,-0.573495 -1.286019,-0.860242 -2.267913,-0.860242 z m -25.220748,0.02607 c -0.438812,0 -0.884139,0.03911 -1.335983,0.117306 -0.451845,0.0782 -0.797247,0.149891 -1.036202,0.21506 v 1.244746 h 0.06517 c 0.421432,-0.160753 0.82983,-0.282403 1.225194,-0.364952 0.395365,-0.0869 0.753798,-0.130339 1.075302,-0.130339 0.265024,0 0.519189,0.01738 0.762489,0.05213 0.243301,0.03476 0.451845,0.102103 0.625631,0.202025 0.182476,0.104272 0.321505,0.247648 0.417088,0.430122 0.09992,0.182477 0.14989,0.412743 0.14989,0.690801 v 0.188994 c -0.712524,0.03476 -1.37943,0.0869 -2.000716,0.156408 -0.621287,0.06951 -1.153508,0.202024 -1.596662,0.397535 -0.438812,0.195509 -0.777695,0.464878 -1.016651,0.808106 -0.234611,0.338885 -0.3519172,0.784212 -0.3519172,1.335984 0,0.673423 0.2280942,1.227366 0.6842832,1.661832 0.456189,0.434466 1.012306,0.651698 1.668351,0.651698 0.356261,0 0.666905,-0.03476 0.931928,-0.104272 0.265025,-0.06517 0.499636,-0.147718 0.703835,-0.247645 0.173786,-0.0782 0.351918,-0.182476 0.534393,-0.312816 0.186821,-0.134682 0.334538,-0.238954 0.443156,-0.312815 v 0.775522 h 1.218677 v -4.939875 c 0,-0.469224 -0.07168,-0.862416 -0.215062,-1.179577 -0.143373,-0.317159 -0.351917,-0.575666 -0.625631,-0.77552 -0.278058,-0.204199 -0.608252,-0.347572 -0.990582,-0.430121 -0.377985,-0.0869 -0.823314,-0.13034 -1.335982,-0.13034 z m 38.111353,0 c -0.438811,0 -0.884138,0.03911 -1.335983,0.117306 -0.451844,0.0782 -0.797246,0.149891 -1.0362,0.21506 v 1.244746 h 0.06517 c 0.421431,-0.160753 0.829829,-0.282403 1.225195,-0.364952 0.395362,-0.0869 0.753798,-0.130339 1.075302,-0.130339 0.265024,0 0.519188,0.01738 0.762489,0.05213 0.243301,0.03476 0.451845,0.102103 0.625631,0.202025 0.182475,0.104272 0.321504,0.247648 0.417087,0.430122 0.09992,0.182477 0.14989,0.412743 0.14989,0.690801 v 0.188994 c -0.712524,0.03476 -1.37943,0.0869 -2.000715,0.156408 -0.621288,0.06951 -1.153507,0.202024 -1.596663,0.397535 -0.438809,0.195509 -0.777694,0.464878 -1.016651,0.808106 -0.234611,0.338885 -0.351917,0.784212 -0.351917,1.335984 0,0.673423 0.228094,1.227366 0.684285,1.661832 0.456188,0.434466 1.012304,0.651698 1.668349,0.651698 0.356261,0 0.666905,-0.03476 0.931929,-0.104272 0.265024,-0.06517 0.499636,-0.147718 0.703834,-0.247645 0.173787,-0.0782 0.351918,-0.182476 0.534394,-0.312816 0.186821,-0.134682 0.33454,-0.238954 0.443155,-0.312815 v 0.775522 h 1.218677 v -4.939875 c 0,-0.469224 -0.07168,-0.862416 -0.215061,-1.179577 -0.143373,-0.317159 -0.351917,-0.575666 -0.625631,-0.77552 -0.278058,-0.204199 -0.608252,-0.347572 -0.990582,-0.430121 -0.377985,-0.0869 -0.823314,-0.13034 -1.335982,-0.13034 z m 8.022413,0 c -0.464879,0 -0.88631,0.06083 -1.264296,0.182476 -0.37364,0.117306 -0.682111,0.278058 -0.925412,0.482258 -0.25199,0.208543 -0.440984,0.445325 -0.566977,0.71035 -0.121652,0.265024 -0.182476,0.547427 -0.182476,0.847208 0,0.477913 0.132512,0.881969 0.397536,1.212161 0.269368,0.325849 0.723385,0.573495 1.362051,0.742937 0.230266,0.06083 0.484429,0.117308 0.762487,0.169442 0.282403,0.05214 0.510498,0.09775 0.684285,0.136857 0.469222,0.104271 0.786382,0.230267 0.95148,0.377985 0.165096,0.147719 0.247646,0.364952 0.247646,0.6517 0,0.37364 -0.152065,0.647354 -0.456189,0.82114 -0.304128,0.173786 -0.72556,0.26068 -1.264297,0.26068 -0.434467,0 -0.888483,-0.08472 -1.362051,-0.254164 -0.473567,-0.173787 -0.903689,-0.406225 -1.290364,-0.697317 h -0.06517 v 1.375083 c 0.304126,0.152064 0.679939,0.293266 1.12744,0.423607 0.451845,0.125994 0.947134,0.188991 1.485873,0.188991 0.95148,0 1.700933,-0.212887 2.248361,-0.638665 0.551772,-0.425777 0.827658,-0.97103 0.827658,-1.635763 -10e-7,-0.530049 -0.154236,-0.955825 -0.462707,-1.277331 -0.308471,-0.317159 -0.74728,-0.540911 -1.316432,-0.67125 -0.18682,-0.04344 -0.421431,-0.09124 -0.703834,-0.143374 -0.278058,-0.05214 -0.530049,-0.104272 -0.755971,-0.156408 -0.408398,-0.09558 -0.703835,-0.219404 -0.886311,-0.371467 -0.186821,-0.152063 -0.280229,-0.377986 -0.280229,-0.677767 0,-0.338885 0.154234,-0.593047 0.462705,-0.762489 0.308473,-0.173786 0.686456,-0.26068 1.133956,-0.26068 0.430122,0 0.868932,0.08038 1.316432,0.24113 0.447502,0.156408 0.827658,0.349744 1.140474,0.580011 h 0.06517 v -1.309913 c -0.295437,-0.152064 -0.666906,-0.280232 -1.114407,-0.384504 -0.443155,-0.10862 -0.881966,-0.162924 -1.316432,-0.162924 z m -15.986174,0.175958 v 7.279478 h 1.225194 v -5.167974 c 0.325849,-0.265024 0.664731,-0.480084 1.016651,-0.64518 0.351916,-0.169442 0.716867,-0.254164 1.094854,-0.254164 0.234611,0 0.436637,0.0109 0.606079,0.03259 0.173786,0.01738 0.351919,0.04779 0.534393,0.09124 h 0.06517 v -1.25778 c -0.191165,-0.03042 -0.334537,-0.04997 -0.430121,-0.05865 -0.09559,-0.01304 -0.249819,-0.01955 -0.462706,-0.01955 -0.386677,0 -0.766833,0.08255 -1.140474,0.247645 -0.369294,0.160752 -0.797245,0.436639 -1.283847,0.827658 v -1.075303 z m -4.992013,0.808107 c 0.651697,0 1.136127,0.175959 1.453288,0.527876 0.321475,0.351919 0.4844,0.84938 0.488774,1.49239 H 35.92476 c 0.05213,-0.573495 0.27154,-1.053578 0.658216,-1.440254 0.391019,-0.386674 0.91455,-0.580012 1.570595,-0.580012 z M 5.5034533,50.316099 c 0.6212864,0 1.0818203,0.217234 1.3816017,0.651699 0.2997816,0.434466 0.4496723,1.090509 0.4496723,1.968131 0,0.903689 -0.191165,1.5858 -0.573495,2.046335 -0.3823301,0.460535 -0.9145509,0.6908 -1.5966625,0.6908 -0.3171601,0 -0.6017353,-0.02824 -0.8537255,-0.08472 -0.2476457,-0.05648 -0.5452548,-0.162923 -0.8928276,-0.319333 v -4.125254 c 0.3258495,-0.247645 0.6669053,-0.4475 1.0231674,-0.599563 0.356262,-0.152064 0.7103518,-0.228096 1.0622692,-0.228095 z m 9.4431177,2.496008 v 2.026782 c -0.304126,0.234612 -0.634321,0.43664 -0.990582,0.606082 -0.356263,0.165097 -0.749455,0.247645 -1.179575,0.247645 -0.517016,0 -0.901517,-0.104272 -1.153508,-0.312816 -0.25199,-0.212888 -0.377985,-0.527876 -0.377985,-0.944964 0,-0.369296 0.108621,-0.658215 0.325849,-0.866758 0.217234,-0.212888 0.501808,-0.369296 0.853727,-0.469224 0.295435,-0.08255 0.695144,-0.14555 1.199126,-0.188994 0.508323,-0.04344 0.949307,-0.07603 1.322948,-0.09775 z m 38.111354,0 v 2.026782 c -0.304127,0.234612 -0.634321,0.43664 -0.990583,0.606082 -0.356261,0.165097 -0.749453,0.247645 -1.179575,0.247645 -0.517016,0 -0.901517,-0.104272 -1.153508,-0.312816 -0.251989,-0.212888 -0.377984,-0.527876 -0.377984,-0.944964 0,-0.369296 0.108621,-0.658215 0.325849,-0.866758 0.217233,-0.212888 0.501808,-0.369296 0.853726,-0.469224 0.295436,-0.08255 0.695144,-0.14555 1.199126,-0.188994 0.508324,-0.04344 0.949308,-0.07603 1.322949,-0.09775 z"
       style="font-style:normal;font-weight:normal;font-size:96px;line-height:1.25;font-family:sans-serif;letter-spacing:0px;word-spacing:0px;fill:#000000;fill-opacity:1;stroke:none;stroke-width:0.1390291" />
  </g>
</svg>
