<?xml version="1.0" encoding="UTF-8" standalone="no"?>
<svg
   xmlns:dc="http://purl.org/dc/elements/1.1/"
   xmlns:cc="http://creativecommons.org/ns#"
   xmlns:rdf="http://www.w3.org/1999/02/22-rdf-syntax-ns#"
   xmlns:svg="http://www.w3.org/2000/svg"
   xmlns="http://www.w3.org/2000/svg"
   xmlns:sodipodi="http://sodipodi.sourceforge.net/DTD/sodipodi-0.dtd"
   xmlns:inkscape="http://www.inkscape.org/namespaces/inkscape"
   id="Layer_5"
   enable-background="new 0 0 64 64"
   height="512"
   viewBox="0 0 64 64"
   width="512"
   version="1.1"
   sodipodi:docname="dolphin.svg"
   inkscape:version="0.92.4 (5da689c313, 2019-01-14)">
  <metadata
     id="metadata4636">
    <rdf:RDF>
      <cc:Work
         rdf:about="">
        <dc:format>image/svg+xml</dc:format>
        <dc:type
           rdf:resource="http://purl.org/dc/dcmitype/StillImage" />
      </cc:Work>
    </rdf:RDF>
  </metadata>
  <defs
     id="defs4634" />
  <sodipodi:namedview
     pagecolor="#ffffff"
     bordercolor="#666666"
     borderopacity="1"
     objecttolerance="10"
     gridtolerance="10"
     guidetolerance="10"
     inkscape:pageopacity="0"
     inkscape:pageshadow="2"
     inkscape:window-width="1069"
     inkscape:window-height="876"
     id="namedview4632"
     showgrid="false"
     inkscape:zoom="0.4609375"
     inkscape:cx="256"
     inkscape:cy="256"
     inkscape:window-x="2934"
     inkscape:window-y="27"
     inkscape:window-maximized="0"
     inkscape:current-layer="Layer_5" />
  <g
     id="g4696">
    <g
       transform="matrix(0.59759431,0,0,0.59759431,13.419356,1.2159655)"
       id="g4629">
      <g
         id="g4613">
        <g
           id="g4575">
          <path
             style="fill:#aab2bd"
             inkscape:connector-curvature="0"
             id="path4573"
             d="M 18.1,24.29 C 18.52,27.03 20,30 20,30 c -5.54,0 -8.32,-2.14 -9.7,-4.06 1.93,-0.67 4.48,-1.3 7.8,-1.65 z" />
        </g>
        <g
           id="g4579">
          <path
             style="fill:#969faa"
             inkscape:connector-curvature="0"
             id="path4577"
             d="m 46,55 c 0,0 -2,4 -2,7 h -9 c 0,0 1,-7 11,-7 z" />
        </g>
        <g
           id="g4583">
          <path
             style="fill:#969faa"
             inkscape:connector-curvature="0"
             id="path4581"
             d="m 18,50 c 0,0 -2,4 -2,7 H 7 c 0,0 1,-7 11,-7 z" />
        </g>
        <g
           id="g4587">
          <path
             style="fill:#969faa"
             inkscape:connector-curvature="0"
             id="path4585"
             d="m 15,34 c 0,0 -2,4 -2,7 H 4 c 0,0 1,-7 11,-7 z" />
        </g>
        <g
           id="g4591">
          <path
             style="fill:#969faa"
             inkscape:connector-curvature="0"
             id="path4589"
             d="m 37,41 c 0,0 -2,4 -2,7 h -9 c 0,0 1,-7 11,-7 z" />
        </g>
        <g
           id="g4595">
          <path
             style="fill:#969faa"
             inkscape:connector-curvature="0"
             id="path4593"
             d="m 62,41.98 -3.31,0.85 c -0.45,0.11 -0.86,0.34 -1.19,0.67 -0.33,0.33 -0.56,0.74 -0.67,1.19 L 55.98,48 c -7.23,0 -6.2,-6.25 -5.46,-8.87 0.91,0.99 1.59,1.79 2.01,2.29 0.31,0.37 0.76,0.58 1.24,0.58 h 0.61 c 0.9,0 1.62,-0.72 1.62,-1.62 0,-0.25 -0.06,-0.5 -0.17,-0.72 L 54.14,36.27 C 57.07,35.65 62,35.56 62,41.98 Z" />
        </g>
        <g
           id="g4599">
          <path
             style="fill:#aab2bd"
             inkscape:connector-curvature="0"
             id="path4597"
             d="M 5.54,28.48 C 5.15,28.81 4.66,29 4.15,29 H 4.12 C 2.95,29 2,28.05 2,26.88 2,26.32 2.22,25.78 2.62,25.38 L 6,22 C 6,18.14 7.57,14.64 10.1,12.1 12.64,9.57 16.14,8 20,8 c 1.58,0 3.14,0.12 4.68,0.34 8.95,2.67 9.09,2.74 11.32,3.89 l 1.01,0.61 c 5.02,3.1 9.19,7.57 11.93,13.05 l 5.2,10.38 1.69,3.39 C 55.94,39.88 56,40.13 56,40.38 56,41.28 55.28,42 54.38,42 h -0.61 c -0.48,0 -0.93,-0.21 -1.24,-0.58 -0.42,-0.5 -1.1,-1.3 -2.01,-2.29 C 47.25,35.57 41.04,29.56 33.75,26.29 L 33.69,26.26 C 34.83,24.09 37,23 37,23 c 0,-3.6 -8.3,-3.57 -12.95,-3.27 -0.2,0.01 -0.4,0.04 -0.58,0.09 -0.02,0 -0.03,0.01 -0.04,0.01 l -1.84,0.36 C 8.14,21.23 8.6,26.16 7.26,27.3 6.45,27.76 5.9,28.18 5.54,28.48 Z" />
        </g>
        <g
           id="g4603">
          <path
             style="fill:#969faa"
             inkscape:connector-curvature="0"
             id="path4601"
             d="M 36,12.23 C 33.77,11.08 33.63,11.01 24.68,8.34 26.98,5.69 32.12,2 43,2 v 1 c 0,0 -7,3 -7,9 z" />
        </g>
        <g
           id="g4607">
          <path
             style="fill:#969faa"
             inkscape:connector-curvature="0"
             id="path4605"
             d="m 37,23 c 0,0 -2.17,1.09 -3.31,3.26 C 33.28,27.03 33,27.95 33,29 v 6 C 33,35 21.96,32.24 21.06,24.07 21.02,23.72 21,23.37 21,23 c 0,-0.86 0.33,-1.66 0.88,-2.24 0.41,-0.44 0.94,-0.77 1.55,-0.93 0.01,0 0.02,-0.01 0.04,-0.01 0.18,-0.05 0.38,-0.08 0.58,-0.09 C 28.7,19.43 37,19.4 37,23 Z" />
        </g>
        <g
           id="g4611">
          <path
             style="fill:#ccd1d9"
             inkscape:connector-curvature="0"
             id="path4609"
             d="M 10.3,25.94 C 9.03,26.39 8.03,26.86 7.26,27.3 8.6,26.16 8.14,21.23 21.59,20.19 l 1.84,-0.36 c -0.61,0.16 -1.14,0.49 -1.55,0.93 C 21.33,21.34 21,22.14 21,23 c 0,0.37 0.02,0.72 0.06,1.07 -1.05,0.05 -2.04,0.12 -2.96,0.22 -3.32,0.35 -5.87,0.98 -7.8,1.65 z" />
        </g>
      </g>
      <g
         id="g4627">
        <path
           inkscape:connector-curvature="0"
           id="path4615"
           d="m 60.797,36.313 c -1.76,-1.425 -4.166,-1.462 -6.102,-1.158 L 49.838,25.441 C 46.899,19.563 42.417,14.848 37.025,11.652 37.3,6.623 43.332,3.945 43.394,3.919 L 44,3.657 V 1 H 43 C 32.491,1 27.054,4.325 24.291,7.283 22.881,7.103 21.45,7 20,7 11.869,7 5.229,13.502 5.006,21.58 L 1.914,24.672 C 1.333,25.253 1,26.057 1,26.879 1,28.6 2.4,30 4.146,30 4.885,30 5.609,29.73 6.183,29.242 6.777,28.736 7.959,27.914 9.974,27.127 11.596,29.032 14.581,31 20,31 h 1.616 l -0.722,-1.447 c -0.012,-0.024 -1.063,-2.149 -1.595,-4.369 0.295,-0.024 0.609,-0.041 0.916,-0.06 1.613,8.015 12.061,10.727 12.542,10.847 L 34,36.281 V 29 c 0,-0.495 0.083,-0.951 0.212,-1.377 6.487,3.144 12.021,8.366 15.206,11.782 -0.486,1.961 -0.862,5.067 0.786,7.252 1.173,1.555 3.117,2.343 5.779,2.343 h 0.778 l 1.034,-4.068 c 0.07,-0.273 0.212,-0.524 0.412,-0.725 0.2,-0.2 0.45,-0.343 0.725,-0.412 L 63,42.761 v -0.777 c 0,-2.579 -0.741,-4.487 -2.203,-5.671 z M 40.8,3.055 C 38.786,4.314 35.747,6.807 35.122,10.605 32.499,9.275 29.694,8.286 26.762,7.688 29.068,5.725 33.322,3.435 40.8,3.055 Z M 18.433,28.936 c -3.147,-0.27 -5.127,-1.345 -6.367,-2.508 1.438,-0.412 3.168,-0.777 5.239,-1.035 0.292,1.318 0.744,2.6 1.128,3.543 z M 10.017,24.993 C 11.35,23.55 14.045,21.968 20.355,21.313 20.131,21.833 20,22.401 20,23 c 0,0.045 0.005,0.088 0.005,0.133 -4.36,0.287 -7.614,1.025 -9.988,1.86 z M 32,29 v 4.642 C 29.074,32.619 22,29.478 22,23 c 0,-1.199 0.93,-2.198 2.119,-2.274 1.244,-0.08 2.416,-0.119 3.506,-0.119 4.031,0 6.915,0.536 7.97,1.526 0.127,0.119 0.223,0.24 0.289,0.367 C 34.614,23.33 32,25.468 32,29 Z m 3.146,-3.146 c 0.988,-1.267 2.261,-1.939 2.303,-1.961 L 38,23.618 V 23 c 0,-0.886 -0.359,-1.689 -1.037,-2.326 -1.84,-1.725 -6.204,-2.379 -12.973,-1.944 -0.245,0.016 -0.482,0.061 -0.714,0.116 l -0.001,-0.007 -1.82,0.359 C 10.098,20.084 8.124,23.804 7.062,25.804 6.906,26.098 6.747,26.394 6.633,26.512 5.826,26.978 5.256,27.403 4.886,27.719 4.671,27.902 4.415,28 4.121,28 3.503,28 3,27.497 3,26.879 3,26.584 3.12,26.295 3.328,26.086 L 7,22.414 V 22 C 7,14.832 12.832,9 20,9 31.955,9 42.703,15.643 48.05,26.336 l 6.885,13.77 C 54.978,40.19 55,40.286 55,40.382 55,40.723 54.723,41 54.382,41 H 53.771 C 53.587,41 53.415,40.92 53.3,40.781 51.267,38.327 44.109,30.221 35.146,25.854 Z m 23.295,16.002 c -0.623,0.157 -1.193,0.481 -1.648,0.937 -0.454,0.454 -0.778,1.023 -0.937,1.646 l -0.644,2.532 c -1.595,-0.12 -2.741,-0.63 -3.412,-1.519 -0.86,-1.141 -0.886,-2.805 -0.704,-4.177 0.255,0.295 0.485,0.567 0.662,0.781 0.496,0.6 1.229,0.943 2.012,0.943 h 0.611 C 55.826,43 57,41.825 57,40.382 c 0,-0.404 -0.096,-0.81 -0.276,-1.171 l -1.082,-2.164 c 1.359,-0.138 2.856,-0.022 3.897,0.821 0.836,0.677 1.317,1.801 1.434,3.345 z" />
        <circle
           id="circle4617"
           r="1"
           cy="15"
           cx="13" />
        <path
           inkscape:connector-curvature="0"
           id="path4619"
           d="M 38.617,40 H 37 c -8.591,0 -11.096,4.966 -11.763,7 H 23 v 2 H 47 V 47 H 36.074 c 0.344,-2.566 1.804,-5.52 1.821,-5.553 z m -11.26,7 c 0.703,-1.626 2.685,-4.468 8.075,-4.935 -0.518,1.272 -1.17,3.158 -1.368,4.935 z" />
        <path
           inkscape:connector-curvature="0"
           id="path4621"
           d="M 18.895,50.447 19.617,49 H 18 C 9.409,49 6.904,53.966 6.237,56 H 4 v 2 H 28 V 56 H 17.074 c 0.344,-2.566 1.804,-5.52 1.821,-5.553 z m -2.463,0.618 C 15.914,52.337 15.262,54.223 15.064,56 H 8.357 c 0.703,-1.626 2.686,-4.468 8.075,-4.935 z" />
        <path
           inkscape:connector-curvature="0"
           id="path4623"
           d="M 46.895,55.447 47.617,54 H 46 c -8.591,0 -11.096,4.966 -11.763,7 H 32 v 2 H 56 V 61 H 45.074 c 0.344,-2.566 1.804,-5.52 1.821,-5.553 z m -2.463,0.618 c -0.518,1.272 -1.17,3.158 -1.368,4.935 h -6.707 c 0.703,-1.626 2.686,-4.468 8.075,-4.935 z" />
        <path
           inkscape:connector-curvature="0"
           id="path4625"
           d="M 25,40 H 14.074 c 0.344,-2.566 1.804,-5.52 1.821,-5.553 L 16.617,33 H 15 C 6.409,33 3.904,37.966 3.237,40 H 1 v 2 H 25 Z M 13.432,35.065 C 12.914,36.337 12.262,38.223 12.064,40 H 5.357 c 0.703,-1.626 2.686,-4.468 8.075,-4.935 z" />
      </g>
    </g>
    <path
       id="path4646"
       transform="scale(0.125)"
       d="M 342.62891 354.32227 L 329.30664 382.15625 L 340.39648 382.15625 L 360.71484 354.32227 L 342.62891 354.32227 z M 306.98047 362.50977 C 297.70227 362.50977 290.60731 365.16373 285.69531 370.47266 C 280.78333 375.73196 278.32617 383.29829 278.32617 393.17188 L 278.32617 395.92578 L 268.875 395.92578 L 268.875 407.68359 L 278.32617 407.68359 L 278.32617 479.05664 L 292.31836 479.05664 L 292.31836 407.68359 L 317.10156 407.68359 L 317.10156 395.92578 L 291.87109 395.92578 L 291.87109 393.09766 C 291.87109 386.15141 293.21136 381.36403 295.89062 378.73438 C 298.6195 376.05511 302.98668 374.71484 308.99023 374.71484 C 310.87564 374.71484 313.05826 374.96282 315.53906 375.45898 C 318.01986 375.90551 320.02831 376.35227 321.56641 376.79883 L 322.31055 376.79883 L 322.31055 363.99805 C 320.22667 363.60113 317.92104 363.25278 315.39062 362.95508 C 312.90982 362.65737 310.10629 362.50977 306.98047 362.50977 z M 103.28125 363.25391 L 103.28125 399.27539 C 99.560045 397.34037 96.012565 395.9263 92.638672 395.0332 C 89.264779 394.09049 85.39551 393.61914 81.029297 393.61914 C 76.216538 393.61914 71.552171 394.61106 67.037109 396.5957 C 62.571664 398.58034 58.651236 401.45769 55.277344 405.22852 C 51.853835 409.09857 49.126056 413.78754 47.091797 419.29492 C 45.107155 424.8023 44.113281 431.07757 44.113281 438.12305 C 44.113281 451.66824 47.017186 462.26147 52.822266 469.90234 C 58.676961 477.54321 66.565068 481.36523 76.488281 481.36523 C 81.598738 481.36523 86.336912 480.39597 90.703125 478.46094 C 95.069338 476.52592 99.262349 473.82273 103.28125 470.34961 L 103.28125 479.05664 L 117.27344 479.05664 L 117.27344 363.25391 L 103.28125 363.25391 z M 235.75586 363.25391 L 235.75586 479.05664 L 249.74805 479.05664 L 249.74805 363.25391 L 235.75586 363.25391 z M 179.3418 393.61914 C 167.23548 393.61914 157.46194 397.61337 150.01953 405.60156 C 142.62674 413.58974 138.92969 424.37981 138.92969 437.97461 C 138.92969 451.71827 142.80091 462.3361 150.54102 469.82812 C 158.28112 477.27053 169.04657 480.99219 182.83984 480.99219 C 188.248 480.99219 193.40833 480.32205 198.32031 478.98242 C 203.23231 477.64278 208.04625 475.98074 212.75977 473.99609 L 212.75977 458.74023 L 212.01562 458.74023 C 209.58444 460.92334 205.48984 463.15516 199.73438 465.4375 C 194.02852 467.67021 188.34764 468.78711 182.69141 468.78711 C 178.42442 468.78711 174.50595 468.19078 170.93359 467 C 167.41086 465.80922 164.35933 464.02415 161.7793 461.64258 C 159.10003 459.2114 156.99123 456.11067 155.45312 452.33984 C 153.91503 448.5194 153.14453 444.05381 153.14453 438.94336 L 214.39648 438.94336 L 214.39648 431.35156 C 214.39648 419.29485 211.34496 409.99268 205.24219 403.44336 C 199.18902 396.89404 190.55503 393.61914 179.3418 393.61914 z M 415.04297 393.61914 C 410.13098 393.61914 405.3436 394.63566 400.67969 396.66992 C 396.01577 398.70417 391.50098 401.53232 387.13477 405.1543 L 387.13477 395.92578 L 373.14258 395.92578 L 373.14258 479.05664 L 387.13477 479.05664 L 387.13477 416.98828 C 390.9552 414.06094 394.94944 411.65299 399.11719 409.76758 C 403.28494 407.88216 407.27917 406.93945 411.09961 406.93945 C 414.82081 406.93945 417.84772 407.46197 420.17969 408.50391 C 422.51163 409.49623 424.2967 411.03332 425.53711 413.11719 C 426.72787 415.0026 427.54758 417.63197 427.99414 421.00586 C 428.4407 424.33014 428.66406 427.90222 428.66406 431.72266 L 428.66406 479.05664 L 442.6543 479.05664 L 442.6543 425.09961 C 442.6543 414.92831 440.29752 407.13862 435.58398 401.73047 C 430.87046 396.32231 424.02348 393.61914 415.04297 393.61914 z M 331.31641 395.92578 L 331.31641 479.05664 L 345.30859 479.05664 L 345.30859 395.92578 L 331.31641 395.92578 z M 178.59766 405.1543 C 186.04007 405.1543 191.57334 407.16274 195.19531 411.18164 C 198.86692 415.20055 200.72774 420.88338 200.77734 428.22656 L 153.14453 428.22656 C 153.73992 421.67724 156.24629 416.19318 160.66211 411.77734 C 165.12755 407.36152 171.10562 405.1543 178.59766 405.1543 z M 83.410156 406.41992 C 86.932898 406.41992 90.183191 406.74171 93.160156 407.38672 C 96.137122 408.03173 99.510429 409.19782 103.28125 410.88477 L 103.28125 458.58984 C 99.758509 461.36834 95.963049 463.65132 91.894531 465.4375 C 87.826014 467.17405 83.807177 468.04297 79.837891 468.04297 C 72.395481 468.04297 66.987174 465.4874 63.613281 460.37695 C 60.239389 455.21688 58.552734 447.69978 58.552734 437.82617 C 58.552734 427.80373 60.735349 420.06323 65.101562 414.60547 C 69.467776 409.1477 75.57082 406.41992 83.410156 406.41992 z "
       style="font-style:normal;font-weight:normal;font-size:96px;line-height:1.25;font-family:sans-serif;letter-spacing:0px;word-spacing:0px;fill:#000000;fill-opacity:1;stroke:none;stroke-width:1.58771408" />
  </g>
</svg>
