<?xml version="1.0" encoding="UTF-8" standalone="no"?>
<svg
   xmlns:dc="http://purl.org/dc/elements/1.1/"
   xmlns:cc="http://creativecommons.org/ns#"
   xmlns:rdf="http://www.w3.org/1999/02/22-rdf-syntax-ns#"
   xmlns:svg="http://www.w3.org/2000/svg"
   xmlns="http://www.w3.org/2000/svg"
   xmlns:sodipodi="http://sodipodi.sourceforge.net/DTD/sodipodi-0.dtd"
   xmlns:inkscape="http://www.inkscape.org/namespaces/inkscape"
   id="Layer_5"
   enable-background="new 0 0 64 64"
   height="512"
   viewBox="0 0 64 64"
   width="512"
   version="1.1"
   sodipodi:docname="helado.svg"
   inkscape:version="0.92.4 (5da689c313, 2019-01-14)">
  <metadata
     id="metadata3809">
    <rdf:RDF>
      <cc:Work
         rdf:about="">
        <dc:format>image/svg+xml</dc:format>
        <dc:type
           rdf:resource="http://purl.org/dc/dcmitype/StillImage" />
        <dc:title></dc:title>
      </cc:Work>
    </rdf:RDF>
  </metadata>
  <defs
     id="defs3807" />
  <sodipodi:namedview
     pagecolor="#ffffff"
     bordercolor="#666666"
     borderopacity="1"
     objecttolerance="10"
     gridtolerance="10"
     guidetolerance="10"
     inkscape:pageopacity="0"
     inkscape:pageshadow="2"
     inkscape:window-width="1488"
     inkscape:window-height="879"
     id="namedview3805"
     showgrid="false"
     inkscape:zoom="0.96791326"
     inkscape:cx="18.314483"
     inkscape:cy="266.00581"
     inkscape:window-x="2506"
     inkscape:window-y="40"
     inkscape:window-maximized="0"
     inkscape:current-layer="Layer_5"
     inkscape:snap-bbox="false"
     inkscape:snap-page="false" />
  <g
     id="g4167">
    <g
       transform="matrix(0.60356932,0,0,0.59356876,13.101118,2.5112909)"
       id="g3802">
      <g
         id="g3798">
        <g
           id="g3764">
          <path
             style="fill:#fcd770"
             inkscape:connector-curvature="0"
             id="path3762"
             d="M 39,30 H 25 18 C 17.92,30 17.84,30 17.76,29.99 15.11,29.87 13,27.68 13,25 13,22.88 14.32,21.08 16.19,20.36 16.78,22.46 18.71,24 21,24 h 20 2 c 2.29,0 4.22,-1.54 4.81,-3.64 1.87,0.72 3.19,2.52 3.19,4.64 0,2.68 -2.11,4.87 -4.76,4.99 C 46.16,30 46.08,30 46,30 Z" />
        </g>
        <g
           id="g3768">
          <path
             style="fill:#ffeaa7"
             inkscape:connector-curvature="0"
             id="path3766"
             d="M 16.19,20.36 C 16.07,19.93 16,19.47 16,19 16,16.88 17.32,15.08 19.19,14.36 19.78,16.46 21.71,18 24,18 h 2 14 c 2.29,0 4.22,-1.54 4.81,-3.64 1.87,0.72 3.19,2.52 3.19,4.64 0,0.47 -0.07,0.93 -0.19,1.36 C 47.22,22.46 45.29,24 43,24 H 41 21 c -2.29,0 -4.22,-1.54 -4.81,-3.64 z" />
        </g>
        <g
           id="g3772">
          <path
             style="fill:#ffeaa7"
             inkscape:connector-curvature="0"
             id="path3770"
             d="M 19.19,14.36 C 19.07,13.93 19,13.47 19,13 19,10.24 21.24,8 24,8 h 3.1 c 0.46,2.28 2.48,4 4.9,4 2.42,0 4.44,-1.72 4.9,-4 H 40 c 2.76,0 5,2.24 5,5 0,0.47 -0.07,0.93 -0.19,1.36 C 44.22,16.46 42.29,18 40,18 H 26 24 c -2.29,0 -4.22,-1.54 -4.81,-3.64 z" />
        </g>
        <g
           id="g3776">
          <path
             style="fill:#ef7385"
             inkscape:connector-curvature="0"
             id="path3774"
             d="M 37,7 C 37,7.34 36.97,7.68 36.9,8 36.44,10.28 34.42,12 32,12 29.58,12 27.56,10.28 27.1,8 27.03,7.68 27,7.34 27,7 c 0,-2.76 2.24,-5 5,-5 2.76,0 5,2.24 5,5 z" />
        </g>
        <g
           id="g3780">
          <path
             style="fill:#d3a06c"
             inkscape:connector-curvature="0"
             id="path3778"
             d="m 18.86,32.86 5.57,14.57 0.01,0.01 10.94,10.94 2.49,-6.51 z" />
        </g>
        <g
           id="g3784">
          <path
             style="fill:#d3a06c"
             inkscape:connector-curvature="0"
             id="path3782"
             d="M 41,37 36.5,32.5 39,30 H 25 l 15.36,15.36 4.78,-12.5 z" />
        </g>
        <g
           id="g3788">
          <path
             style="fill:#cf9e76"
             inkscape:connector-curvature="0"
             id="path3786"
             d="m 46,30 c 0.08,0 0.16,0 0.24,-0.01 L 45.14,32.86 41,37 36.5,32.5 39,30 Z" />
        </g>
        <g
           id="g3792">
          <path
             style="fill:#cf9e76"
             inkscape:connector-curvature="0"
             id="path3790"
             d="m 27.5,50.5 -1.37,1.37 3.16,8.26 C 29.72,61.26 30.8,62 32,62 c 1.2,0 2.28,-0.74 2.71,-1.87 l 0.67,-1.75 z" />
        </g>
        <g
           id="g3796">
          <path
             style="fill:#cf9e76"
             inkscape:connector-curvature="0"
             id="path3794"
             d="m 25,30 h -7 c -0.08,0 -0.16,0 -0.24,-0.01 l 1.1,2.87 17.64,17.64 3.06,-3.06 0.01,-0.01 0.79,-2.07 z" />
        </g>
      </g>
      <path
         inkscape:connector-curvature="0"
         id="path3800"
         d="M 52,25 C 52,22.801 50.823,20.838 48.942,19.786 48.976,19.528 49,19.267 49,19 49,16.801 47.823,14.838 45.942,13.786 45.976,13.528 46,13.267 46,13 46,9.691 43.309,7 40,7 H 38 C 38,3.691 35.309,1 32,1 29.055,1 26.605,3.134 26.1,5.935 22.059,5.392 18.815,1.417 18.78,1.374 l -1.562,1.25 C 17.347,2.785 19.642,5.601 22.995,7.09 20.165,7.571 18,10.034 18,13 c 0,0.267 0.024,0.528 0.058,0.786 C 16.177,14.838 15,16.801 15,19 c 0,0.267 0.024,0.528 0.058,0.786 C 13.177,20.838 12,22.801 12,25 c 0,2.983 2.19,5.457 5.045,5.917 L 28.352,60.489 C 28.926,61.991 30.392,63 32,63 c 1.608,0 3.074,-1.009 3.647,-2.511 L 46.955,30.917 C 49.81,30.457 52,27.983 52,25 Z M 32,3 c 2.206,0 4,1.794 4,4 0,2.206 -1.794,4 -4,4 -2.206,0 -4,-1.794 -4,-4 0,-2.206 1.794,-4 4,-4 z M 30.586,37 27.5,40.086 24.414,37 27.5,33.914 Z M 36.5,33.914 39.586,37 36.5,40.086 33.414,37 Z M 35.086,41.5 32,44.586 28.914,41.5 32,38.414 Z m -9,0 -2.065,2.065 -2.557,-6.687 z M 27.5,42.914 30.586,46 27.5,49.086 25.286,46.872 24.804,45.611 Z m 0,9 L 30.586,55 29,56.586 27.293,52.122 Z M 28.914,50.5 32,47.414 35.086,50.5 32,53.586 Z M 36.5,51.914 36.707,52.121 35,56.585 33.414,55 Z M 38.713,46.873 36.5,49.086 33.414,46 36.5,42.914 39.196,45.61 Z M 37.914,41.5 42.535,36.878 39.978,43.564 Z M 44.287,32.299 41,35.586 37.914,32.5 39.414,31 h 5.369 z M 32,35.586 27.414,31 h 9.172 z M 24.586,31 26.086,32.5 23,35.586 19.713,32.299 19.217,31 Z M 32,61 c -0.784,0 -1.5,-0.492 -1.78,-1.225 L 29.783,58.632 32,56.414 l 2.217,2.217 -0.438,1.144 C 33.5,60.508 32.784,61 32,61 Z M 46,29 H 18 c -2.206,0 -4,-1.794 -4,-4 0,-1.316 0.64,-2.499 1.68,-3.236 C 16.682,23.684 18.688,25 21,25 H 41 V 23 H 21 c -2.206,0 -4,-1.794 -4,-4 0,-1.316 0.64,-2.499 1.68,-3.236 C 19.682,17.684 21.688,19 24,19 v -2 c -2.206,0 -4,-1.794 -4,-4 0,-2.206 1.794,-4 4,-4 h 2.35 c 0.826,2.327 3.043,4 5.65,4 2.607,0 4.824,-1.673 5.65,-4 H 40 c 2.206,0 4,1.794 4,4 0,2.206 -1.794,4 -4,4 H 26 v 2 h 14 c 2.312,0 4.318,-1.316 5.32,-3.236 1.04,0.737 1.68,1.92 1.68,3.236 0,2.206 -1.794,4 -4,4 v 2 c 2.312,0 4.318,-1.316 5.32,-3.236 1.04,0.737 1.68,1.92 1.68,3.236 0,2.206 -1.794,4 -4,4 z" />
    </g>
    <path
       inkscape:connector-curvature="0"
       id="path4079"
       d="m 1.6386718,46.471089 v 15.121738 l 1.7606984,0.0095 V 53.49728 c 0.4807808,-0.379656 0.9833452,-0.691337 1.5078334,-0.934701 0.5244883,-0.243363 1.0270526,-0.363727 1.5078336,-0.361128 0.468293,0.0025 0.8492299,0.07276 1.1426934,0.210404 0.2934638,0.131162 0.5182904,0.333259 0.6743886,0.606214 0.1498538,0.247008 0.252808,0.590742 0.3090024,1.031614 0.056196,0.434389 0.084452,0.90101 0.084452,1.399883 v 6.181007 l 1.7606994,0.0095 v -7.045826 c 0,-1.32817 -0.296657,-2.346929 -0.8898296,-3.056329 -0.5931705,-0.709381 -1.4546393,-1.067056 -2.584787,-1.073184 -0.6181467,-0.0033 -1.2207986,0.126208 -1.8077259,0.388672 -0.5869272,0.26246 -1.1550971,0.628696 -1.7045609,1.098686 V 46.48059 Z m 23.5831652,0.127519 v 15.121481 l 1.760699,0.0097 V 46.608043 Z m 23.527027,0.127006 v 4.703595 c -0.468294,-0.255207 -0.914835,-0.442162 -1.339421,-0.561077 -0.424585,-0.125367 -0.911587,-0.189556 -1.46105,-0.19255 -0.60566,-0.0032 -1.192504,0.123152 -1.7607,0.379236 -0.561951,0.256118 -1.055178,0.629245 -1.479765,1.119344 -0.430829,0.503023 -0.774418,1.113372 -1.030418,1.831145 -0.249756,0.717804 -0.374496,1.536744 -0.374496,2.456743 0,1.768733 0.365128,3.153832 1.095665,4.155526 0.736782,1.00172 1.729708,1.506109 2.978489,1.512863 0.643122,0.0035 1.239303,-0.119836 1.788767,-0.369544 0.549465,-0.249706 1.077172,-0.599954 1.582929,-1.050741 v 1.137197 l 1.760699,0.0095 V 46.73505 Z m -30.62645,3.799498 c -1.523513,-0.0082 -2.75347,0.506704 -3.690057,1.544742 -0.930342,1.03807 -1.395557,2.444838 -1.395557,4.220048 0,1.794649 0.487003,3.183687 1.461051,4.167258 0.97405,0.977092 2.328993,1.470327 4.064799,1.479709 0.680587,0.0037 1.329924,-0.08038 1.948069,-0.251974 0.618148,-0.17159 1.223912,-0.385206 1.817082,-0.641156 v -1.992327 l -0.09381,-5.09e-4 c -0.305949,0.283417 -0.820965,0.572236 -1.545258,0.86635 -0.718051,0.287653 -1.432992,0.429482 -2.144797,0.425652 -0.536976,-0.0029 -1.030203,-0.08335 -1.479765,-0.241263 -0.443314,-0.157888 -0.827363,-0.393194 -1.152047,-0.705934 -0.337171,-0.319286 -0.602458,-0.725622 -0.796021,-1.219064 -0.193559,-0.499917 -0.290289,-1.083485 -0.290289,-1.750808 l 7.708072,0.04157 V 55.47634 c 0,-1.574366 -0.38405,-2.791454 -1.15205,-3.650815 -0.761757,-0.859325 -1.848298,-1.292792 -3.259421,-1.300418 z m 15.940833,0.124967 c -0.630635,-0.0034 -1.270635,0.05164 -1.920002,0.164752 -0.649366,0.11311 -1.145953,0.217343 -1.489366,0.312671 v 1.856138 l 0.09381,5.11e-4 c 0.605658,-0.236444 1.192502,-0.414777 1.760699,-0.534807 0.568195,-0.126517 1.083455,-0.188426 1.545505,-0.185919 0.380878,0.0021 0.746007,0.02993 1.095666,0.08365 0.349659,0.05372 0.649428,0.155678 0.899184,0.306041 0.262244,0.15691 0.461927,0.371871 0.599293,0.644727 0.143609,0.272888 0.215439,0.61671 0.215439,1.031358 v 0.281812 c -1.024001,0.0463 -1.982445,0.118708 -2.875322,0.217544 -0.892881,0.09884 -1.65762,0.292351 -2.294498,0.580458 -0.630634,0.288141 -1.117636,0.687154 -1.461052,1.19713 -0.33717,0.50353 -0.50573,1.166706 -0.50573,1.989521 0,1.004225 0.32778,1.832093 0.98339,2.483523 0.655611,0.65144 1.454833,0.979857 2.397663,0.984942 0.512001,0.0027 0.958298,-0.04682 1.339175,-0.148431 0.380878,-0.09512 0.717996,-0.216252 1.01146,-0.363679 0.249756,-0.115269 0.505953,-0.269427 0.768198,-0.462376 0.268489,-0.199396 0.48062,-0.353845 0.636716,-0.463142 v 1.156579 l 1.751588,0.0095 v -7.366405 c 0,-0.699718 -0.103198,-1.286686 -0.309247,-1.760756 C 38.099768,52.19133 37.800245,51.804129 37.406878,51.503976 37.007268,51.19731 36.532715,50.980981 35.983251,50.854914 35.440031,50.72239 34.80003,50.654092 34.06325,50.650122 Z m 24.004689,0.09105 c -1.479805,-0.008 -2.656853,0.500708 -3.531,1.526124 -0.867903,1.018972 -1.301749,2.41281 -1.301749,4.18154 0,1.768732 0.433846,3.167215 1.301749,4.195566 0.874147,1.028387 2.051195,1.546693 3.531,1.554688 1.467319,0.0079 2.637894,-0.497749 3.51204,-1.516687 0.874146,-1.01894 1.311352,-2.412808 1.311352,-4.18154 0,-1.768731 -0.437206,-3.167183 -1.311352,-4.195566 -0.874146,-1.034868 -2.044721,-1.556199 -3.51204,-1.564125 z M 18.028851,52.03109 c 0.936586,0.0051 1.632855,0.271262 2.08866,0.798511 0.46204,0.527286 0.695958,1.270348 0.702211,2.229254 l -5.993909,-0.03239 c 0.07492,-0.854806 0.390012,-1.569178 0.94572,-2.142796 0.561951,-0.573571 1.314488,-0.857662 2.257318,-0.852579 z m 40.039085,0.284363 c 0.94283,0.0051 1.679558,0.352441 2.21029,1.042069 0.530732,0.68315 0.796019,1.727691 0.796019,3.133604 0,1.373521 -0.268399,2.408735 -0.805375,3.105551 -0.530734,0.690395 -1.264348,1.032871 -2.200934,1.027788 -0.949074,-0.0051 -1.689162,-0.358867 -2.219894,-1.061453 -0.530733,-0.709064 -0.79602,-1.743967 -0.79602,-3.10453 0,-1.405912 0.262176,-2.447484 0.786663,-3.124933 0.530734,-0.683884 1.273934,-1.023249 2.229251,-1.018096 z m -11.819898,0.03316 c 0.443317,0.0024 0.852511,0.04687 1.227145,0.133127 0.374635,0.08625 0.799145,0.240807 1.273681,0.463652 v 6.229464 c -0.443316,0.36042 -0.920983,0.655771 -1.432983,0.886243 -0.512001,0.22401 -1.017676,0.334771 -1.517189,0.332054 -0.936586,-0.0051 -1.617293,-0.342613 -2.041879,-1.012229 -0.424586,-0.676097 -0.636963,-1.658644 -0.636963,-2.94794 0,-1.308732 0.27487,-2.318058 0.824335,-3.027765 0.549463,-0.709738 1.317316,-1.061969 2.303853,-1.056606 z m -9.384565,3.739564 v 3.02241 c -0.437073,0.347497 -0.911627,0.646281 -1.423627,0.89619 -0.512,0.243433 -1.077058,0.363451 -1.695204,0.360107 -0.743027,-0.004 -1.295634,-0.162695 -1.65778,-0.475638 -0.362147,-0.319421 -0.543155,-0.789897 -0.543155,-1.411869 0,-0.550704 0.156109,-0.980918 0.468306,-1.290218 0.312194,-0.315776 0.721141,-0.546645 1.226899,-0.692927 0.424585,-0.120806 0.99898,-0.211758 1.723274,-0.272631 0.730535,-0.06084 1.364312,-0.10593 1.901287,-0.135424 z"
       style="font-style:normal;font-weight:normal;font-size:96px;line-height:1.25;font-family:sans-serif;letter-spacing:0px;word-spacing:0px;fill:#000000;fill-opacity:1;stroke:none;stroke-width:0.2035297" />
  </g>
</svg>
