<svg id="Layer_5" enable-background="new 0 0 64 64" height="512" viewBox="0 0 64 64" width="512" xmlns="http://www.w3.org/2000/svg"><g><g><g><path d="m39 30h-14-7c-.08 0-.16 0-.24-.01-2.65-.12-4.76-2.31-4.76-4.99 0-2.12 1.32-3.92 3.19-4.64.59 2.1 2.52 3.64 4.81 3.64h20 2c2.29 0 4.22-1.54 4.81-3.64 1.87.72 3.19 2.52 3.19 4.64 0 2.68-2.11 4.87-4.76 4.99-.08.01-.16.01-.24.01z" fill="#fcd770"/></g><g><path d="m16.19 20.36c-.12-.43-.19-.89-.19-1.36 0-2.12 1.32-3.92 3.19-4.64.59 2.1 2.52 3.64 4.81 3.64h2 14c2.29 0 4.22-1.54 4.81-3.64 1.87.72 3.19 2.52 3.19 4.64 0 .47-.07.93-.19 1.36-.59 2.1-2.52 3.64-4.81 3.64h-2-20c-2.29 0-4.22-1.54-4.81-3.64z" fill="#ffeaa7"/></g><g><path d="m19.19 14.36c-.12-.43-.19-.89-.19-1.36 0-2.76 2.24-5 5-5h3.1c.46 2.28 2.48 4 4.9 4s4.44-1.72 4.9-4h3.1c2.76 0 5 2.24 5 5 0 .47-.07.93-.19 1.36-.59 2.1-2.52 3.64-4.81 3.64h-14-2c-2.29 0-4.22-1.54-4.81-3.64z" fill="#ffeaa7"/></g><g><path d="m37 7c0 .34-.03.68-.1 1-.46 2.28-2.48 4-4.9 4s-4.44-1.72-4.9-4c-.07-.32-.1-.66-.1-1 0-2.76 2.24-5 5-5s5 2.24 5 5z" fill="#ef7385"/></g><g><path d="m18.86 32.86 5.57 14.57.01.01 10.94 10.94 2.49-6.51z" fill="#d3a06c"/></g><g><path d="m41 37-4.5-4.5 2.5-2.5h-14l15.36 15.36 4.78-12.5z" fill="#d3a06c"/></g><g><path d="m46 30c.08 0 .16 0 .24-.01l-1.1 2.87-4.14 4.14-4.5-4.5 2.5-2.5z" fill="#cf9e76"/></g><g><path d="m27.5 50.5-1.37 1.37 3.16 8.26c.43 1.13 1.51 1.87 2.71 1.87s2.28-.74 2.71-1.87l.67-1.75z" fill="#cf9e76"/></g><g><path d="m25 30h-7c-.08 0-.16 0-.24-.01l1.1 2.87 17.64 17.64 3.06-3.06.01-.01.79-2.07z" fill="#cf9e76"/></g></g><path d="m52 25c0-2.199-1.177-4.162-3.058-5.214.034-.258.058-.519.058-.786 0-2.199-1.177-4.162-3.058-5.214.034-.258.058-.519.058-.786 0-3.309-2.691-6-6-6h-2c0-3.309-2.691-6-6-6-2.945 0-5.395 2.134-5.9 4.935-4.041-.543-7.285-4.518-7.32-4.561l-1.562 1.25c.129.161 2.424 2.977 5.777 4.466-2.83.481-4.995 2.944-4.995 5.91 0 .267.024.528.058.786-1.881 1.052-3.058 3.015-3.058 5.214 0 .267.024.528.058.786-1.881 1.052-3.058 3.015-3.058 5.214 0 2.983 2.19 5.457 5.045 5.917l11.307 29.572c.574 1.502 2.04 2.511 3.648 2.511s3.074-1.009 3.647-2.511l11.308-29.572c2.855-.46 5.045-2.934 5.045-5.917zm-20-22c2.206 0 4 1.794 4 4s-1.794 4-4 4-4-1.794-4-4 1.794-4 4-4zm-1.414 34-3.086 3.086-3.086-3.086 3.086-3.086zm5.914-3.086 3.086 3.086-3.086 3.086-3.086-3.086zm-1.414 7.586-3.086 3.086-3.086-3.086 3.086-3.086zm-9 0-2.065 2.065-2.557-6.687zm1.414 1.414 3.086 3.086-3.086 3.086-2.214-2.214-.482-1.261zm0 9 3.086 3.086-1.586 1.586-1.707-4.464zm1.414-1.414 3.086-3.086 3.086 3.086-3.086 3.086zm7.586 1.414.207.207-1.707 4.464-1.586-1.585zm2.213-5.041-2.213 2.213-3.086-3.086 3.086-3.086 2.696 2.696zm-.799-5.373 4.621-4.622-2.557 6.686zm6.373-9.201-3.287 3.287-3.086-3.086 1.5-1.5h5.369zm-12.287 3.287-4.586-4.586h9.172zm-7.414-4.586 1.5 1.5-3.086 3.086-3.287-3.287-.496-1.299zm7.414 30c-.784 0-1.5-.492-1.78-1.225l-.437-1.143 2.217-2.218 2.217 2.217-.438 1.144c-.279.733-.995 1.225-1.779 1.225zm14-32h-28c-2.206 0-4-1.794-4-4 0-1.316.64-2.499 1.68-3.236 1.002 1.92 3.008 3.236 5.32 3.236h20v-2h-20c-2.206 0-4-1.794-4-4 0-1.316.64-2.499 1.68-3.236 1.002 1.92 3.008 3.236 5.32 3.236v-2c-2.206 0-4-1.794-4-4s1.794-4 4-4h2.35c.826 2.327 3.043 4 5.65 4s4.824-1.673 5.65-4h2.35c2.206 0 4 1.794 4 4s-1.794 4-4 4h-14v2h14c2.312 0 4.318-1.316 5.32-3.236 1.04.737 1.68 1.92 1.68 3.236 0 2.206-1.794 4-4 4v2c2.312 0 4.318-1.316 5.32-3.236 1.04.737 1.68 1.92 1.68 3.236 0 2.206-1.794 4-4 4z"/></g></svg>