<?xml version="1.0" encoding="UTF-8" standalone="no"?>
<svg
   xmlns:dc="http://purl.org/dc/elements/1.1/"
   xmlns:cc="http://creativecommons.org/ns#"
   xmlns:rdf="http://www.w3.org/1999/02/22-rdf-syntax-ns#"
   xmlns:svg="http://www.w3.org/2000/svg"
   xmlns="http://www.w3.org/2000/svg"
   xmlns:sodipodi="http://sodipodi.sourceforge.net/DTD/sodipodi-0.dtd"
   xmlns:inkscape="http://www.inkscape.org/namespaces/inkscape"
   id="Layer_5"
   enable-background="new 0 0 64 64"
   height="512"
   viewBox="0 0 64 64"
   width="512"
   version="1.1"
   sodipodi:docname="lotion.svg"
   inkscape:version="0.92.4 (5da689c313, 2019-01-14)">
  <metadata
     id="metadata4998">
    <rdf:RDF>
      <cc:Work
         rdf:about="">
        <dc:format>image/svg+xml</dc:format>
        <dc:type
           rdf:resource="http://purl.org/dc/dcmitype/StillImage" />
      </cc:Work>
    </rdf:RDF>
  </metadata>
  <defs
     id="defs4996" />
  <sodipodi:namedview
     pagecolor="#ffffff"
     bordercolor="#666666"
     borderopacity="1"
     objecttolerance="10"
     gridtolerance="10"
     guidetolerance="10"
     inkscape:pageopacity="0"
     inkscape:pageshadow="2"
     inkscape:window-width="1920"
     inkscape:window-height="1001"
     id="namedview4994"
     showgrid="false"
     showguides="false"
     inkscape:zoom="1.1159029"
     inkscape:cx="44.630866"
     inkscape:cy="275.2716"
     inkscape:window-x="2391"
     inkscape:window-y="-9"
     inkscape:window-maximized="1"
     inkscape:current-layer="Layer_5">
    <inkscape:grid
       type="xygrid"
       id="grid5122" />
  </sodipodi:namedview>
  <g
     id="g4991"
     transform="matrix(0.55030342,0,0,0.55030342,13.702267,0.31050017)">
    <g
       id="g4961">
      <g
         id="g4939">
        <path
           d="m 39,16 v 0.03 C 38.8,16.01 38.6,16 38.4,16 H 25.6 c -0.2,0 -0.4,0.01 -0.6,0.03 V 16 6 h 4 v 3 c 0,0.83 0.34,1.58 0.88,2.12 0.54,0.54 1.29,0.88 2.12,0.88 1.66,0 3,-1.34 3,-3 V 6 h 4 z"
           id="path4937"
           inkscape:connector-curvature="0"
           style="fill:#b4dd7f" />
      </g>
      <g
         id="g4943">
        <path
           d="m 25,6 c 0,-2.21 1.79,-4 4,-4 h 6 c 2.21,0 4,1.79 4,4 h -4 -6 z"
           id="path4941"
           inkscape:connector-curvature="0"
           style="fill:#a0d468" />
      </g>
      <g
         id="g4947">
        <path
           d="m 35,6 v 3 c 0,1.66 -1.34,3 -3,3 -0.83,0 -1.58,-0.34 -2.12,-0.88 C 29.34,10.58 29,9.83 29,9 V 6 Z"
           id="path4945"
           inkscape:connector-curvature="0"
           style="fill:#e6e9ed" />
      </g>
      <g
         id="g4951">
        <path
           d="M 45.96,24.4 42.72,55.19 C 42.31,59.06 39.05,62 35.16,62 h -6.32 c -3.89,0 -7.15,-2.94 -7.56,-6.81 L 18.04,24.4 C 18.01,24.13 18,23.87 18,23.6 c 0,-4 3.08,-7.27 7,-7.57 C 25.2,16.01 25.4,16 25.6,16 h 12.8 c 0.2,0 0.4,0.01 0.6,0.03 1.86,0.14 3.53,0.95 4.78,2.19 1.37,1.38 2.22,3.28 2.22,5.38 0,0.27 -0.01,0.53 -0.04,0.8 z"
           id="path4949"
           inkscape:connector-curvature="0"
           style="fill:#e6e9ed" />
      </g>
      <g
         id="g4955">
        <path
           d="m 38,45 v 10 c 0,0.55 -0.45,1 -1,1 H 27 c -0.55,0 -1,-0.45 -1,-1 V 45 c 0,-0.55 0.45,-1 1,-1 h 10 c 0.55,0 1,0.45 1,1 z"
           id="path4953"
           inkscape:connector-curvature="0"
           style="fill:#ef7385" />
      </g>
      <g
         id="g4959">
        <circle
           cx="32"
           cy="30"
           r="4"
           id="circle4957"
           style="fill:#fcd770" />
      </g>
    </g>
    <g
       id="g4989">
      <path
         d="M 40,15.155 V 6 C 40,3.243 37.757,1 35,1 h -6 c -2.757,0 -5,2.243 -5,5 v 9.155 c -3.979,0.753 -7,4.251 -7,8.445 0,0.303 0.016,0.604 0.048,0.9 l 3.241,30.798 C 20.751,59.689 24.429,63 28.843,63 h 6.314 c 4.414,0 8.092,-3.311 8.554,-7.701 L 46.952,24.503 C 46.984,24.204 47,23.903 47,23.601 47,19.406 43.979,15.908 40,15.155 Z M 29,3 h 6 c 1.302,0 2.402,0.839 2.816,2 H 26.184 C 26.598,3.839 27.698,3 29,3 Z m 5,4 v 2 c 0,1.103 -0.897,2 -2,2 -1.103,0 -2,-0.897 -2,-2 V 7 Z m -8,0 h 2 v 2 c 0,2.206 1.794,4 4,4 2.206,0 4,-1.794 4,-4 V 7 h 2 v 8 H 26 Z M 44.964,24.292 41.723,55.09 C 41.367,58.459 38.545,61 35.157,61 h -6.314 c -3.388,0 -6.21,-2.541 -6.565,-5.91 L 19.037,24.29 C 19.012,24.062 19,23.831 19,23.601 19,19.961 21.961,17 25.601,17 H 38.4 c 3.639,0 6.6,2.961 6.6,6.601 0,0.23 -0.012,0.461 -0.036,0.691 z"
         id="path4963"
         inkscape:connector-curvature="0" />
      <path
         d="m 32,35 c 2.757,0 5,-2.243 5,-5 0,-2.757 -2.243,-5 -5,-5 -2.757,0 -5,2.243 -5,5 0,2.757 2.243,5 5,5 z m 0,-8 c 1.654,0 3,1.346 3,3 0,1.654 -1.346,3 -3,3 -1.654,0 -3,-1.346 -3,-3 0,-1.654 1.346,-3 3,-3 z"
         id="path4965"
         inkscape:connector-curvature="0" />
      <path
         d="m 31,19 h 2 v 4 h -2 z"
         id="path4967"
         inkscape:connector-curvature="0" />
      <path
         d="m 24.636,21.636 h 2 v 4 h -2 z"
         transform="matrix(0.707,-0.707,0.707,0.707,-9.205,25.05)"
         id="path4969"
         inkscape:connector-curvature="0" />
      <path
         d="m 21,29 h 4 v 2 h -4 z"
         id="path4971"
         inkscape:connector-curvature="0" />
      <path
         d="m 23.636,35.364 h 4 v 2 h -4 z"
         transform="matrix(0.707,-0.707,0.707,0.707,-18.205,28.778)"
         id="path4973"
         inkscape:connector-curvature="0" />
      <path
         d="m 31,37 h 2 v 4 h -2 z"
         id="path4975"
         inkscape:connector-curvature="0" />
      <path
         d="m 37.364,34.364 h 2 v 4 h -2 z"
         transform="matrix(0.707,-0.707,0.707,0.707,-14.477,37.779)"
         id="path4977"
         inkscape:connector-curvature="0" />
      <path
         d="m 39,29 h 4 v 2 h -4 z"
         id="path4979"
         inkscape:connector-curvature="0" />
      <path
         d="m 36.364,22.636 h 4 v 2 h -4 z"
         transform="matrix(0.707,-0.707,0.707,0.707,-5.476,34.05)"
         id="path4981"
         inkscape:connector-curvature="0" />
      <path
         d="M 37,43 H 27 c -1.103,0 -2,0.897 -2,2 v 10 c 0,1.103 0.897,2 2,2 h 10 c 1.103,0 2,-0.897 2,-2 V 45 c 0,-1.103 -0.897,-2 -2,-2 z M 27,55 V 45 h 10 l 0.002,10 z"
         id="path4983"
         inkscape:connector-curvature="0" />
      <path
         d="m 29,47 h 6 v 2 h -6 z"
         id="path4985"
         inkscape:connector-curvature="0" />
      <path
         d="m 29,51 h 6 v 2 h -6 z"
         id="path4987"
         inkscape:connector-curvature="0" />
    </g>
  </g>
  <path
     style="font-style:normal;font-weight:normal;font-size:40px;line-height:1.25;font-family:sans-serif;letter-spacing:0px;word-spacing:0px;fill:#000000;fill-opacity:1;stroke:none;stroke-width:0.29897821"
     d="m 29.169817,41.128287 c -0.94988,0 -1.716839,0.313421 -2.300782,0.940186 -0.580048,0.626764 -0.870116,1.473373 -0.870116,2.540039 0,1.078346 0.303833,1.911432 0.911133,2.499267 0.6073,0.583942 1.451941,0.875977 2.53418,0.875977 0.424331,0 0.829198,-0.0526 1.214598,-0.157715 0.385403,-0.105109 0.762983,-0.235395 1.132813,-0.391113 v -1.197022 h -0.05835 c -0.190755,0.17129 -0.511799,0.346317 -0.96338,0.525391 -0.44769,0.175184 -0.893606,0.262695 -1.337401,0.262695 -0.334795,0 -0.642316,-0.04671 -0.922608,-0.140136 -0.2764,-0.09343 -0.51583,-0.233549 -0.718262,-0.42041 -0.210219,-0.190755 -0.375656,-0.433873 -0.496338,-0.729737 -0.120681,-0.299756 -0.180908,-0.650296 -0.180908,-1.05127 h 4.805908 v -0.595458 c 0,-0.945987 -0.23943,-1.676072 -0.718261,-2.189942 -0.474939,-0.513867 -1.152421,-0.770752 -2.032227,-0.770752 z m 7.626221,0 c -0.385403,0 -0.749218,0.07989 -1.091798,0.239502 -0.338683,0.15961 -0.679392,0.381343 -1.021972,0.665527 v -0.723877 h -1.0979 v 6.522462 h 1.0979 v -4.870118 c 0.299756,-0.229682 0.599412,-0.418474 0.89917,-0.566406 0.303651,-0.147933 0.605519,-0.221924 0.905274,-0.221924 0.315328,0 0.556722,0.04302 0.724121,0.128663 0.167395,0.08175 0.295716,0.206138 0.385254,0.373535 0.08175,0.155717 0.134355,0.364172 0.157715,0.625 0.02725,0.256935 0.04077,0.529305 0.04077,0.817382 v 3.713868 h 1.0979 v -4.175049 c 0,-0.116789 -0.0039,-0.233554 -0.01172,-0.350343 -0.0078,-0.12068 -0.01737,-0.225891 -0.02905,-0.31543 0.307542,-0.23747 0.615066,-0.432158 0.922607,-0.583983 0.307543,-0.155718 0.615064,-0.233643 0.922608,-0.233643 0.315327,0 0.556722,0.04302 0.724121,0.128663 0.167396,0.08564 0.295716,0.211997 0.385254,0.379393 0.08176,0.155719 0.134361,0.364174 0.157715,0.625 0.02725,0.260829 0.04077,0.531232 0.04077,0.811524 v 3.713868 h 1.0979 v -4.233643 c 0,-0.77859 -0.171336,-1.383801 -0.513915,-1.815919 -0.338686,-0.436008 -0.866218,-0.654052 -1.58252,-0.654052 -0.416546,0 -0.807649,0.08382 -1.173584,0.251221 -0.365937,0.163503 -0.770805,0.431941 -1.2146,0.805664 -0.151825,-0.330899 -0.383389,-0.58975 -0.694824,-0.776611 -0.307543,-0.186862 -0.683402,-0.280274 -1.127196,-0.280274 z m 10.651122,0.02344 c -0.393188,0 -0.792155,0.03491 -1.197021,0.10498 -0.404866,0.07007 -0.714355,0.134479 -0.928466,0.192872 v 1.115235 h 0.05835 c 0.377618,-0.14404 0.743643,-0.252939 1.097901,-0.326905 0.354257,-0.07786 0.675299,-0.116943 0.963379,-0.116943 0.237467,0 0.465343,0.01549 0.683348,0.04663 0.218005,0.03115 0.40483,0.09162 0.560548,0.181153 0.163504,0.09343 0.288134,0.221996 0.373779,0.385498 0.08954,0.163503 0.134277,0.369748 0.134277,0.618897 v 0.169433 c -0.638441,0.03114 -1.236032,0.07785 -1.792724,0.140137 -0.556691,0.06229 -1.033583,0.181017 -1.430665,0.356201 -0.393188,0.175181 -0.696778,0.416334 -0.910888,0.723877 -0.210219,0.30365 -0.315429,0.702862 -0.315429,1.197265 0,0.603407 0.204277,1.099719 0.613036,1.489014 0.40876,0.389294 0.907283,0.583985 1.495118,0.583985 0.319221,0 0.597491,-0.03122 0.834961,-0.09351 0.237469,-0.0584 0.447646,-0.132386 0.630615,-0.221924 0.155717,-0.07007 0.315255,-0.163484 0.47876,-0.280274 0.167396,-0.120681 0.299894,-0.214093 0.397216,-0.280273 V 47.8319 h 1.091798 v -4.42627 c 0,-0.420439 -0.06416,-0.7727 -0.192628,-1.056885 -0.128466,-0.284185 -0.31529,-0.515748 -0.560546,-0.694824 -0.249149,-0.182969 -0.545118,-0.311534 -0.887695,-0.385499 -0.338688,-0.07786 -0.737656,-0.116699 -1.197023,-0.116699 z m -29.605712,0.0059 c -0.961558,0 -1.736384,0.303588 -2.324219,0.910889 -0.583941,0.607298 -0.875976,1.444318 -0.875976,2.510986 0,0.572263 0.07792,1.072508 0.233642,1.500732 0.155718,0.428225 0.375728,0.782452 0.659913,1.062745 0.280292,0.280291 0.617066,0.49047 1.010254,0.630615 0.393186,0.136252 0.82534,0.204346 1.296386,0.204346 0.36983,0 0.718159,-0.04867 1.045166,-0.145996 0.3309,-0.09732 0.679229,-0.23351 1.045166,-0.408692 v -1.208741 h -0.05835 c -0.08175,0.06618 -0.192617,0.146071 -0.332763,0.239503 -0.140147,0.08954 -0.290097,0.175085 -0.449708,0.256836 -0.182967,0.09343 -0.389212,0.16939 -0.618896,0.227782 -0.229684,0.05839 -0.455593,0.0874 -0.67749,0.0874 -0.638443,0 -1.134756,-0.210179 -1.489014,-0.630615 -0.350365,-0.424333 -0.525635,-1.029544 -0.525635,-1.815918 0,-0.809733 0.179203,-1.423053 0.537354,-1.8396 0.362044,-0.420437 0.854424,-0.630615 1.477295,-0.630615 0.338686,0 0.685292,0.07006 1.039551,0.210205 0.35815,0.140148 0.704513,0.340735 1.039306,0.601563 h 0.05835 v -1.220459 c -0.299757,-0.151826 -0.630632,-0.28039 -0.992676,-0.385499 -0.358151,-0.10511 -0.723934,-0.15747 -1.097656,-0.15747 z m 3.503662,0.151855 v 6.522462 h 1.097657 v -4.630615 c 0.291971,-0.237469 0.59556,-0.430194 0.910888,-0.578125 0.315329,-0.151827 0.642515,-0.227784 0.981202,-0.227784 0.210217,0 0.391142,0.0098 0.542968,0.0293 0.155718,0.01557 0.315257,0.04286 0.478759,0.08179 h 0.05859 v -1.126953 c -0.171289,-0.02724 -0.299853,-0.04494 -0.385498,-0.05273 -0.08564,-0.01168 -0.223796,-0.01733 -0.414551,-0.01733 -0.346471,0 -0.687179,0.07375 -1.021972,0.22168 -0.3309,0.144039 -0.71438,0.391334 -1.15039,0.741699 v -0.963379 z m 7.766358,0.723877 c 0.583941,0 1.018061,0.157816 1.302245,0.473145 0.288106,0.315328 0.434122,0.761001 0.437989,1.337158 h -3.737305 c 0.04672,-0.51387 0.243372,-0.944056 0.589843,-1.290527 0.350367,-0.346473 0.819393,-0.519776 1.407228,-0.519776 z m 20.081786,2.37671 v 1.816161 c -0.272506,0.21022 -0.568474,0.391145 -0.887695,0.542969 -0.319221,0.147931 -0.671482,0.221923 -1.056885,0.221923 -0.463259,0 -0.807899,-0.09341 -1.033691,-0.280272 -0.22579,-0.190755 -0.338623,-0.472958 -0.338623,-0.84668 0,-0.3309 0.09735,-0.58975 0.291992,-0.776611 0.194648,-0.190757 0.449565,-0.330874 0.764893,-0.42041 0.264719,-0.07397 0.62288,-0.130508 1.074463,-0.169434 0.455472,-0.03892 0.850752,-0.06817 1.185546,-0.08765 z"
     id="path5073"
     inkscape:connector-curvature="0" />
  <path
     style="font-style:normal;font-weight:normal;font-size:40px;line-height:1.25;font-family:sans-serif;letter-spacing:0px;word-spacing:0px;fill:#000000;fill-opacity:1;stroke:none;stroke-width:0.29618528"
     d="m 22.36049,51.540641 v 1.856933 h -0.734618 v 0.914063 h 0.734618 v 3.436035 c 0,0.782886 0.171658,1.351739 0.514893,1.706542 0.343236,0.354807 0.844675,0.532227 1.504151,0.532227 0.188973,10e-7 0.402981,-0.01729 0.64209,-0.052 0.242964,-0.03471 0.466501,-0.07906 0.670898,-0.133056 v -0.97754 h -0.05786 c -0.08485,0.03471 -0.223675,0.07906 -0.416503,0.133058 -0.192829,0.05013 -0.377773,0.0752 -0.555175,0.0752 -0.30467,0 -0.53221,-0.03483 -0.682618,-0.104248 -0.14655,-0.07327 -0.262325,-0.187046 -0.347169,-0.341309 -0.09257,-0.165835 -0.146445,-0.343255 -0.161865,-0.532227 -0.01542,-0.192828 -0.02319,-0.45896 -0.02319,-0.798339 v -2.944336 h 2.244384 v -0.914063 h -2.244384 v -1.856933 z m 17.909913,0 v 1.856933 h -0.734619 v 0.914063 h 0.734619 v 3.436035 c 0,0.782886 0.171657,1.351739 0.514892,1.706542 0.343235,0.354807 0.844675,0.532227 1.50415,0.532227 0.188974,10e-7 0.402983,-0.01729 0.64209,-0.052 0.242965,-0.03471 0.466747,-0.07906 0.671143,-0.133056 v -0.97754 h -0.05786 c -0.08485,0.03471 -0.223675,0.07906 -0.416504,0.133058 -0.192829,0.05013 -0.378018,0.0752 -0.55542,0.0752 -0.30467,0 -0.53221,-0.03483 -0.682618,-0.104248 -0.146548,-0.07327 -0.262323,-0.187046 -0.347167,-0.341309 -0.09256,-0.165835 -0.146445,-0.343255 -0.161865,-0.532227 -0.01542,-0.192828 -0.02319,-0.45896 -0.02319,-0.798339 v -2.944336 h 2.244629 v -0.914063 h -2.244629 v -1.856933 z m -34.3620607,1.67749 c -0.4087973,0 -0.794464,0.08295 -1.1569823,0.24878 -0.3586619,0.161975 -0.6826804,0.364456 -0.9719239,0.607421 V 53.397574 H 2.6920338 v 8.84497 h 1.0874023 v -2.707275 c 0.2815302,0.154263 0.557432,0.268034 0.8273926,0.341309 0.2738169,0.07328 0.57854,0.109863 0.9140625,0.109863 0.3856579,10e-7 0.7500263,-0.07694 1.0932618,-0.2312 0.3470922,-0.15812 0.6478096,-0.379897 0.9023437,-0.665284 0.2738171,-0.300813 0.486068,-0.667185 0.6364746,-1.099121 0.1504067,-0.435794 0.2255859,-0.915935 0.2255859,-1.44043 0,-1.045133 -0.218015,-1.860822 -0.6538086,-2.447022 C 7.2928117,53.513328 6.6873712,53.218131 5.9083423,53.218131 Z m 11.7607417,0 c -0.91401,0 -1.640987,0.306727 -2.180907,0.919922 -0.536067,0.60934 -0.8042,1.440318 -0.8042,2.493164 0,1.052846 0.268133,1.884067 0.8042,2.493407 0.53992,0.60934 1.266897,0.914063 2.180907,0.914063 0.906296,0 1.629268,-0.304723 2.16919,-0.914063 0.53992,-0.60934 0.810059,-1.440561 0.810059,-2.493407 0,-1.052846 -0.270139,-1.883824 -0.810059,-2.493164 -0.539922,-0.613195 -1.262894,-0.919922 -2.16919,-0.919922 z m 12.026611,0 c -0.941005,0 -1.700563,0.310487 -2.279052,0.931396 -0.574629,0.62091 -0.86206,1.4599 -0.86206,2.516601 0,1.068274 0.300719,1.893486 0.902344,2.475831 0.601627,0.578485 1.438612,0.867675 2.510742,0.867675 0.420365,0 0.821321,-0.05212 1.203125,-0.15625 0.3818,-0.104127 0.755939,-0.233188 1.122314,-0.387451 v -1.186035 h -0.05786 c -0.188975,0.169689 -0.506984,0.343349 -0.954347,0.520753 -0.443505,0.173546 -0.885055,0.260253 -1.324706,0.260253 -0.331664,0 -0.636389,-0.04611 -0.914062,-0.138672 -0.273818,-0.09256 -0.511127,-0.231633 -0.71167,-0.416748 -0.208255,-0.188972 -0.372147,-0.429798 -0.491699,-0.7229 -0.119555,-0.296956 -0.1792,-0.644032 -0.1792,-1.04126 h 4.760986 v -0.590088 c 0,-0.937148 -0.23731,-1.660364 -0.71167,-2.169433 -0.470502,-0.509067 -1.141597,-0.763672 -2.013184,-0.763672 z m 17.753907,0 c -0.914008,0 -1.640987,0.306727 -2.180908,0.919922 -0.536064,0.60934 -0.8042,1.440318 -0.804199,2.493164 0,1.052846 0.268135,1.884067 0.804199,2.493407 0.539921,0.60934 1.2669,0.914063 2.180908,0.914063 0.906297,0 1.62927,-0.304723 2.16919,-0.914063 0.539922,-0.60934 0.810058,-1.440561 0.810058,-2.493407 0,-1.052846 -0.270136,-1.883824 -0.810058,-2.493164 -0.53992,-0.613195 -1.262893,-0.919922 -2.16919,-0.919922 z m 11.737305,0.02319 c -0.389515,0 -0.784707,0.03483 -1.185792,0.104248 -0.401083,0.06942 -0.707565,0.133071 -0.919677,0.190919 v 1.104736 h 0.05786 c 0.374089,-0.142693 0.736455,-0.250699 1.087403,-0.323975 0.35095,-0.07713 0.669203,-0.115479 0.95459,-0.115479 0.23525,0 0.46079,0.01529 0.676757,0.04614 0.215969,0.03085 0.401158,0.09074 0.55542,0.179443 0.161978,0.09256 0.285274,0.219617 0.370118,0.381592 0.0887,0.161976 0.133056,0.36646 0.133056,0.613281 v 0.167725 c -0.632478,0.03085 -1.224388,0.07721 -1.775879,0.138916 -0.55149,0.0617 -1.023864,0.179239 -1.417236,0.352783 -0.389514,0.173547 -0.690476,0.41286 -0.902588,0.71753 -0.208256,0.300813 -0.312256,0.696005 -0.312256,1.185791 0,0.597769 0.202483,1.08944 0.607423,1.475097 0.40494,0.385659 0.898612,0.578613 1.480956,0.578613 0.316239,0 0.591896,-0.03107 0.827149,-0.09277 0.235252,-0.05785 0.443496,-0.131026 0.624756,-0.219727 0.154262,-0.06942 0.312389,-0.16189 0.474365,-0.277588 0.165831,-0.119555 0.296896,-0.212272 0.39331,-0.277832 v 0.688477 h 1.081787 v -4.38501 c 0,-0.41651 -0.06365,-0.765345 -0.190917,-1.046875 -0.12727,-0.28153 -0.312214,-0.511073 -0.555176,-0.688476 -0.246822,-0.18126 -0.540015,-0.308561 -0.879395,-0.381836 -0.335523,-0.07713 -0.730958,-0.115723 -1.186035,-0.115723 z m -22.4104,0.0059 c -0.952575,0 -1.720148,0.300716 -2.30249,0.902344 -0.578488,0.601626 -0.867677,1.430847 -0.867677,2.487549 0,0.566918 0.07718,1.062592 0.231445,1.486816 0.154264,0.424222 0.372035,0.775061 0.653565,1.052735 0.277674,0.277674 0.611462,0.485919 1.000977,0.624756 0.389515,0.13498 0.817533,0.202393 1.28418,0.202393 0.366375,0 0.711448,-0.04812 1.0354,-0.144532 0.32781,-0.09641 0.672883,-0.231482 1.035401,-0.40503 v -1.197265 h -0.05762 c -0.08099,0.06556 -0.190997,0.144503 -0.329833,0.23706 -0.138837,0.0887 -0.287437,0.17365 -0.445558,0.254639 -0.181257,0.09256 -0.385497,0.16774 -0.613036,0.225586 -0.227538,0.05785 -0.451319,0.08667 -0.671143,0.08667 -0.632481,0 -1.12415,-0.208245 -1.475098,-0.624756 -0.347092,-0.420366 -0.520752,-1.020041 -0.520752,-1.799072 0,-0.802168 0.177423,-1.409613 0.532227,-1.822265 0.358662,-0.41651 0.84657,-0.624757 1.463623,-0.624757 0.335523,0 0.678837,0.06942 1.029785,0.208253 0.354804,0.138837 0.698118,0.337557 1.029785,0.595946 h 0.05762 v -1.208984 c -0.296956,-0.150406 -0.624736,-0.277708 -0.983399,-0.381836 -0.354805,-0.104129 -0.717171,-0.15625 -1.087402,-0.15625 z m -26.703126,0.150391 v 6.46167 h 1.087647 V 55.27188 c 0.289245,-0.235253 0.589961,-0.426205 0.902344,-0.572754 0.312382,-0.150407 0.636401,-0.225586 0.971923,-0.225586 0.208254,0 0.38768,0.0098 0.538087,0.02905 0.154263,0.01543 0.312387,0.04224 0.474365,0.08081 h 0.05786 v -1.116455 c -0.16969,-0.02699 -0.296993,-0.04428 -0.381836,-0.052 -0.08484,-0.01157 -0.221673,-0.01733 -0.410644,-0.01733 -0.343236,0 -0.680786,0.07317 -1.012452,0.219727 -0.32781,0.142693 -0.707711,0.387772 -1.139648,0.734863 v -0.95459 z m 42.044434,0 v 6.46167 h 1.087647 V 55.27188 c 0.289242,-0.235253 0.589961,-0.426205 0.902343,-0.572754 0.312383,-0.150407 0.636402,-0.225586 0.971924,-0.225586 0.208255,0 0.387679,0.0098 0.538086,0.02905 0.154263,0.01543 0.312389,0.04224 0.474365,0.08081 h 0.05786 v -1.116455 c -0.169689,-0.02699 -0.29699,-0.04428 -0.381837,-0.052 -0.08484,-0.01157 -0.221671,-0.01733 -0.410643,-0.01733 -0.343237,0 -0.680787,0.07317 -1.012452,0.219727 -0.327808,0.142693 -0.707712,0.387772 -1.139648,0.734863 v -0.95459 z m -22.479981,0.717285 c 0.578488,0 1.00851,0.156123 1.29004,0.468507 0.285378,0.312382 0.429971,0.754176 0.433838,1.32495 h -3.702149 c 0.04628,-0.509069 0.240994,-0.935329 0.584229,-1.278564 0.347093,-0.343235 0.811701,-0.514893 1.394042,-0.514893 z m -11.96875,0.04053 c 0.582344,0 1.037426,0.204484 1.365235,0.613281 0.32781,0.40494 0.491699,1.025671 0.491699,1.862549 0,0.817595 -0.165893,1.434809 -0.497559,1.851319 -0.327807,0.412655 -0.780887,0.618896 -1.359375,0.618896 -0.5862,0 -1.043284,-0.208244 -1.371094,-0.624756 -0.327807,-0.420367 -0.491698,-1.035577 -0.491698,-1.845459 0,-0.836878 0.161888,-1.457609 0.48584,-1.862549 0.32781,-0.408797 0.786896,-0.613281 1.376952,-0.613281 z m 29.780518,0 c 0.582343,0 1.037425,0.204484 1.365235,0.613281 0.327807,0.40494 0.491698,1.025671 0.491698,1.862549 0,0.817595 -0.165893,1.434809 -0.497558,1.851319 -0.32781,0.412655 -0.780888,0.618896 -1.359375,0.618896 -0.5862,0 -1.043285,-0.208244 -1.371094,-0.624756 -0.32781,-0.420367 -0.491699,-1.035577 -0.491699,-1.845459 0,-0.836878 0.161886,-1.457609 0.48584,-1.862549 0.327808,-0.408797 0.786896,-0.613281 1.376953,-0.613281 z m -41.8188475,0.09839 c 0.5514908,0 0.9602145,0.192711 1.2263183,0.578368 0.2661039,0.385659 0.3991699,0.968042 0.3991699,1.74707 0,0.802169 -0.1696542,1.407609 -0.5090331,1.816407 -0.339379,0.408798 -0.8117535,0.613281 -1.4172364,0.613281 -0.2815302,0 -0.5341309,-0.02506 -0.7578125,-0.0752 C 4.3523358,58.883571 4.0879625,58.789096 3.7794361,58.650259 V 54.988394 C 4.0686796,54.768569 4.371644,54.591149 4.6878833,54.456168 5.004123,54.321188 5.3183717,54.253776 5.6307545,54.253776 Z m 55.2858885,2.215576 v 1.799071 c -0.269959,0.208255 -0.56291,0.38768 -0.87915,0.538086 -0.31624,0.146552 -0.665319,0.219727 -1.047119,0.219727 -0.458934,0 -0.800245,-0.09247 -1.023926,-0.277588 -0.223684,-0.188971 -0.335449,-0.468636 -0.335449,-0.838867 0,-0.32781 0.09623,-0.584415 0.289063,-0.769532 0.192828,-0.188971 0.445428,-0.327802 0.757812,-0.416503 0.262245,-0.07327 0.617089,-0.129158 1.064453,-0.167724 0.451221,-0.03857 0.842652,-0.0674 1.174316,-0.08667 z"
     id="path5090"
     inkscape:connector-curvature="0" />
</svg>
