<?xml version="1.0" encoding="utf-8"?>
<!-- Generator: Adobe Illustrator 18.0.0, SVG Export Plug-In . SVG Version: 6.00 Build 0)  -->
<!DOCTYPE svg PUBLIC "-//W3C//DTD SVG 1.1//EN" "http://www.w3.org/Graphics/SVG/1.1/DTD/svg11.dtd">
<svg version="1.1" xmlns="http://www.w3.org/2000/svg" xmlns:xlink="http://www.w3.org/1999/xlink" x="0px" y="0px"
	 viewBox="0 0 2272 1872" enable-background="new 0 0 2272 1872" xml:space="preserve">
<g id="Background">
	<rect x="-6.5" y="-17.3" fill="#FFFFFF" width="2303.8" height="1901.5"/>
	<polygon fill="#626774" points="832.1,698.2 858.2,695 858.2,712.3 828.9,727.5 	"/>
</g>
<g id="Object">
	<g>
		<path fill="#C0D846" d="M116.8,1433.7c0,0,82.4,70.8,104.8,99c22.4,28.2,47.7,65,47.7,65l34.7-4.3l-86-187.9L116.8,1433.7z"/>
		<path fill="#C0D846" d="M311.9,1494.4l33.2,119.9c0,0,91.8,47.7,91,44.8c-0.7-2.9,7.9-48.4,4.3-74.4c-3.6-26-7.2-51.3-7.2-51.3
			l-119.2-41.2"/>
		<path fill="#C0D846" d="M525.1,1435.9c0-5.1,52.7-198,52.7-198s34,37.6,44.1,44.1c10.1,6.5,36.1,28.2,36.1,28.2
			s-22.4,96.8-39.7,130.1c-17.3,33.2-59.2,153.9-59.2,153.9l-23.8-12.3c0,0,18.1-88.9,21-94.7c2.9-5.8,12.3-10.8,12.3-10.8
			L525.1,1435.9z"/>
		<path fill="#C0D846" d="M418.9,1253.8l0.7,116.3l-10.8-5.1c0,0-70.1,72.3-70.1,67.9c0-4.3-6.5-93.2-9.4-147.4
			c-2.9-54.2-5.1-88.9-5.1-88.9S397.2,1245.2,418.9,1253.8z"/>
		<path fill="#93B93C" d="M718,1282c0,0-119.9,282.5-124.3,289c-4.3,6.5-36.1,19.5-36.1,19.5s93.2-247.8,100.4-280.3
			C658,1310.2,702.8,1281.3,718,1282z"/>
		<path fill="#93B93C" d="M416,1253.8l3.6,116.3l83.1,48.4c0,0,2.2-210.3,1.4-212.4S429,1248.8,416,1253.8z"/>
		<path fill="#93B93C" d="M433.3,1533.5c0,0,2.9,47,5.8,66.5c2.9,19.5-2.9,56.4-2.9,56.4s75.1-39.7,78-44.1s22.4-119.2,23.1-121.4
			S433.3,1533.5,433.3,1533.5z"/>
		<path fill="#93B93C" d="M218,1405.6c2.2-17.3,49.9-114.2,49.9-114.2s21,46.2,29.6,75.9c8.7,29.6,31.1,85.3,31.1,85.3l-29.6,39.7
			l27.5,96.1c0,0-24.6,5.1-26.7,5.8s-11.6-29.6-13.7-34.7c-2.2-5.1-67.9-151.7-67.9-151.7"/>
		<path fill="#C0D846" d="M413.8,1365.8c0,4.3,15.2,62.9,15.9,88.1c0.7,25.3,3.6,79.5,3.6,79.5l126.4-47.7c0,0-62.1-54.2-92.5-75.9
			S413.8,1365.8,413.8,1365.8z"/>
		<path fill="#C0D846" d="M678.2,1141.1c0,0-2.9,63.6-5.1,86c-2.2,22.4-15.9,73-15.9,73l73.7-30.3
			C731,1269.7,680.4,1157.7,678.2,1141.1z"/>
		<path fill="#C0D846" d="M425.4,1076.1c0,0,28.2,59.2,44.1,77.3s36.1,47.7,36.1,47.7s-28.9,27.5-45.5,32.5
			c-16.6,5.1-46.2,15.9-46.2,15.9s10.1-68.6,9.4-99.7S425.4,1076.1,425.4,1076.1z"/>
		<path fill="#C0D846" d="M108.2,1226.4c-2.1-0.9,64.3,92.5,79.5,117.8c15.2,25.3,26.7,61.4,26.7,61.4s52-118.5,52.7-122.1
			C267.8,1279.9,113.2,1228.6,108.2,1226.4z"/>
		<path fill="#F0E936" d="M112.5,1232.2l7.2,198c0,0,93.2-18.1,94.7-21s-15.9-59.2-36.8-88.9
			C156.6,1290.7,112.5,1232.2,112.5,1232.2z"/>
		<path fill="#F0E936" d="M324.2,1196.8l98.3-115.6c0,0,2.9,106.9,0,117.1c-2.9,10.1-10.1,53.5-10.1,53.5S332.2,1199.6,324.2,1196.8
			z"/>
		<path fill="#F0E936" d="M313.5,1495.9c0,0,98.1-113.3,101.3-115.4s15.2,54.7,16.8,68.8c1.6,14.1,1.6,84.2,1.6,84.2
			S318.4,1500.2,313.5,1495.9z"/>
		<path fill="#F0E936" d="M578,1231.4l100.8-80.2c0,0-8.1,102.4-10.3,110.5c-2.2,8.1-15.2,46.6-15.2,46.6S584,1244.4,578,1231.4z"/>
		<g>
			<path fill="#4F6B1C" d="M294.9,1569.8c-1.9-2.9-2.8-6.5-4.6-9.5c-1.7-2.7-4.1-5-6.4-7.1c-2.2-2-5.1,1-3.2,3.2
				c4.9,5.6,5.8,12.1,9.4,18.3c2.7,4.5,5,13.1,10.7,14.2c1.3,0.2,3-0.6,2.8-2.1C302.9,1580.7,298.1,1574.8,294.9,1569.8z"/>
			<path fill="#4F6B1C" d="M746.5,1256.3c-14-19.1-21.3-42.5-32.5-63.1c-7-12.8-12.7-25.5-18.5-38.9c-1.7-3.9-6.6-21.3-13.4-20.6
				c-8.7,0.9-15.7,6.3-22.9,11.1c-10.6,7.1-22,13-32.3,20.5c-11.1,8.2-24.2,13.9-35.6,21.8c-11,7.7-21,16.9-30.4,26.4
				c-1.6,1.6-1,3.9,0.3,5.2c-4.5,20.9-8.7,41.6-12.8,62.5c-2,10-6.2,19.5-8.9,29.4c-3.4,12.4-5.4,25.2-8,37.8
				c-3.6,17.7-6.6,36.1-12,53.3c-0.4,1.4-1.2,3.5-1.9,6c-0.1-10.4,1.7-21.7,2.7-30.6c2.3-20.9,0.7-42.7,0.7-63.8
				c0-21.2,0-42.4,0-63.6c0-14.5,2.9-31.7,0.6-46.5c2.5-0.7,4.5-3.4,3-6.4c-2.8-5.4-7-8.9-11.3-13.2c-5.8-5.9-9.9-13-16.1-18.6
				c-6.5-5.9-4.6-13.2-9.9-19.2c-6.1-6.9-11.8-14.1-17.7-21.1c-5.7-6.7-8.3-14.5-13-21.7c-4.9-7.6-9.9-14.3-13.9-22.5
				c-3.2-6.4-10.2-27.4-19.7-28.1c-3.7-0.3-6.5,0.2-9.4,3.1c-2,2.4-3.4,5.1-4.5,8.2c-2.6,3.3-6.3,6.2-9.2,9.1
				c-6,5.8-10.7,12.8-16.6,18.7c-7.3,7.5-15,13.6-21.9,21.7c-12.3,14.7-24.2,31.2-37.8,44.6c-4.9,4.9-6.3,9.9-10.4,15.1
				c-3.5,4.4-7.5,6.9-8.9,12.6c-0.7,2.7,1.4,4.3,3.5,4.3c-0.4,7.6,1.4,14.5,1.9,22.2c0.5,7.4-0.3,14.2,1.2,21.5
				c4.1,20.8,1,44.2,1,65.3c0,17.3,1.6,33.8,4.4,51c1.1,6.6,1.7,13.3,2.3,20c-2.6-6.8-5.6-13.6-8.9-20.1c-9-17.7-15.5-39.1-18-58.7
				c-1.4-11,3.3-22.7-8-29c-12.9-7.3-29.1-6.7-42.9-11c-15-4.7-31.5-10.9-46.9-13.5c-17.4-3-35.3-5.2-52.2-10.2
				c-12.3-3.7-24.9-6.3-37.7-7.3c-1.5-0.9-3.2-1.4-5-1.6c-1-0.1-1.6,0.4-1.9,1.1c-0.1,0-0.1,0-0.2,0c-3.2-0.1-4.2,4.4-2,5.9
				c0.1,0.4,0.3,0.7,0.6,1c-3,47.7-1.2,96.1-1.3,143.9c-0.1,22.9-1.8,46.5-0.5,69.3c0.3,5.1,2.8,8.8,6.5,12c1.9,1.7,4.7,1.9,6.9,3.2
				c5.8,3.3,11.4,8.7,16.9,12.4c19.8,13.2,33.6,33.2,52.4,47.2c19.6,14.7,37.4,33.3,50,54.4c8.3,13.9,23.5,33.7,39.7,37.9
				c6.9,1.8,15.5-2.3,21.9-4.2c11.7-3.5,24.2-4,36.4-4.1c1.5,3.7,3.2,7.3,5.5,10.2c11.1,13.6,35.1,17.5,49.6,27.3
				c15.6,10.5,31.8,24,50.6,27.9c1.1,0.2,2,0,2.8-0.3c0.3,0.1,0.7,0.2,1.1,0.1c9.7-2.5,16.8-10.3,26.7-13.2
				c10.3-3,18.8-13.5,29-17.6c6.5-2.6,16.2-6.6,21.5-11.1c5-4.2,15.8-6,18.9-12.4c3.2-6.7,4.5-14.5,5.8-22c3.7,2.2,8.4,2.2,12.2,4.2
				c3.5,1.9,6.5,3.6,9.5,3.3c0.9,2.1,3.2,3.5,5.7,2.1c13.7-8,26-17.9,40.6-25c9.7-4.7,11.1-19.3,15.7-27.8
				c7.2-13.3,13.1-27.6,21.6-40.2c3-4.4,3-12.7,4.8-17.7c4.3-12.4,11.4-23.5,17.8-34.9c7.5-13.1,13.6-28.7,18-43.2
				c4.6-15.4,13.3-29,18.3-44.4c5.7-17.5,14.8-33.4,21.7-50.4c3.9-9.6,7-19.5,11.3-28.9c2.4-5.2,6.1-9.2,8.5-14.1
				c0.7-0.8,1.1-1.8,1.1-2.9c0.2-0.5,0.4-0.9,0.6-1.5c0.3-1.2-0.1-2.2-0.7-2.9C745.9,1262.8,748.9,1259.6,746.5,1256.3z
				 M312.8,1184.3c2.3-2.9,5.8-5.3,8.1-7.9c4.4-4.9,7-10.8,12.1-15.6c11.4-10.9,20.8-25.2,31.2-37.1c3.8-4.4,43.1-43.7,55.3-56.2
				c-1.1,13.7-0.8,27.5-0.8,41.2c0,17.9-2.2,37.3,1.3,54.9c0.5,2.7,4.9,2.7,5.4,0c3.2-15.8,1.4-32.8,1.3-48.9
				c0-15.5,0.5-31.3-0.8-46.8c7.2,11.4,11.7,24.5,19.6,35.6c11.6,16.3,22.6,33,33.7,49.7c5,7.6,9.7,17,16.1,23.4
				c1.7,1.6,17.4,18.9,17.6,18.9c-7.8,2.2-14.6,6.2-21.7,10.2c-9,5.1-15.2,13.9-25,18c-16.8,7.1-32.6,20.8-50,22
				c0.1-3.3,0.2-6.6,0.7-9.7c1.4-8.1,3.6-16,4.4-24.2c0.3-3.3-5.3-4-5.7-0.8c-1.4,10.2-6.8,22.8-7.5,34.3c-2.8-0.5-5.6-1.3-8.5-2.5
				c-8.1-3.5-16.1-9.1-23.9-13.4c-8.6-4.7-13.7-13.9-22.5-18.6c-8.7-4.7-15.9-12-24.6-17C322.3,1190.1,320.3,1185.3,312.8,1184.3z
				 M316.4,1194.5c5.6,3.1,13.1,9.7,16.7,11.8c3.6,2.1,8.5,8.8,12.6,10.6c7,3,11.8,7.7,17.1,13c5.9,6,13.1,9.4,20.5,13.2
				c8.3,4.3,17.1,11.8,26.5,13.8c0,0.1,0,0.2,0.1,0.3c0.7,1.7,2.4,2,3.6,1.1c-0.6,9.3-3,18.7-1,27.5c3.3,13.9,0.4,28.3,5.9,41.7
				c0.9,2.1,4,2.6,4.7,0c1.3-4.9,1.4-6.5,0.6-11.7c-1.1-7.1,0.7-15.7-1.1-22.6c-3.1-12.1-0.5-24.6-1.9-36.6c1.8-0.6,3.7-1.4,6-2.6
				c11.6-6.3,23.6-11.3,34.7-18.7c6.9-4.6,14.4-5.8,21.2-11.2c9.4-7.5,18.7-15.2,30.1-19.2c0.7,6.5-0.3,13-0.6,19.5
				c-0.5,12.4,0,24.9,0,37.3c0,21,0,42.1,0,63.1c0,21.5,0.1,42.6-1.9,64c-0.9,9.4-2.7,21.2,0.1,30.8c-1.9-1.5-3.8-3-5.9-4.2
				c-14.7-8.7-28.3-19-42.8-28.1c-6.9-4.4-14.4-7.7-21.7-11.4c-8.3-4.2-15.2-10.6-23.7-14.4c-9.1-4-14.6,2.4-20,8.8
				c-13.2,15.6-28,28.6-42.7,42.7c-6.1,5.9-11.3,12.2-16.3,18.7c-2.9-10.7-5.7-21.5-8.7-32.2c1.5-31.7-8.8-63-8-94.7
				c0.5-20.5,0.8-41.2,0.7-61.7C321.1,1227.2,316.4,1210.6,316.4,1194.5z M104,1436.5c-1.3-5.6,0-12.5,0-17.7
				c-0.1-24.5-0.1-48.9-0.2-73.4c-0.1-24.7-0.2-49.4-0.3-74c0-10.4-0.3-20.8,0.3-31.1c0.3-4.8,0.5-9.1-0.5-13.2
				c0.5,0.1,1.1,0.2,1.6,0.3c4.2,4.9,7.3,11.9,10.6,16.2c7.7,10.1,15.6,19.5,22.3,30.3c13,20.8,27.4,40.9,41.6,60.9
				c2.2,3.1,6.4,1.1,5.8-2.5c-1.8-12.3-12.9-23.7-20.3-33.3c-9.6-12.6-17.9-25.6-26.9-38.5c-7.3-10.4-16.1-19.2-23.5-29.6
				c-0.4-0.6-0.9-1.3-1.3-1.9c24.7,5.2,49,11.6,74,16c6.3,1.1,11.4,4.4,17.6,5.6c8,1.6,15.2,3.1,23,5.6c14.7,4.6,30.3,6.4,44.6,11.7
				c0.9,0.3,1.6,0.7,2.4,1c-0.8,0.2-1.6,0.5-2.3,1.3c-5,5.4-7.5,12.2-11.4,18.5c-5.9,9.6-10.4,17.4-12.5,28.6
				c-1.1,6.3-4.7,10.9-8.1,16c-3.9,5.9-6.3,13.3-9.4,19.7c-4.8,9.8-10.1,19.4-14,29.6c-1,2.5-1.8,7.5-3.1,12.3
				c-0.8-2.3-1.4-4.7-2.3-7.3c-2.8-8.6-8-16.3-10.6-25.1c-0.4-1.2-1.7-2.1-3-1.7c-0.5,0.1-0.9,0.3-1.4,0.4c-0.9,0.3-1.7,1.2-1.7,2.2
				l0.1,1.7c0.1,1.1,0.9,1.7,1.7,1.8c1.3,7.3,4,14.1,7.5,20.8c2,3.8,1.7,8.2,3.7,11.9c0.7,1.3,1.5,2.7,2.2,4c-1,1.4-2.1,2.3-3.5,2.6
				c-13.5,2.6-26.7,6.6-39.8,10.4C147.8,1422.3,120.3,1423.8,104,1436.5z M275.5,1595.3c-21.7,6.6-42.5-37.1-52.7-50
				c-13-16.5-28.6-28.8-44-42.5c-15.3-13.7-28.8-28.8-45.3-41.3c-7.8-5.9-15.7-12.4-24.2-17.2c-0.8-0.4-1.4-1-2-1.6
				c14.8-8.5,34.5-9.8,50.8-14c19-4.9,37.5-10.8,56.8-14.4c1-0.2,1.9-0.9,2.5-1.7c0.3,0.1,0.7,0.1,1,0c4.2,8.3,6.3,20.1,9,26.9
				c4,10.2,8.8,20.1,13.3,30.1c10.2,22.6,20.7,44.8,30.3,67.6c1.2,2.8,5.6,1.3,5.5-1.5c-0.9-26-21-52-31.7-74.8
				c-6.8-14.5-13.5-28.9-18.6-44.1c-1.4-4.3-3.4-8.3-6.4-11.4c6.2-22.1,17.5-41.8,26.6-62.9c4.3-9.8,10.2-16.3,12.2-27.2
				c1.9-10.5,12.9-30.2,20.6-38.4c0.9-1,1.2-2,1.2-3c1.4,2.8,1.3,6.4,1.4,11.3c0.1,7.8,1.7,15.6,3.4,23.2c3.1,14,7.9,28.4,13.9,41.4
				c13.7,29.9,21.8,60.9,30.6,92.1c-1,1.4-2,2.7-3,4.1c-5.3,7.2-11.7,13.8-16.7,21.2c-4.1,6-10.3,18.1-17.9,20.7
				c-0.2,0.1-0.4,0.2-0.6,0.3c-0.2,0-0.5,0-0.7,0c-2.9,0.2-3.8,4.6-0.7,5.2c1.4,0.3,2.8,0.7,4.1,1c0,0.3-0.1,0.5,0,0.8
				c3.6,19.8,9.2,40.3,14.7,59.7c3,10.7,6.7,21.1,11,31.4c0.3,0.6,0.5,1.3,0.8,2C305.3,1588.9,290.6,1590.7,275.5,1595.3z
				 M528.5,1577.8c-0.1,0-0.2,0.1-0.3,0.1c-1.6,1-2.1,3.1-1.2,4.7c0.1,0.2,0.2,0.4,0.4,0.6c-0.8,3.8-1.6,7.5-2.4,11.3
				c-3.2,15.2-29.7,25.1-42.7,31.6c-11.5,5.8-20.6,14.4-32.9,18.8c-3.4,1.2-6.4,3.5-9.2,6.1c4.4-23.2,12.4-52.6,1.1-73.6
				c-0.9-1.6-3.3-0.5-2.9,1.2c5.7,25.2-5.2,50.9-6.2,75.9c-17.4-5.9-33.1-16.5-47.8-27.2c-7.2-5.3-15.3-9-23.4-12.6
				c-8.5-3.8-20.8-6.8-25.5-15.5c-0.3-0.5-0.5-1-0.7-1.5c4.3-1.9,3.6-9.7-2.1-9.7c-0.5,0-0.9,0-1.4,0c0,0,0,0-0.1,0
				c-0.4,0-0.8,0-1.2,0c-6.8-14.7-12.2-31-15.2-46.3c-1.9-9.6-5.6-18.6-8-28.1c-0.5-2.1-4.8-12.7-5.8-17.5
				c7.2,2.1,14.3,4.4,21.5,6.8c11,3.6,23.3,6.6,33.8,11.2c19.6,8.7,40.9,13.9,61,21.6c3.9,1.5,8.7,2.6,13.2,2.4
				c0.2,1.5,0.3,3,0.6,4.5c0.4,2.4,4.5,2.4,4.9,0c0.3-1.9,0.5-3.8,0.7-5.7c0.5-0.2,0.9-0.3,1.4-0.5c12.5-6.2,24.8-12.1,37.7-17.7
				c24.4-10.6,49.7-19.6,75.5-26.1c-5.7,8.9-9.7,18.3-11.7,29.7C536.4,1540.9,532.4,1559.3,528.5,1577.8z M726.3,1280.4
				c-3.7,6.3-5.9,13.7-8.4,20.6c-6.2,17.2-15.3,33.3-22.2,50.2c-12.4,30.1-23.6,60.6-36.7,90.5c-6.3,14.5-15.4,27.4-21.2,42.2
				c-3.2,8.2-4.2,14-8.5,22c-3.7,6.9-6.7,14.2-10.4,21.2c-2.9,5.6-5.7,11.2-8.7,16.8c-3.3,6.2-4.5,16.8-10.5,20.8
				c-6.8,4.6-14.9,7.9-22,12.2c-3.6,2.2-7.1,4.8-10.6,7.4c2.1-5,3.7-10.7,5.7-15c4.3-9.4,12-18.8,12.3-29.3c0.1-2.3-2.8-3.3-4.4-1.8
				c-6.4,6-9.6,15.8-13.6,23.5c-3.6,6.9-6.7,14.2-9.2,21.6c-1.6,4.7-12-1.4-20.5-4.4c2.8-12.9,5.9-25.5,8.4-38.5
				c2.2-12,3-24.4,7.9-35.7c2.9-6.7,8.3-12.1,10.9-19.2c1.1-3.1-3.6-6-5.7-3.3c-0.2,0.2-0.4,0.5-0.6,0.7
				c-11.7-0.5-22.8,3.9-33.7,7.8c-12.2,4.4-24.8,7.8-36.8,12.8c-10.7,4.5-21.3,9.2-31.9,13.7c-6.5,2.8-12.4,6-18.2,8.1
				c1-20.6-1.3-42.2-3.8-62c-0.4-3.3-4.9-3.4-5.2,0c-0.9,12.2,1.1,24.5,1.3,36.7c0.1,9-0.5,18.2-0.3,27.2c-5.4,0.7-11-0.1-17.4-3.5
				c-8.8-4.7-19.4-5.9-28.9-9.1c-9.3-3.1-18.6-7.1-27.8-9.9c-16-4.8-34.8-13.2-52.5-15.7c3.6-2.9,6.6-6.6,9.2-10.1
				c7.7-10.3,16.1-20.2,24.1-30.2c2.3-0.5,4.1-2.3,3.9-5c0.5-0.6,1-1.2,1.4-1.8c9.4-12.4,18.1-22.7,30-32.9
				c13.3-11.4,24.6-24.4,35.8-37.7c0.3-0.4,0.9-0.5,1.7-0.4c1.4,9.6,5.1,19.9,7.2,29.1c2.9,12.4,4.2,25.5,10.7,36.7
				c1.2,2.1,4.1,1,4.2-1.1c0.8-10.7-4.3-22.2-6.4-32.7c-1.3-6.3-2.9-12.6-4.2-18.9c-0.7-3.3-2.1-6.9-3.4-10.4
				c11,5,27.4,15.5,30.7,17.1c15.5,7.6,28.6,19,43,28.3c13.5,8.7,24.8,20,38,29.4c13,9.3,27.9,20.6,36.5,34.5
				c3.3,5.3,11.7,0.4,8.4-4.9c-7.6-11.9-19-19.9-28.2-30.4c-5.2-5.9-13.3-8.1-19.6-13.1c-2.7-2.2-5.4-4.8-8.1-7.3
				c0.6-0.4,1.1-1,1.4-1.6c2.8,0.9,6.1-2.6,3.3-4.7c-2.7-2.1,6.8-23.5,7.8-27.1c5.2-19.5,8.9-39.9,13-59.7
				c3.8-18.7,10.8-36.4,14.5-55c3.2-16.1,6.5-32.1,10-48.2c10.5,14.2,22.2,27,33.4,40.9c12.8,15.9,35.7,19.8,45.5,38.5
				c1,1.9,3,2.4,4.9,2.2c-2.1,13.9-5.3,27.7-8.6,41.4c-3.9,16-9,34.3-15.8,49.3c-9.8,21.5-26.4,49.8-22.7,74.1
				c0.5,3.5,5.8,3.1,6.6,0c4.1-15.5,7.4-31.5,13.9-46.3c5.7-12.8,12.8-25.2,15.6-39c3.2-15.5,10.3-30.6,13.7-46.3
				c2.6-11.8,5-23.8,5.8-35.8c1.7-0.8,3.4-1.6,5-2.4c9.4-4.8,19.7-8.3,28.8-13.8c8.3-5,15.7-9.1,25.4-10.7c2.6-0.4,4.8-1.5,6.9-2.7
				C726.5,1280,726.4,1280.2,726.3,1280.4z M739,1262.3c-0.7-0.1-1.4,0-2.2,0.2c-7.3,2.5-12.2,8.2-19.6,10.8
				c-7.7,2.7-13.1,2.9-20.5,7.2c-8,4.6-15.9,7.8-24.3,11.8c-4.1,2-8.1,4.6-12.2,6.8c0,0-0.1-0.1-0.1-0.1c0,0,0,0,0,0
				c1.8-4.7,4.2-9.6,4.3-14.7c0-3.8-5.8-3.8-5.9,0c-0.1,5-3.7,9-4,13.9c0,0.3,0,0.6,0.1,0.8c-0.5,0.6-0.9,1.3-1.1,2.3
				c0,0.2-0.1,0.5-0.1,0.7c-8-12.5-21.3-19.2-33.7-27.1c-10-6.4-16.5-16.7-24.3-25.4c-9.4-10.4-17.6-20.8-25.4-32.5
				c-0.2-0.3-0.5-0.6-0.8-0.8c17.4-13.4,33.4-27.8,53.4-37.9c18.4-9.3,35.3-22.1,52.9-32.8c0.2-0.1,0.4-0.1,0.6-0.2
				c-6.2,17.4-3.6,38.7-5.2,56.9c-1.1,12.8-0.2,25.3-2.4,38.1c-1.5,8.7-3.9,16.6-2.7,25.4c0.3,2.2,3.7,2,4.2,0
				c9.9-39.7,8.5-79,11-119.4c6.1,5.2,10.4,23.3,12.6,28.3c5.4,12.3,13.7,23.3,18.2,36c3.1,8.8,7.2,16.8,11.6,25
				c4.5,8.3,9.4,18,14.9,25.6c0.4,0.5,0.8,0.8,1.2,1.1C739.3,1262.2,739.1,1262.3,739,1262.3z"/>
		</g>
	</g>
	<g>
		<path fill="#74D1F6" d="M864,490.1c0,0,188.6,253.6,196.2,257.9c7.6,4.3,31.4,2.2,31.4,2.2S943.1,489,937.7,485.8
			C932.3,482.5,864,490.1,864,490.1z"/>
		<path fill="#74D1F6" d="M1009.2,553l97.5,190.7c0,0,26-138.7,22.8-144.1C1126.3,594.2,1020,553,1009.2,553z"/>
		<path fill="#74D1F6" d="M1297.5,409.9l-136.6,333.8c0,0-36.8-1.1-35.8-4.3s84.5-174.5,84.5-179.9c0-5.4-48.8-53.1-48.8-53.1
			l42.3-134.4C1203.2,372,1280.2,400.2,1297.5,409.9z"/>
		<path fill="#74D1F6" d="M1069.9,388.2l4.3,110.5c0,0-44.4,34.7-45.5,31.4c-1.1-3.3-67.2-190.7-68.3-197.3
			C959.4,326.5,1069.9,388.2,1069.9,388.2z"/>
		<path fill="#2EB1DB" d="M937.7,485.8l54.2,78l18.4-21.7c0,0-43.4-107.3-46.6-110.5S937.7,485.8,937.7,485.8z"/>
		<path fill="#2EB1DB" d="M1069.9,395.8l4.3,103l48.8-27.1l28.2,21.7c0,0,36.8-145.2,36.8-151.7
			C1188,335.1,1069.9,395.8,1069.9,395.8z"/>
		<path fill="#2EB1DB" d="M1129.5,599.6c0,0-23.8,156.1-23.8,152.8s91-169.1,90-179.9C1194.5,561.7,1129.5,599.6,1129.5,599.6z"/>
		<path fill="#A8E0F9" d="M1129.5,599.6l-107.3-48.8c0,0,93.2-59.6,98.6-60.7s75.9,71.5,78,74.8S1133.8,599.6,1129.5,599.6z"/>
		<path fill="#A8E0F9" d="M869.8,488c0,0,9.4-61.4,12.3-66.5c2.9-5.1,75.9,0.7,80.2,5.1c4.3,4.3-24.6,59.2-24.6,59.2
			S877.7,489.4,869.8,488z"/>
		<path fill="#A8E0F9" d="M961.5,329c0,0,96.1-117.8,100.4-117.8s128.2,121,127.2,125.7c-1.1,4.7-122.1,54.2-122.1,54.2
			S977.4,333.3,961.5,329z"/>
		<path fill="#A8E0F9" d="M1207.9,349.2c0,0,51.3-10.1,56.4-7.9s37.6,67.2,34,66.5s-51.3-28.2-65-29.6c-13.7-1.4-31.1-3.6-31.1-3.6
			S1205,349.2,1207.9,349.2z"/>
		<g>
			<path fill="#0F6B86" d="M1116.6,695.1c-4.2,10.3-7.6,21.5-10.2,32.3c-1.8,7.3-7.3,15.8-3.7,23c0.8,1.6,3.4,1.6,4.2,0
				c8-16.7,9.6-36.2,15.8-53.6C1124,692.9,1118.1,691.5,1116.6,695.1z"/>
			<path fill="#0F6B86" d="M1314.5,409.3c-2.3-2.9-3.1-8.9-4.3-11.5c-1.8-2.6-3.5-5.3-5.2-8.1c-2.7-4.4-3.2-11.8-4.9-16.8
				c-5.4-15.9-13.6-28.4-23.5-41.3c-2.5-3.3-4.3-6.1-8.2-8c-3.6-1.8-9.7,2.1-12.6,2c-15.9-0.5-29.4,5.6-44.2,9.6
				c2.2-2,1.9-5,0.2-6.7c0-0.4,0-0.8-0.2-1.1c1.5-2.1,0.7-5.5-2.8-5.8c-3-0.2-11.9-10.9-13.8-13.3c-5.2-6.8-9.9-14.3-15.3-21.1
				c-12.3-15.5-31.7-23.4-46.3-36.6c-15.5-13.9-31.2-26.9-46-41.5c-4.9-4.8-11.2-7.5-16.5-11.6c-0.1-1.2-1-2.2-2.2-2.7
				c-0.5-0.2-1-0.3-1.4-0.4c0,0-0.1-0.1-0.1-0.1c-3.5-3.6-7.6-3.6-12-2c-4.9,1.8-8.7,8.5-12.3,12c-7.9,7.6-15.3,15.1-22.3,23.6
				c-6.8,8.3-16.1,14.4-23.7,22c-8,8-15.5,16.2-23.8,23.8c-11.7,10.7-21.6,23.3-32.7,34.6c-5,5.1-13.8,14.8-6,21.1
				c0.4,0.3,0.8,0.4,1.2,0.5c3.2,11.9,6.8,23.3,10.8,35.1c4.3,12.7,7.1,26.2,11.1,39c-21.5-1.2-43-2.2-64.5-2.3
				c-9,0-26-5.2-30.4,6.1c-5.3,13.4,0.1,28.7-3,42.7c-2.5,11.5-13.2,28-10.3,39.9c0.5,1.9,2,2.9,3.7,3.3c-1,0-2.1,0.7-2.2,2.2
				c-0.7,8.7,10.7,16.6,15.4,23.2c9.9,14.1,19.1,28.5,29.5,42.2c10,13.2,19.2,26.9,29.9,39.5c12.9,15.2,26.6,28,37.6,45
				c10.2,15.8,17.4,33.3,27.6,49.2c8.9,13.8,20.1,25.1,31.8,36.4c8.7,8.4,13.5,23.1,25.6,26.6c7.5,2.2,18.1,0.2,25.9,0.1
				c5.2-0.1,10.4,0.8,15.4,2c2.1,4.4,4.3,8.6,6.7,12.5c1.3,2.1,4.6,3.5,6.9,1.8c7.9-5.8,13.5-15.2,18.6-24.7c1.8,1.2,5,0.1,5-2.5
				c0-2.2,43.3,1.6,48.6,3.5c2,0.7,3.9-0.5,5-2c8.6-12.2,10.7-26.4,17.6-39.4c7.1-13.6,12.4-29,19-43c13.2-28.1,18-58.9,33-86.2
				c14.7-26.7,24.8-56.6,33.4-85.9c5.1-17.5,10-34.7,18.9-50.8c2.8-5.1,7.1-9,10.4-13.7c2.4-3.3,2.7-7.3,4.5-10.8
				c1.1-0.4,2.1-1.2,2.4-2.8c0.1-0.5,0.2-0.9,0.2-1.4C1320.4,411.3,1317.3,408.4,1314.5,409.3z M1210.1,340.4
				c0.3,0.2,0.7,0.3,1.1,0.3c14.7,0.6,29.5-7.2,44.8-7.1c4.7,0,10.3-2.7,13.7,2.1c6.2,8.7,12,16.4,16.1,26.5
				c5.4,13.4,9.1,27.7,17.1,39.8c1.2,1.8,1.8,3.5,2.4,5.3c-5.9-2.7-12.2-6.9-17.7-9.3c-10.1-4.5-19.5-10-30-13.7
				c-17.6-6.2-33.6-13.3-52.5-12.3C1207,361.5,1208.5,350.9,1210.1,340.4z M962.7,298.2c12.1-12.8,24.5-25.3,36.8-38.1
				c12.6-13.2,26-24.9,38.2-38.5c5.4-6,12.2-10.7,17.3-17c1.6-1.9,3-2.8,4.4-3c-1.7,7.4-0.7,18.2-1.3,21.7
				c-2.6,15.3-1.7,30.7-1.7,46.3c0,17.6-2.1,36.8,2.1,53.9c0.4,1.6,2.7,1.6,3.1,0c5.9-23.7,2.4-52.1,2-76.5
				c-0.2-9.7,2.1-18.9,2.3-28.4c0-2,0.9-8.9,1.1-13.5c1.3,1,2.6,2.1,4.1,3c8,4.8,13.9,10.5,19.9,17.5c5.9,6.9,13.8,11.6,20.8,17
				c14,10.9,25.6,24.1,40.9,33.3c16.3,9.9,24.4,22.8,35.8,37.4c4.4,5.7,9.5,13.5,16.6,15.2c-9.6,5.5-21,6.8-30.9,11.7
				c-11.1,5.5-19.5,10.4-31.8,13.1c-25.5,5.6-46.6,18.6-69.4,30.9c-0.2,0.1-0.4,0.1-0.5,0.2c-0.3-2-0.6-4-0.6-6
				c-0.3-11.8,1.6-25-1.3-36.5c-0.3-1.1-1.3-1.7-2.4-1.8c-0.6,0-1.2-0.1-1.8-0.1c-2.6-0.2-2.8,3.6-0.6,4.4
				c1.7,0.6-0.5,31.4-0.5,34.1c0,2.1,0.1,4.4,0.3,6.6c-11.3-1.8-27.6-13.2-33.8-17.2c-11.2-7.3-19.5-14.5-31.7-20.4
				c-18.5-9.1-38.5-25.6-60.2-26.8C944.6,312.9,959.5,301.7,962.7,298.2z M952.9,363.2c-3.7-11.9-7.6-24.1-12.2-35.7
				c12.7,3.6,24.4,9,36,15.6c12.4,7,27.3,12.9,38.4,21.7c10.6,8.4,20.6,15,32.5,21.6c4.7,2.6,12.6,8.9,19.2,9.2
				c1,6,2.5,11.9,4.2,17.4c0.5,1.7,3,1.8,3.6,0c1.9-6.4,0.9-12.9-0.4-19.4c9.8-4,19.1-10,28.1-15.3c13.3-7.8,27.6-13.1,42.6-16.1
				c12.1-2.4,20.1-5.3,30.2-12.1c8-5.4,18-6.8,27.1-10.1c-2.8,9.7-4.9,20-5.7,29.7c-0.9,10.2-2.8,18.8-6.4,28.3
				c-2.5,6.4-6.2,13.2-8.1,19.7c-4.6,15.9-8.2,33.2-11.5,49.5c-2.3,11.2-8,21.1-11.4,31.8c-4.4-3.9-8.8-7.8-13-12
				c-5.6-5.6-15-16.5-23-18.7c-9.4-2.6-16.1,6.1-22.8,11.2c-11.8,9-25,14.6-38,21.4c-11.9,6.2-22.6,15.3-34,22.3
				c-3.2,2-6.1,4.2-8.9,6.6c0.3-0.9,0.3-1.9-0.2-3c-9.3-21.5-15.4-43.5-23.2-65.7c-3.8-10.8-8.1-20.7-13.7-30.8
				c-3.3-6-9.1-13.8-12.4-20.7c0.7-2-0.1-4.4-2.5-5.1c-0.3-0.2-0.7-0.3-1-0.3c0,0,0,0,0,0h0c-0.1,0-0.2,0-0.3,0c-0.2,0-0.4,0-0.7,0
				C962.7,390.4,957,376.5,952.9,363.2z M1308.1,418c-2.2,6.6-6.3,11.3-10.5,16.8c-9.1,12.1-13,26.4-17.7,40.5
				c-5.3,16.2-9.6,32.7-16.1,48.5c-6.5,15.7-10.1,31.6-18.7,46.3c-15.3,26.1-21.7,54.6-32.5,82.6c-5.7,14.8-13.8,28.6-19.5,43.4
				c-5.6,14.4-10.3,31.7-18.4,45.1c-13.3-3.4-29.3-2.2-42.7-2c-1.5,0-3,0.1-4.4,0.2c1.1-1.9,2.1-3.7,3.2-5.4
				c6.9-10.7,12.8-22.2,19.1-33.3c5.9-10.2,13-19.2,19.1-29.3c7.4-12.4,10.5-26.7,19.9-37.9c0.9-1.1,1.4-2.1,1.5-3.6
				c0.4-6.8,3.4-12.2,5.9-18.3c7.2-17.4,22.9-36.5,21.4-56.2c-0.3-3.6-3.8-5.7-7-4c-7.4,3.8-11.7,10.2-20.2,12.7
				c-8.3,2.4-15.3,7.9-22.2,12.7c-7.9,5.5-22,14.6-32,16.4c0.4-2.4,0.8-4.9,1.1-7.3c0.5-3.5-4.8-5.2-5.5-1.5c-0.6,3-1.2,6-1.8,9
				c-6.5-0.8-11.2-4.6-17.7-7.8c-10.6-5.1-21.9-8.7-32.5-13.7c-8.3-3.9-16.5-11.9-25.4-13.9c-6.9-1.6-12.8-4.7-19.3-6.5
				c-7.6-2.2-15.5-2.2-23-4.7c-5.3-1.7-7.6,6.6-2.3,8.4c8.2,2.7,19,1.2,25.8,7.1c1.9,1.6,4.3,1.7,6.7,2.3c8.9,2.2,15.3,4.8,23.1,9.5
				c8.6,5.2,17.8,9.1,27.1,12.9c6.9,2.8,13.8,5.6,20.6,8.8c3.2,1.6,6.7,6.4,10.5,7.3c1.4,0.3,2.8,0.5,4.2,0.6
				c-2.1,9.9-4.2,19.8-5.6,29.9c-2.1,14.7-7.7,29-2.8,43.7c0.8,2.3,4.1,2.4,4.8,0c1.8-6.2,1.5-11.2,1.6-17.7c0.2-7.9,3-16.1,4.1-24
				c1.5-10.8,3.2-21.6,4.9-32.4c12.1-2.1,24.4-10.8,34-16.1c9.7-5.4,17.1-12.3,28.1-15.5c4.1-1.2,7.1-3.5,9.9-5.9
				c-2.1,7.2-5.8,15-8.4,20.7c-3.8,8.3-8.9,17.1-13.3,25.1c-3.1,5.7-3.3,14.8-7.1,19.3c-6,7.2-9.2,17.5-12.8,26
				c-4.7,10.8-11.6,19.8-18.8,29c-5.3,6.8-9.3,16.1-13.5,23.6c-5.4,9.7-10.6,19.2-16.8,28.4c-4.3,6.5-7.7,15.6-12.7,22.3
				c0.1-1.1-0.3-2.3-1.3-3.1c-0.2-0.2-0.4-0.3-0.6-0.4c-0.6-1.9-1.5-3.8-2.9-5.6c-3.7-4.7-8.3-14.3-10.9-19.6
				c-9.2-19.7-23.3-35.8-33.8-54.5c-10.2-18.3-19.9-37-30-55.3c-5.2-9.3-8.6-19.4-13.9-28.6c-5.4-9.4-13.6-23.6-15.5-34.2
				c-0.5-3.1-5.8-2.4-5.4,0.7c2,19.6,15.8,37.8,22.4,56c7.1,19.4,18.8,39,29.6,56.6c11.2,18.2,23.4,36.4,33.7,55.3
				c3.9,7.2,7.2,15.1,10.6,22.8c-5.6-1.1-11.3-1.3-17.2-1.2c-9.9,0.1-19.9,1.1-25.9-8.6c-3.5-5.8-8.5-10.7-13.2-15.5
				c-12.5-12.6-23.9-24.4-33.6-39.5c-9.1-14.1-15.8-29.8-24.7-44.1c-8-12.7-17.3-24.5-27.9-35c-12.6-12.5-22.7-26.2-33.4-40.3
				c-9.7-12.7-19.8-24.9-28.5-38.3c-4.8-7.3-10.4-14-15.7-20.9c-1.5-2-9.2-8.2-9.6-11.1c-0.2-1.3-1.1-2-2.1-2.1
				c0.2,0,0.4,0.1,0.6,0.1c12.5,1.6,25.8-2.2,38.2-3.7c14.9-1.8,29.7,0.2,44.2,3.5c-0.1,1.2,0.5,2.4,2.1,2.4
				c7.5-0.1,12.4,12.5,14.4,18c2.3,6.1,4.9,11.4,9.1,16.4c6.8,8.3,8.6,21.7,21.3,23.2c2.2,0.3,2.9-2.7,1.7-4
				c-10-10.8-20.2-24.3-26.2-38.1c-2.9-6.8-8.4-18.1-16.7-19.9l0,0c5.7-13.4,9-27.5,14.8-41c3.6-8.5,10.4-18,10.9-27.2
				c0.3-4.8-6.8-4.6-7.3,0c-0.5,3.9-3.7,7.1-5.7,10.3c-3.1,4.8-4.7,11.7-7,16.9c-5,11-7.8,22.5-12.3,33.6
				c-12.7-2.7-24.6-3.8-37.9-3.7c-12.9,0.1-26.3,4.6-39.1,4.3c0.5-9.1,8.6-25,10.4-31.8c3-10.9,1.3-21.3,1.2-32.4
				c-0.1-10.3,5.5-10.6,14.3-9.8c8.8,0.9,18,0.2,26.9,0.1c16.6,0,32.9,1.8,49.5,1.5c0.4,1,0.7,2.1,1.1,3.1c0.9,2.1,4.2,2.3,4.7,0.1
				c1.5,3.4,3.5,6.6,5,10.1c5.5,12.7,12.2,24.6,16.4,37.9c7.3,23.2,14.2,45.7,23.8,67.8c0.8,1.8,2.3,2.4,3.7,2.2
				c-3.1,3.1-6,6.5-8.4,10.1c-1.4,2.2,1.7,4.4,3.5,2.7c29.8-28.8,71.4-41.5,103.8-66.8c8.2-6.4,29.8,15.7,42.2,28.3
				c-0.2,1.1,0,2.4,0.9,3.4l0.4,0.4c1,1,2.2,1.2,3.4,1c1.1,1,2,2,2.7,2.5c6.8,5.8,11.7,12.7,17.9,19.1c2.9,3,14.6,6.1,14.6,10.5
				c0,5.5,8.5,5.5,8.5,0c0-5.5-1.4-8.1-6-11c-4.7-3-9.8-4.2-13.9-8.4c-4.2-4.3-7.1-9.2-11.6-13.4c-2.4-2.2-4.8-4.4-7.2-6.5
				c4-10,8.1-20,11.4-30.4c2.6-8,3.9-16.7,6.3-24.8c3.1-10.6,2.8-22.5,7.8-32.4c6.6-13,10.2-27,12.9-41.3c0.1,0,0.2,0.1,0.4,0.1
				c20.6-0.2,41.6,10,60.3,17.9c8.2,3.5,15.6,8.6,23.8,11.9c6.8,2.7,12.3,8,19.3,9.8c0.2,0.1,0.4,0,0.6,0
				C1308.5,416.7,1308.3,417.3,1308.1,418z"/>
		</g>
	</g>
	<g>
		<path fill="#F05352" d="M1633.1,1280.6c0,0,91,323.7,96.1,348.3l42.6,10.1l-38.3-300.6c0,0-51.3-12.3-68.6-26.7
			C1647.6,1297.2,1633.1,1280.6,1633.1,1280.6z"/>
		<path fill="#F05352" d="M1841.9,1293.6l-23.8,363.4c0,0,43.4-5.8,49.9-10.1s23.8-323.7,23.8-323.7S1852.1,1293.6,1841.9,1293.6z"
			/>
		<path fill="#F05352" d="M1979.9,1482.9c0,0-26.7,133.7-32.5,138s-44.1,15.9-43.4,12.3s39-195.8,39-195.8L1979.9,1482.9z"/>
		<path fill="#EF373B" d="M2034.9,1461.2c0,0-46.2,133.7-48.4,142.3c-2.2,8.7-39,17.3-39,17.3l31.1-135.1
			C1978.5,1485.8,2027.6,1461.2,2034.9,1461.2z"/>
		<path fill="#EF373B" d="M1891.8,1323.2l-23.8,323.7l26.7-12.3c0,0,57.1-342.5,57.1-365.6L1891.8,1323.2z"/>
		<path fill="#EF373B" d="M1828.9,1256.7l-95.4,81.6c0,0,37.6,297,38.3,300.6c0.7,3.6,36.8,15.9,36.8,15.9S1834,1277,1828.9,1256.7z
			"/>
		<path fill="#F3776F" d="M1631.7,1273.3l81.6-169.8c0,0,18.8,91.8,23.1,142.3s-1.4,90.3-1.4,90.3S1660.6,1324.6,1631.7,1273.3z"/>
		<path fill="#F3776F" d="M1874.5,1132.5l-49.1,91l15.2,29.6l1.4,40.5c0,0,49.1,28.9,49.1,25.3s1.4-75.1-4.3-104
			C1881,1185.9,1883.8,1136.1,1874.5,1132.5z"/>
		<polygon fill="#F3776F" points="1946.7,1415 2019,1382.4 1977.8,1481.4 1942.4,1433.7 		"/>
		<path fill="#F05352" d="M2019,1382.4c0,0,27.5,65.8,24.6,66.5s-28.9,27.5-40.5,28.2s-25.3,4.3-25.3,4.3L2019,1382.4z"/>
		<path fill="#F05352" d="M1881,1152c0,0,66.5,116.3,65.8,119.2s-54.2,52-54.9,49.9S1877.3,1163.5,1881,1152z"/>
		<path fill="#F05352" d="M1715.5,1107.2c0,0,116.3,144.5,113.4,149.6s-52.7,49.9-56.4,52s-37.6,27.5-37.6,27.5
			s-1.4-136.6-9.4-175.6C1717.7,1121.6,1715.5,1107.2,1715.5,1107.2z"/>
		<g>
			<path fill="#881617" d="M2050.7,1407.2c-6-15.6-16.2-28.8-23.9-43.5c-0.6-1.2-2.3-2.2-3.7-2.1c-11,1-18.9,8.6-28.1,14
				c-8.2,4.7-16.3,9.5-24.4,14.3c-6,3.5-14.2,11.3-21.3,13.2c1.6-13,3.6-26,4.6-39.1c2.4-32.2,10.4-64.8,11.1-97.2c0,0,0,0,0.1,0
				c1.1,0.3,2.2,0.5,3.3,0.8c3.5,0.8,7.9-3.3,5.2-6.8c-9.3-12.1-21.2-22-30.3-34.4c-9.5-13-17.8-26.6-26.9-39.9
				c-8.7-12.6-17.8-25.2-25.5-38.4c-2.8-4.8-4.9-9.9-7.5-14.8c0.1-1.8,0.1-3.7,0.2-5.5c0.1-2.8-3-3.3-4.6-1.7
				c-1.6-2.2-3.5-4.3-5.7-6.1c-2.5-2-5.4-1.6-7.3,0.9c-11.9,16-20.5,34.2-32.9,50c-4.2,5.3-6.2,11.9-10.4,17.4
				c-3.1,4.2-6,9.2-8,14.1c-6.6-10.7-14.5-20.3-23.4-30c-7.2-7.8-12.3-17.1-19-25.3c-7.7-9.4-16.9-15.9-22.1-27.2
				c-4-8.6-8-16.6-14.3-23.8c-5-5.6-12.8-14-19.8-17c-9.8-4.2-16.7,16.2-20.5,21.6c-12,17.1-24.1,33.7-36.8,50.3
				c-5.5,7.2-9,15.5-12.2,23.9c-4.8,13-12.4,23.5-18.6,35.7c-8.6,17.1-22.3,36.9-25.4,56.1c-0.6,4.1,4.4,6,6.4,3
				c6.6,13.1,9.4,26,13,40.5c4.1,16.5,10.6,32.1,14.5,48.7c7.1,30.7,10.6,62.5,20.7,92.4c4.9,14.5,11.7,28.3,16.8,42.7
				c5.4,15.2,8.6,31.2,13.8,46.5c4.9,14.5,8.9,29.2,13.5,43.7c1.8,5.6,1.3,12.3,3.1,18.1c2.3,7.8,5.1,15,5.6,23.2
				c0.2,3.4,5,3.4,5.2,0c1.5-25.6-8.4-52.9-15.5-77.3c-9.3-32-19.3-63.2-31.5-94.2c-12.3-31.1-14.8-65.5-22.6-97.8
				c-4.1-16.6-9.4-32.4-14.4-48.7c-3.3-10.7-5.3-20.4-8.6-30.1c15.4,12.2,28.9,27.2,45,38.4c19.5,13.5,41.5,23.9,65.4,26
				c0.2,1,0.4,2.1,0.6,3.1c0.6,15.3,3,30.4,3,45.7c0,14.6,2.5,31.7,5.2,46c0.6,3,5.2,2.8,5.9,0c3-12.5-0.2-25.6-2.1-38.1
				c-2.9-18.8-4.7-37.9-6.1-57l0,0c4.1-1,7.3-3.4,11.1-6.8c10.1-8.9,19.4-18.9,29.4-27.9c10.9-9.9,21.6-21.2,33.3-30.1
				c6.1-4.6,14.5-10.7,18.5-17.4c3.1-5.2-5-9.9-8.1-4.7c-4.3,7.2-14.7,12.9-20.6,18.2c-7.2,6.3-14,12.9-21.3,19.2
				c-8.9,7.7-17.4,16-26.1,24c-3.2,2.9-6.1,6.1-9,9.2c-2.5,2.6-4.2,4.2-5.9,5.1c0.7-12.4-0.6-25.4-0.7-37.3
				c-0.1-10.3,3.5-26.9-4.3-35c-1.9-1.9-5.2,0-4.5,2.6l0.4,1.2c0.1,0.2,0.2,0.3,0.3,0.4c4.1,8.9,0.3,27.2,0.2,36.4
				c-0.1,10.4-1.1,21.6-0.5,32.4c-0.6-0.1-1.2-0.1-1.9-0.2c-26.2-2.9-48.3-15.1-68.6-31.7c-15.8-13-29.6-29-47.3-39.4
				c-0.3-0.2-0.5-0.2-0.8-0.3c5.8-13.6,14-26.6,20.6-39.6c8.8-17.4,17.5-33.7,25.3-51.7c3.8-8.7,10.1-16.2,16.4-23
				c7-7.5,11.7-16.7,18-24.7c3.9-4.8,6.8-10,10-15.3c1.4-2.3,3.1-5.9,5-8.9c2.1,17.5,7.8,34.6,10.5,52.1c2,12.8,7.2,25.2,10.7,37.6
				c3.5,12.3,3.2,25.2,5.8,37.7c0.6,2.7,5.3,2.9,5.7,0c3.1-22.5-5.8-45.1-12.2-66.3c-6.5-21.4-10.9-44.4-14.4-66.6
				c1.6-0.3,3.2,0.3,5,2.4c6.4,7.6,13.5,12.3,18.6,21.4c4.3,7.7,6.9,15.7,12.5,22.6c5.7,7,12.6,12.1,18.1,19.5
				c5.5,7.4,10.4,15,16.6,22c11.1,12.7,22.4,25.7,29.1,41.2c2.4,5.5,5.1,9.9,9.4,14c2.6,2.5,8.7,10.9,12.2,17
				c-1.5,12.3-2.3,24.7-2.6,37.2c-2.8,0.9-2.9,5-0.1,5.9c-1.1,56.9,6.1,114.3-3.3,170.6c-2.2,13.3-2.4,26.6-4.1,39.9
				c-2.3,17.9,0.9,35.9-2.7,53.7c-2.7,13.2-4.5,28.2-6,41.7c-1.7,14.9-3.2,29.8-2.4,44.8c0.3,5.8,9.1,5.9,9,0
				c-0.2-13.4,2.5-26.2,2.3-39.5c-0.2-8.3,3.6-18.5,4.8-26.9c1.3-9.4,1.8-18.9,3.8-28.2c2.7-12.6-0.2-27.6,0.4-40.5
				c0.8-18.2,3.7-36.3,6.2-54.2c4.6-32.5,2.5-65.8,2-98.5c-0.3-20.2,0.4-40.7,0.2-61.1c14.7,3.9,27.3,15,39.3,24.6
				c1.8,1.4,3.7,2.5,5.6,3.3c0.1,2.6,0.2,5.3,0.3,7.9c0,0.3,0.1,0.5,0.2,0.8c-1.1,8.8-2.3,17.6-3,26.5c-1.6,18.7-2.2,37-6.1,55.5
				c-1.6,7.6-1.3,15.6-1.7,23.3c-0.5,10.7-3,20.6-3,31.4c0,18.6-9.2,36.3-2.5,54.8c0.8,2.1,3.6,2.1,4.3,0c2.6-7.2,2.2-14.2,2.2-21.9
				c0-9.5,3.8-18.3,4.4-27.7c1.2-20.5,1.4-42.7,5.5-62.8c3.2-15.4,4.8-31.8,4.5-47.5c-0.2-13.6,2.2-26.6,3.1-40
				c1.6-0.5,3.1-1.2,4.6-2.5c11-9.8,20.9-21,32-30.8c6-5.3,19.7-14.1,16.2-23.6c-0.7-1.8-3-2.3-4.1-0.5
				c-11.1,18.6-32,31.1-46.4,47.1c-0.6,0.6-1.2,1-2,1.3c0-2.7-0.1-5.5-0.4-8.2c-0.1-1.2-0.8-1.9-1.7-2.3c-0.6-10.9-1.8-21.7-3-32.6
				c-0.3-2.8-4.5-2.9-4.4,0c0.5,9.3,1.6,18.1,1.3,27.5c-0.1,4.9-0.3,9.9-0.4,14.9c-10.6-4-24.6-16.5-28-19c-5.9-4.4-11-6.4-17.1-7.1
				c-0.2-9.8-0.6-19.5-1.5-29.2c2.8,0.6,6.2-1.6,5.2-5.2c-3.8-14.4-18.6-25-24.9-38.3c-1-2.1-2.1-3.9-3.2-5.9c0.1,0,0.2,0,0.4,0
				c2.4,0.1,3.6-1.9,3.5-3.9c17.9-23.7,31-50.9,48.1-75.2c2.2,2.6,4,5.6,5.7,8.7c-1.9,15.7-1.1,31.5,0.6,47.3
				c2.1,19.6,9.8,39.5,5.4,59.1c-0.7,3.1,3.7,5.2,5.2,2.2c8.1-15.2,1-32.6-2.3-48.2c-3.4-15.8-3.2-31.8-2.5-47.8
				c0.8,1.7,1.7,3.3,2.6,4.9c7.7,13.3,17.3,25.9,26,38.6c8.1,11.8,15.5,24.1,24,35.7c6.9,9.4,15.3,17.4,23,26
				c-2.5,33.7-8.1,67.5-12.5,101c-3.1,23.9-5.9,47.8-8.9,71.7c-0.1,0.1-0.2,0.2-0.3,0.4c-0.9,1-0.7,2.2-0.1,3
				c-1.1,8.7-2.3,17.5-3.5,26.2c-2.4,17.5-6.3,34.7-8.7,52.2c-2,14.5-3.1,30.3-6.3,44.6c-2.8,12.6-8,24.2-9.3,37.4
				c-1.3,13.4-3.6,26.3-7,39.1c-14.9-0.6-27.2,9.4-40.6,14.7c-16,6.3-35.1,10.5-51.4,3.7c-28.2-11.7-57.7-26.9-88.8-23.5
				c-2.9,0.3-2.9,4.3,0,4.5c15.7,1.4,29.7,3.2,44.4,9.1c16.2,6.4,33.6,12.8,49.2,20.5c9.8,4.9,23.3,0.1,33.2-2.3
				c17.7-4.2,34.3-16.4,52-19.2c-0.1,0.2-0.1,0.4-0.2,0.6c-2.1,5.6,7,8.1,9,2.5c0.5-1.5,0.9-2.9,1.4-4.3c9.8-6,22.5-8.7,33.3-11.3
				c5.2-1.2,9.4-3.6,13.8-6.7c4.7-3.3,16.7-6.6,22-8.8c5.3-2.2,16.5-2.5,21.2-7.1c4.8-4.8,6.6-16.6,8.4-22.8
				c0.9-3.3,1.1-6.3,1.5-9.7c0.9-8.7,4.3-13.2,7.9-20.6c5.5-11.3,9.1-23.6,11.7-35.9c2.9-13.4,6.2-22.8,14.2-34.1
				c3.9-5.6,7.2-15.7,7.2-22.6c0-2.1-2.6-2.6-3.7-1c-9.7,14-19.1,29.8-23,46.6c-2.7,11.6-5.1,22.9-9.2,34.1
				c-3.3,9.2-12.1,19-12.6,29c-0.5,9.9-2.5,31.9-15.9,33.5c-9.6,1.2-18.6,7.8-28,10.2c-3.2,0.8-6.9,4.2-9.5,6
				c-5.4,3.9-14.6,4.7-21,6.6c-5.5,1.7-11.1,4-16.1,7c2.3-8.6,3.7-17,5.2-26.5c2.3-14.6,2.6-29.2,8.4-43c5.2-12.5,4.9-28.6,6.9-42.1
				c2.9-19.4,6.4-38.7,9.4-58.1c1-6.2,1.9-12.5,2.8-18.8c6.1,10.3,15.9,25.5,18,27.9c3.9,4.3,6.9,10.4,11.1,14.2
				c-3,10.9-4.9,22.2-7.4,33.3c-2.7,11.6-6.6,22.9-9.8,34.3c-0.9,3.2-2.4,23.2-4.6,24.4c-1.8,1-0.8,3.4,1,3.5
				c0.6,0.1,1.2,0.1,1.8,0.2c1.1,0.1,2-0.8,2.4-1.8c10.5-29.2,15.7-60.4,23.1-90.6c0.9,0.2,1.9,0.4,2.9,0.3c4-0.1,11.3-2.8,14.7-4.9
				c7.3-4.7,15.6-6,23-10.3c11.6-6.7,22.1-20.3,35.2-24.1c1.4-0.4,2.1-1.8,2-3.1c2.5,0.9,5.8-0.4,5.9-4
				C2064.2,1430.3,2054.8,1418,2050.7,1407.2z M2040.6,1449.4c-11.8,8.4-23.3,17.9-37.6,21.2c-5.6,1.3-11.2,6.7-17,8.7
				c-1.2,0.4-2.3,0.3-3.4,0c1-3.6,1.9-7.2,3-10.8c0.9-3-3.7-5-5.1-2.1c-1.4,2.9-2.5,5.9-3.6,8.9c-2.2-2.5-4.1-5.3-5.6-7
				c-10.4-11.3-17-24.2-25.1-37c0.4-3.3,0.7-6.6,1-9.8c0.3-4.2,0.8-8.5,1.3-12.7c0.1,0,0.2,0.1,0.3,0.1c9.4-0.3,17.9-7.4,25.7-12.1
				c11.9-7.3,24.7-13.1,36.1-21.2c3.7-2.6,6.3-3.3,8.5-2.8c-0.1,0.2-0.2,0.4-0.3,0.7c-0.9,4.4-3.7,7.8-5.2,12
				c-2.7,7.4-5,14.8-8.1,22.1c-4.8,11.5-12.3,26.4-11.8,39c0.1,1.6,2.3,2.9,3.4,1.4c7.5-9.6,8.7-23.1,13.1-34.4
				c2.9-7.3,5.7-14.5,8-22c1.6-5.2,5.1-9.7,5.5-14.9c1.1,1.5,2.2,3.4,3.4,5.5c3.8,6.2,7.6,12.2,11,18.6c3.4,6.4,5.6,13.7,8.6,20.4
				c2.8,6.3,8,14.2,8.4,21.3c0,0.5,0.2,1,0.4,1.4C2049.8,1442.7,2045.4,1446.1,2040.6,1449.4z"/>
			<path fill="#881617" d="M1755.8,1494.7l-0.5-18.4c-0.1-3-4.6-3-4.7,0c-0.2,5.4-0.3,10.7-0.5,16.1c-0.1,4.8-1.4,10.5,1.3,14.6
				c0.7,1.1,2.3,1.1,3,0C1756.9,1503.4,1756,1499,1755.8,1494.7z"/>
			<path fill="#881617" d="M1872.3,1561.6c-0.2-2.9-4.2-2.9-4.5,0c-1.9,21.6-4.7,47.6-0.3,68.9c0.5,2.5,4.5,2.5,5.1,0
				C1877,1609.2,1874.2,1583.2,1872.3,1561.6z"/>
		</g>
	</g>
	<g>
		<path fill="#98B4A2" d="M1327.3,740.5c0,0,8.7-59.6,13-67.2s50.9-33.6,50.9-33.6l39,35.8l-9.8,53.1c0,0-21.7-4.3-39,3.3
			C1364.1,739.4,1335.9,742.6,1327.3,740.5z"/>
		<path fill="#98B4A2" d="M1431.3,629.9c-1.1-5.4,2.2-113.8,3.3-117.1c1.1-3.3,121.4-26,126.8-27.1c5.4-1.1,120.3,96.5,123.6,104
			c3.3,7.6,1.1,120.3,1.1,120.3l-2.2,27.1c0,0-139.8,5.4-149.6,3.3c-9.8-2.2,0-19.5,0-19.5s-29.3-40.1-50.9-57.4
			C1461.6,646.2,1431.3,629.9,1431.3,629.9z"/>
		<path fill="#98B4A2" d="M1718.5,729.6c0,0,114.9-56.4,124.6-71.5c9.8-15.2,11.9-41.2,11.9-41.2l36.8-11.9c0,0,58.5,40.1,79.1,47.7
			c20.6,7.6,53.1,28.2,53.1,28.2s-17.3,17.3-16.3,26c1.1,8.7,4.3,26,4.3,26s-26,6.5-54.2,3.3c-28.2-3.3-58.5-8.7-97.5-7.6
			C1821.5,729.6,1702.3,749.1,1718.5,729.6z"/>
		<path fill="#98B4A2" d="M2029.6,673.3l-14.1,29.3l-1.1,23.8c0,0,47.7,1.1,50.9,1.1c3.3,0,74.8-3.3,74.8-3.3l-17.3-36.8
			C2122.8,687.4,2036.1,674.4,2029.6,673.3z"/>
		<path fill="#98B4A2" d="M2024.1,596.3c1.1-4.3,13-29.3,13-29.3s-15.2-33.6-33.6-49.9c-18.4-16.3-35.8-48.8-35.8-48.8l-44.4,56.4
			l-16.3,27.1l22.8,4.3l-1.1,7.6c0,0,44.4,23.8,54.2,23.8C1992.7,587.7,2024.1,596.3,2024.1,596.3z"/>
		<path fill="#7F9889" d="M1418.3,732.9c0,0-40.1,11.9-50.9,14.1s-29.3,9.8-29.3,9.8l72.6,10.8
			C1410.7,767.6,1417.2,741.6,1418.3,732.9z"/>
		<path fill="#7F9889" d="M1417.2,756.7c-4.3-0.4,21.7-125.7,21.7-125.7l44.4,32.5c0,0,31.4,28.2,37.9,34.7s14.1,31.4,14.1,31.4
			s-8.7,13-33.6,13S1428.1,757.8,1417.2,756.7z"/>
		<path fill="#7F9889" d="M1683.8,737.2l3.3-170.2c0,0-44.4-45.5-60.7-57.4s-56.4-36.8-56.4-36.8s56.4-66.1,57.4-73.7
			c1.1-7.6,7.6-14.1,7.6-14.1s106.2,40.1,118.1,48.8c11.9,8.7,33.6,41.2,36.8,52c3.3,10.8,20.6,22.8,20.6,22.8l58.5,45.5
			c0,0-7.6,26-10.8,42.3c-3.3,16.3-6.5,47.7-6.5,54.2S1815,682,1803,687.4C1791.1,692.8,1710.9,732.9,1683.8,737.2z"/>
		<path fill="#7F9889" d="M1852.9,609.3l17.3-47.7l54.2-1.1l-5.4,11.9c0,0,36.8,21.7,57.4,24.9s40.1,14.1,53.1,22.8
			c13,8.7,33.6,16.3,33.6,16.3s-5.4,20.6-11.9,29.3c-6.5,8.7-10.8,6.5-10.8,6.5l-22.8-6.5c0,0-50.9-35.8-75.9-46.6
			s-34.7-20.6-37.9-20.6c-3.3,0-48.8,18.4-48.8,18.4L1852.9,609.3z"/>
		<path fill="#7F9889" d="M2024.1,596.3l13-29.3c0,0,63.9,6.5,67.2,13c3.3,6.5,2.2,56.4,2.2,56.4l-48.8-10.8
			C2057.7,625.6,2028.5,597.4,2024.1,596.3z"/>
		<path fill="#B7C8B9" d="M1391.2,639.7c0-4.3,4.3-118.1,0-146.3s-3.3-65-3.3-65s80.2-4.3,126.8-11.9
			c46.6-7.6,112.7-21.7,112.7-21.7s-23.8,36.8-31.4,48.8c-7.6,11.9-26,29.3-26,29.3l-131.1,21.7l-6.5,14.1c0,0,1.1,40.1,1.1,53.1
			c0,13,2.2,40.1,2.2,40.1l1.1,40.1l-6.5,33.6L1389,644"/>
		<path fill="#B7C8B9" d="M1642.6,385c0,0,79.1-130.1,84.5-131.1c5.4-1.1,81.3,11.9,107.3,19.5c26,7.6,71.5,10.8,71.5,10.8l4.3,14.1
			c0,0,66.1,16.3,75.9,18.4s20.6,8.7,24.9,11.9s22.8,56.4,28.2,72.6c5.4,16.3,8.7,39,8.7,39s8.7,45.5,14.1,57.4s6.5,35.8,9.8,36.8
			s37.9,8.7,37.9,8.7l10.8,30.3c0,0-16.3-9.8-32.5-10.8c-16.3-1.1-44.4-2.2-44.4-2.2s-28.2-54.2-44.4-70.4
			c-16.3-16.3-26-34.7-26-34.7s-29.3,54.2-41.2,65c-11.9,10.8-29.3,33.6-29.3,33.6h-33.6c0,0,6.5-15.2-19.5-22.8
			c-26-7.6-39-24.9-55.3-44.4c-16.3-19.5-32.5-39-41.2-53.1S1664.3,394.7,1642.6,385z"/>
		<path fill="#B7C8B9" d="M2063.2,636.4c0,0,93.2,20.6,100.8,27.1c7.6,6.5,19.5,27.1,19.5,27.1l-43.4,33.6l-17.3-36.8
			c0,0-81.3-11.9-82.4-15.2C2039.3,668.9,2062.1,652.7,2063.2,636.4z"/>
		<g>
			<path fill="#2F3F38" d="M1800.4,556.5c-16-2-34.2,2.7-50.1,5.3c-17.5,2.9-34.8,5.6-52.5,5.3c-0.7-0.8-2-1.3-3-0.6
				c-0.6,0.4-1.2,0.7-1.8,1.1c-2.5,1.5-1.8,5,0.8,5.9c14.3,4.8,33.3,1,48-1.4c19.7-3.2,40.1-4.3,59.6-8.6
				C1805.5,562.5,1804,557,1800.4,556.5z"/>
			<path fill="#2F3F38" d="M1854.9,545.1c-4.4-2.9-10.2-1-15.1,0c-6.3,1.3-12.5,2.6-18.9,3.6c-3.5,0.5-2.3,5.5,0.8,5.8
				c5.4,0.5,10.6-0.5,15.9-1.5c5.4-1,12.8-0.4,17.3-3.5C1856.5,548.4,1856.6,546.2,1854.9,545.1z"/>
			<path fill="#2F3F38" d="M2197.6,677.2c-2.4,0.7-4.6,1.8-6.9,3c-1-10.7-13.8-21-24.8-19.7c-7.2,0.9-11,5.1-16.1,9.8
				c-4.6,4.3-8.8,8.9-14.1,12.3c-3.6,2.4-6,3.8-8.5,6.7c-0.2-0.3-0.3-0.6-0.5-0.8c-1.8-3.3-6.6-0.4-5,2.9c4,8.2,9,15.8,10.2,25
				c0.5,3.9,5.6,4,6.1,0c0.9-7.5-3.7-15.2-7.9-22.1c9.8-5,16.8-11.5,24.9-18.8c4.4-4,9-8.4,15.5-6.2c6.8,2.2,13.5,5,14.8,12.8
				c0.1,0.4,0.2,0.8,0.4,1c-8.6,6.2-16.4,15-23.8,21.3c-6.1,5.2-16.2,18.6-24.6,19.3c-10.5,0.8-21.4,0-31.9,0
				c-19.9,0.1-39.4,0.4-59.2-1.1c-9.1-0.7-19.5-2.1-28.3,0.5c0-0.2,0-0.5,0-0.7c-0.3-8.8-0.3-17.4,3.6-25.6
				c3.4-7.2,10.3-13.4,12.7-20.9c1.1,0.1,2.3,0.2,3.4,0.3c0,1.3,0.1,2.6,0.5,3.9c0.7,2.4,4.2,3,5.4,0.7c0.7-1.2,1.5-2.5,2.3-3.7
				c8.8,0.9,17.5,2.2,26.5,4.4c14.9,3.6,29.7,7.6,44.5,11.7c3,0.8,5.7-3.2,3.1-5.4c-3.2-2.7-6.2-5.5-10.7-5.7
				c-10.3-0.6-19.4-5.3-29.6-7c-10.4-1.7-19.8-3.4-29.4-4.3c7.9-10.9,17.6-22.8,17.4-35.4c-0.1-5.4-0.8-10.2-5.9-13.1
				c-9.6-5.7-17.1-11.9-25.9-18.7c-1.7-1.3-3.5-2.5-5.3-3.7c2.6-7.6,5.2-14.8,9.8-21.6c1.8-2.6,4.4-6.5,5.8-10.2
				c9.6,0.2,19.2,0.3,28.8,0.7c6.5,0.3,37.3,3.1,38.5,12.6c1.2,10-0.1,20.8,0,30.9c0,7,0.8,14.3,0.6,21.5c-13.6-2-27.1-3.9-40.2-7.9
				c-3.2-1-4.3,3.7-1.4,4.9c12.8,5.1,26.1,7.5,39.5,9.9c-0.4,1.3-0.1,2.7,0.9,3.8l1.5,1.6c2.2,2.3,6.3,1.2,7-1.9
				c0.1-0.6,0.2-1.2,0.3-1.8c15.2,2.7,33.3,5.5,45.6,15.1c1.4,1.1,3.9,0.6,3.8-1.6c-0.8-13-16.5-14.3-26.7-16.8
				c-7.1-1.7-14.4-3-21.6-4.1c0.6-9.2-0.6-18.9-0.6-27.9c0-9.8,3.2-25-2-33.9c-4.6-7.8-19.4-8.6-27-10.3c-15.1-3.4-30.8-3-46.3-2.4
				c-0.4-1.8-1.2-3.4-2.1-5.1c0.7-0.6,0.9-1.5,0.7-2.3c10-6,20.9-11.2,29.6-18.8c0.9-0.8,1-1.8,0.7-2.7c0.5-0.6,1-1.4,1.4-2.1
				c-0.3,1.3,0.5,3,2.4,3.2c7.1,0.9,13.9,2.6,20.9,4.1c2.9,0.6,6,1.3,8.9,1.2c0.6,5.5,1.4,11,3,16.3c1.7,5.7,4.6,13.1,8.4,17.6
				c1,1.1,2.7,0.4,3.1-0.8c1.8-5.2-2-10.4-4.3-14.9c-3.1-6.1-4.3-12.7-5.3-19.4c0.2-0.1,0.3-0.1,0.5-0.2c1.6-1,1.6-3.3,0-4.2
				c-4.9-3-11.8-2.3-17.4-3.2c-5.9-0.9-11.9-1.8-18-1.5c-0.7,0-1.3,0.3-1.7,0.7c3.4-6.7,2.6-15.3,1.6-22.7
				c-3.1-22.3-11.5-43.5-14.3-66.1c1.3-1.2,2-3.1,1.1-5.2c-9.2-21.2-13.7-45.4-20.2-67.8c-3.6-12.1-6.7-24.4-11.4-36.1
				c-2.1-5.2-0.9-11.8-6.6-15c-17.9-9.9-39.6-18.8-59.7-22.7c-13.6-2.7-27-6.2-40.4-9.8c-1.8-0.5-13-2.2-21-4.3
				c-0.1-0.3-0.2-0.6-0.3-1c-0.1-0.3-3.6-5.2-5.7-7.2c0-1.2-0.5-2.5-1.5-3.4c-0.7-1.7-2.8-2.6-4.6-1.5c-18.5-1.5-36.9-4.8-55-8.7
				c-16.3-3.6-32.1-9.6-48.4-13.7c-15.4-3.9-30.9-7.1-46.7-8.8c-7.5-0.8-22.3-3.3-28.7,2.9c-8.9,8.6-15.4,21.3-22.6,31.3
				c-9.9,13.9-18.3,29-27.8,43.2c-8.1,12.2-13.2,27.3-20.4,40.1c-4.2,7.5-8.3,15.9-10.3,24.5c-0.9-0.3-1.9-0.3-3,0.2
				c-0.5,0.2-1,0.4-1.4,0.6c-0.1,0-0.2,0-0.3,0c-1.4,0-2.4,0.6-3,1.4c-23,10.1-48.3,12.7-72.9,15.9c-27.8,3.7-55.3,7.1-83.3,8.5
				c-13.1,0.7-25.8,3.9-39.1,4c-14.3,0.1-28.5,1.7-42.8,2.1c-12.2,0.3-31.6-4.2-24.7,13.9c0.5,1.2,2.1,13.6,2.6,16.7
				c1.2,7.1,3.6,12.7,3.5,20.3c0,3.4,2.4,7.6,2.6,10.9c0.3,5.1-0.8,9.9,0.1,15.1c5.2,28.4,1.5,60,1.5,88.8c0,13.7,0,27.4,0.2,41.1
				c0.1,5.2-3.2,10.8-1.8,15.9c-5.3,3.2-10.3,7-14.8,10c-10.9,7.4-23.9,11.4-34,20.5c-7,6.3-4.3,22.6-6.1,31.2
				c-3.6,16.6-5.3,33.8-9.5,50.2c-0.6,2.3,0.7,4.7,3,5.3c18.3,4.9,41.7-3.9,59.1-9.3c16-5,28.9-8.7,45.2-7.7
				c-0.5,2.3-0.8,4.7-0.6,7.4c0.2,5.8-2.2,11.1-2.5,16.9c-0.1,1.6-0.3,2.8-0.6,3.9c-1.2,1.2-2.3,2.6-3.1,4.3
				c-2.7,1.5-6.5,1.3-10.8,0.4c-10.9-2.3-24.4-2.2-35.7-2.9c-16.4-1.1-31.5-8.7-47.8-8.9c-3.1,0-3.9,4.9-0.7,5.4
				c14.6,2.4,28,8.2,42.7,10.1c16.7,2.1,33.8,2.8,50.2,6c6.1,1.2,12.8-3.4,13.4-9.7c0.1-0.9,0.2-1.8,0.3-2.7
				c9.4-4.1,22.6-5.4,30.6-7.8c17-4.9,34.2-6.6,51.5-9.1c5.8-0.9,13.7-2,20.5-4.4c0.6,0.3,1.4,0.5,2.3,0.5c6-0.2,17,1.9,22.6,3
				c11.6,2.2,23.3,1.3,35,3c9.6,1.4,18.7,2.9,28.4,2.2c12.7-0.8,24.8-3.8,37.7-3.8c5.9,0,22.6,3.4,31.4-0.4c0.7,0.4,1.5,0.7,2.6,0.7
				c4.8-0.1,9.3-1,13.8-2.2c1.4,0.6,3.1,0.3,4-1.2c2.6-0.8,5.1-1.8,7.6-2.9c9.1-0.5,24.1,0.9,26.2,0.9c14.8-0.1,30.2-2,45.1-2.8
				c30.8-1.7,61.4-4.2,92.2-5.9c30.1-1.7,60.9,1,90.4,7.2c15.1,3.2,43.9,6.3,54.4-8.2c13.8-5.9,36,1.9,49.5,1.9
				c19.2,0,38.5-0.3,57.7-0.3c11.6,0,19.9,1.2,28.4-7.2c6.4-6.4,13.2-12.4,20.2-18.3c7.9-6.7,17.5-18.3,27.3-21.7
				C2205.3,683.9,2203.1,675.6,2197.6,677.2z M2046.5,624.3c1.7,1.5,3.7,2.7,5.7,3.5c8.2,3.1,6.1,11.1,3.4,17.3
				c-3.4,7.9-12.9,16.2-16.5,25c-1.6,0-3.3,0-4.9,0c-5.1-10.5-34.2-23.2-40.1-27c-11.5-7.4-24.1-12.3-35.6-20
				c-12.5-8.5-28.2-11.1-39.5-20.9c-1.8-1.6-4.4-3-7-4c0-0.4-0.2-0.7-0.4-1.1c1.1-1.3,2.3-2.5,2.6-3.9c1.1-4.6,3.7-8.4,6.2-12.4
				c2.9-4.6,6.7-8.8,10-13.2c5.5,2.3,10.9,5.9,15.3,8.8c7.4,4.8,16.6,7.6,24.8,10.5c19,6.8,39,10.5,56.5,21
				C2034.4,612.3,2040.1,618.8,2046.5,624.3z M2036.8,566.9c-2.2,5.3-7,11.4-8.7,14.3c-2.4,4.3-3.9,9.2-5.2,14
				c-14.2-7.1-30.7-11.2-45.4-15.1c-11.9-3.2-24-8.6-34.6-14.7c-2.7-1.5-5.6-3-8.6-4.1c0.4-0.8,0.8-1.7,1.2-2.5
				c0.2-0.4,0.2-0.8,0.2-1.2c1.9-4.2-5.6-7.8-9.6-8.2c-4.1-0.4-8.5-0.6-12.8-0.5c6.9-10.5,15.1-20.1,22.3-30.4
				c8.8-12.4,15.3-25.2,25.3-37c3.9-4.6,9.5-10,12.7-16c8.4,7,14.7,20.4,20.8,28.9c8.9,12.4,18,24.5,26.5,37.2
				c6.3,9.5,10.6,19,16.5,28.7c0.2,0.3,0.2,0.6,0.2,0.9C2035.2,562.2,2035,565.4,2036.8,566.9z M2065.7,486.1
				c4,15.8,5.6,27.4,4.4,43.3c-4.4,0.8-8.2,5.4-11.8,7.6c-5.9,3.8-11.9,7.2-17.4,11.5c-2.2-5.1-2.8-9.5-6.9-14.1
				c-13.2-14.6-23.9-33.1-35.6-49c-5.1-6.9-10.7-18.7-18.6-24.4c13-7,27.7-7.3,42.3-10.9c7.8-1.9,15.3-3.5,23.5-3.4
				c6.2,0.1,9.5,0.1,14.1-2.3C2059.7,458.4,2062.3,472.4,2065.7,486.1z M1919.9,288c13.7,3.9,27.2,8,41.1,11.1
				c15.4,3.4,28.3,8.5,42.6,15c10.8,4.9,19.7,6,22.7,18.6c3.4,14,8.6,28,12.7,41.8c6.1,20.9,9.2,44.7,19.4,63.7
				c-27.1,4.4-59,2.9-82.6,18.5c0.3-12.5-4.9-24.5-8.1-36.4c-7.2-26.9-23.6-52.2-35.3-77.4c-6.8-14.7-13.6-29.5-19-44.8
				c-1.4-4-2.8-8-4.2-11.9C1913.4,286.8,1917.4,287.3,1919.9,288z M1654.4,352.1c6.7-11.8,11.9-24.2,18.5-35.9
				c13.1-23.4,30.8-44,44.4-67.1c7.5-12.7,37.2-4.5,47.6-2.5c16,3,31.9,7.3,47.6,11.6c6.9,1.9,12.2,5.2,19.4,6.6
				c7.6,1.5,15.2,3.2,22.8,4.8c12.7,2.7,26.1,4.4,39.1,5.2c0.1,0.2,0.2,0.4,0.3,0.5c-0.1,3.2,1.4,5.5,3.9,7.1
				c8.8,17.4,14.5,37.5,22.1,55.3c10.8,25.2,24.3,49.3,34.7,74.6c4.8,11.5,7.7,24.7,10.6,36.7c3.4,14.3-16.8,31-24.7,41.1
				c-7.4,9.5-11.8,20.9-19.2,30.5c-6.6,8.6-13.2,17-18.8,26.2c-0.5,0.8-0.7,1.6-0.7,2.3c-7.8,0.5-15.5,1.2-22.7,1.9
				c-3.4,0.3-3.4,5,0,5.2c10.7,0.9,21.6,1.4,32.3,1c5.4-0.2,10.3-0.3,15.2,0.9c-0.3,0.3-0.6,0.7-1,1c-1.1-0.1-2.2-0.3-3.3-0.2l0,0.1
				c-3.1-0.1-4,4.2-1.4,5.7c-3.4,4.8-6.4,10.1-9,14.5c-2.6,4.3-3.5,8.7-5.6,13.1c-0.4,0.8-0.8,1.5-1.1,2.1c-7.9-0.9-16.6,2-23.6,4.9
				c-7.6,3.1-15.4,6.6-22.2,11.2c2.7-13.4,7.1-27,11.2-39.6c2.6-8.1,5.1-20.7,0.5-28.6c-3.3-5.6-14.1-9.8-19.5-12.7
				c-14-7.7-29-16.8-41.6-26.8c-11.2-8.9-19.9-26.8-27.8-38.7c-7.8-11.7-15.7-22.6-25-33.2c-6.6-7.6-16-9-23.9-14.7
				c-6.5-4.6-5.6-1.6-14.1-5.2c-6.7-2.8-12.6-6.6-19.5-9.1c-14.3-5.1-30-10.5-43.7-16.9c-4.7-2.2-10-4.6-15.3-6.2
				C1644,369.6,1649.7,360.4,1654.4,352.1z M1420.1,722.5c-0.6,0.9-1.1,1.8-1.5,2.7c-6.3-3.6-21.7-1.7-25.2-1.4
				c-11.5,0.9-23.5,7.6-34.7,10.7c-11.4,3.1-28,8.5-40.7,7c2.6-11.4,4.4-23.2,6.5-34.7c1.4-7.6,2.8-15.2,4.3-22.7
				c0.6-3.1-0.1-14.6,2.8-16.4c15.9-9.7,31.8-19.2,46.9-30.1c4.9,3.4,9,7.3,13.7,11c9.9,7.8,21,14.6,29,24.4
				c2.2,2.7,6.8-0.8,4.9-3.8c-4.6-7.1-11.2-12.6-17.6-18.1c-2.5-2.2-5.4-4-8.1-5.9c-4.7-3.3-8.6-9-13.4-11.9
				c-0.6-0.4-1.1-0.7-1.6-0.9c1.1-0.9,2.3-1.7,3.4-2.6c2-1.6-0.2-4.4-2.3-4c-1.9,0.4-3.8,1.1-5.7,1.9c-0.1-1,0.1-2.4,0.5-4.3
				c1-4.7,1.3-8.5,1.3-13.5c-0.1-13.7,0.1-27.4,0.1-41.1c0-25.1,1.3-50.7-0.4-75.7c-1.2-18.8-2-37.6-7.9-55.6
				c0-0.1-1.9-12.8-2.5-16.1c15.5,3.1,28,26.3,36.7,37c7,8.7,16.2,16.2,22.3,25.5c0.3,0.5,3.1,4.7,5.7,8.8c-0.4,0.2-0.9,0.4-1.3,0.6
				c-8.7,5.1-5.8,18.5-5.5,26.5c0.6,17.1-1.4,33.7-2.1,50.7c-0.7,18.3,0.8,36.6,1.9,54.8c1.2,18.2-1.2,37.4-3,55.6
				C1425.2,694.9,1420,708.6,1420.1,722.5z M1506.3,737.2c-14.8,3.7-30.2,4.3-45,7.8c-12.3,2.9-24,7.7-36.4,10.1
				c-1.2,0.2-2.4,0.5-3.5,0.8c1.3-12,3.1-23.7,6.7-35.3c0.1-0.3,0.1-0.6,0.1-0.9c0.6-1.3,1.1-2.6,1.1-3.8c0-9.8,2.5-19,4.3-28.5
				c2.8-14.5,2.4-29.7,4.2-44.3c0.2-1.5,0.3-2.9,0.4-4.4c4.5,4.9,9.1,9.7,15.4,12.3c10,4.1,15.7,12.7,25.5,17
				c21,9.2,36.3,29.7,47.7,49.4C1535.4,732.2,1516.2,734.7,1506.3,737.2z M1681.6,652.3c-1.5,21.1-3.8,41.4-2.8,62.6
				c0.5,10,1.6,22.3-10.4,21.3c-9.9-0.8-20.1-0.5-30-0.3c-11,0.2-21.4,3.4-32.3,4.1c-10.7,0.7-21.8-2.6-32.5-3.7
				c-9-0.9-19.5-2.4-28.4-2.4c-3.3,0-6.4-0.6-9.5-1.1c2-2.8,3-6.1,2.7-10.3c-0.5-6.6-7.1-15.9-11.1-20.8c-8.1-10-15.6-20.7-24.5-30
				c-9-9.5-22.6-10.4-31.6-19.8c-3.1-3.3-6.5-5.3-10.6-7.2c-8.3-3.7-13.3-8.7-19.4-15.1c-0.9-1-2-1.3-3-1.3
				c-0.3-12.1-2.1-24.4-2.2-36.3c-0.2-16.5,1.8-32.6,2.3-49c0.3-8.4-4.3-33.9,2.9-41.4c0.9,3.6,6.5,3,7.1-1.1c0.1-0.6,0-1.1,0.1-1.7
				c14.5-3,29-5.6,43.5-8.7c16.2-3.4,31.2-9.8,47.8-11c10.9-0.8,20.7-2.1,29.9-8.7c3-2.1,2.6-6.4-1-7.6c-0.5-0.2-0.9-0.3-1.4-0.5
				c-2.6-0.9-4.4,0.8-4.9,2.8c-12.6,7.2-27.8,6.3-41.8,7.8c-11.2,1.2-20.3,9-31.2,11.8c-23.8,6-51.2-0.5-68-18.8
				c-0.3-0.4-0.7-0.7-1-1.1c-7.7-8.8-13-19.5-20-28.9c-7-9.4-16.7-17.8-28.4-19.1c85.6-1.2,171.1-10.9,254.8-28.9
				c-12.3,23-27.3,45.1-43.9,65.3c-5.7,6.8-8.2,15.9-16.2,20.9c-3.6,2.3-0.4,7.8,3.4,5.7c1-0.5,1.8-1.1,2.7-1.7
				c4.1,7.1,16.3,12.2,21.9,16.1c18.7,12.9,35.9,25.6,51,42.7c12.7,14.4,38.1,29.8,37.7,50.2
				C1682.7,608.8,1683.2,630.7,1681.6,652.3z M1687,735.5c4-17.6,0.8-36.3,2.1-54.1c1.8-25.6,3.4-50.7,3.4-76.4
				c0-17,3.6-31-9.7-43.6c-16.8-15.8-31.5-33.9-48.5-49.5c-8-7.3-17.9-12.6-26.7-18.8c-4.2-2.9-28.5-15.4-29.5-20.2
				c1.3-1.6,2.5-3.4,3.8-5.5c5.6-9.3,12.6-17.6,18.3-26.9c6.2-10,15.8-17.3,21.8-27.1c4.9-8.2,8.4-17.4,12.2-26.3
				c1.2,1.4,3.9,1.5,4.7-0.3c6.1,1.9,12.2,5,17.4,7.5c11.2,5.4,23.7,8.8,35.2,13.7c9.2,4,19.3,10.6,28.9,13.3
				c8.3,2.3,24.3,10.5,30.3,16.4c18.2,17.8,30.5,42.3,45,63.1c5.7,8.2,12.8,13.2,21.4,18c10.3,5.7,19.1,13.8,29.8,19.4
				c11.8,6.2,17.9,9.8,15.6,24.6c-2,12.9-6.7,26.9-10.7,39.4c-4,12.8-3.4,25.7-6.2,38.6c-3.6,16-16,22-27.1,32.2
				c-10.5,9.7-23.3,15-36,21.1c-13.9,6.7-26.9,13.8-41.5,19.1C1723.5,719.5,1705.7,733.3,1687,735.5z M2015.9,688.6
				c-4.7,8-6.6,15.1-7.1,24.4c-0.2,4.3,0,8.6,0.2,12.9c0.1,2.6-13,5.5-14.8,6c-14.3,4.3-31-1.5-45.1-4.4
				c-21.6-4.3-43.9-3.6-65.8-4.1c-11.3-0.3-22.4,1.3-33.7,2c-13.6,0.8-27.1-0.2-40.7,1.3c-24.7,2.8-49.4,3.8-74.1,6.3
				c-2.2,0.2-6-0.1-10.5-0.4c6.4-3.3,12.8-6.7,19.4-9.3c26.5-10.4,56.2-21.9,78.5-39.9c8.6-6.9,22.1-14.9,27.8-24.7
				c7-12,6.2-24.9,8-38.3c0.1-0.7,0.3-1.4,0.4-2.1c0.4,0,0.8-0.1,1.2-0.4c7.1-4.1,14.9-6.5,22.3-9.9c6-2.7,12.2-3.3,18.3-4.4
				c0.1,0.7,0.2,1.4,0.4,2.2c1.1,4.4,8.7,3.4,7.8-1.1c16.3,14.4,36.4,20.4,54.1,32.3c8.6,5.8,18.2,9,27,14.2
				c9.9,5.9,19.8,12.1,29.6,18.3C2026.8,674.7,2019.2,682.9,2015.9,688.6z"/>
		</g>
	</g>
	<g>
		<path fill="#9B8579" d="M848.3,1404.8c0,0-70.4,80.2-70.4,87.8s1.1,107.3,4.3,120.3c3.3,13,35.8,42.3,43.4,42.3s246,2.2,250.4-2.2
			c4.3-4.3-27.1-75.9-27.1-75.9L1038,1536c0,0-47.7-17.3-76.9-34.7C931.8,1484,852.6,1415.7,848.3,1404.8z"/>
		<path fill="#9B8579" d="M1196.2,1253.1c0,0-91-1.1-99.7,2.2c-8.7,3.3-40.1,47.7-43.4,54.2c-3.3,6.5-9.8,215.7-9.8,223.3
			c0,7.6,22.8,118.1,32.5,120.3c9.8,2.2,129-63.9,140.9-72.6c11.9-8.7,47.7-121.4,44.4-133.3c-3.3-11.9-43.4-57.4-47.7-72.6
			c-4.3-15.2-9.8-44.4-13-67.2c-3.3-22.8,0-53.1,0-53.1"/>
		<path fill="#9B8579" d="M1287.2,1339.8c0,0,59.6-5.4,75.9-14.1c16.3-8.7,65-26,65-26s1.1,20.6,19.5,33.6c18.4,13,52,48.8,52,48.8
			s-50.9,68.3-61.8,78c-10.8,9.8-21.7,8.7-33.6,7.6c-11.9-1.1-58.5-7.6-58.5-7.6s-3.3-45.5-14.1-54.2
			C1320.8,1397.3,1287.2,1339.8,1287.2,1339.8z"/>
		<path fill="#9B8579" d="M1384.8,1584.8c-3.2,1.2,165.8-2.2,172.3-4.3s39-34.7,39-34.7s-55.3-35.8-65-36.8
			C1521.3,1507.8,1405.4,1577.2,1384.8,1584.8z"/>
		<path fill="#89766B" d="M858.1,1415.7c0,0,5.4-96.5,9.8-118.1c4.3-21.7,37.9-61.8,43.4-66.1c5.4-4.3,101.9,23.8,107.3,27.1
			c5.4,3.3,27.1,42.3,27.1,42.3s7.6,63.9,2.2,81.3s-7.6,95.4-7.6,106.2s-2.2,47.7-2.2,47.7s-63.9-20.6-76.9-34.7
			c-13-14.1-59.6-55.3-68.3-59.6C884.1,1437.4,858.1,1415.7,858.1,1415.7z"/>
		<path fill="#89766B" d="M1200.5,1261.8c0,0,41.2,46.6,52,58.5c10.8,11.9,56.4,90,61.8,96.5c5.4,6.5,18.4,36.8,16.3,54.2
			c-2.2,17.3-6.5,41.2-15.2,58.5s-52,88.9-52,88.9l-46.6-37.9c0,0,35.8-78,37.9-94.3c2.2-16.3,6.5-43.4,5.4-48.8
			c-1.1-5.4-39-48.8-46.6-62.9C1206,1360.4,1193,1287.8,1200.5,1261.8z"/>
		<path fill="#89766B" d="M1499.7,1382.1c0,0,27.1,109.5,29.3,118.1s-125.7,83.5-144.1,84.5c-18.4,1.1-118.1,46.6-125.7,53.1
			c-7.6,6.5,23.8-48.8,30.3-63.9c6.5-15.2,45.5-69.4,49.9-80.2c4.3-10.8,6.5-33.6,6.5-33.6l83.5,6.5
			C1429.2,1466.6,1492.1,1389.7,1499.7,1382.1z"/>
		<path fill="#79685E" d="M1549.5,1582.6l46.6-36.8l31.4,32.5c0,0-45.5,46.6-53.1,50.9c-7.6,4.3-11.9,7.6-14.1,4.3
			C1558.2,1630.3,1549.5,1582.6,1549.5,1582.6z"/>
		<path fill="#79685E" d="M1259.1,1637.9c0,0,110.5-58.5,120.3-58.5c9.8,0,170.2,3.3,170.2,3.3s8.7,53.1,6.5,49.9
			c-2.2-3.3-130.1-1.1-146.3-2.2c-16.3-1.1-146.3,16.3-149.6,16.3C1256.9,1646.5,1259.1,1637.9,1259.1,1637.9z"/>
		<path fill="#79685E" d="M1216.8,1580.4c0,0-47.7,23.8-62.9,32.5s-68.3,41.2-68.3,41.2s81.3,0,93.2-2.2s39-10.8,46.6-11.9
			c7.6-1.1,29.3,3.3,29.3,3.3l4.3-20.6L1216.8,1580.4z"/>
		<path fill="#B5A195" d="M1418.4,1297.6c-1.1-5.4-23.8-75.9-27.1-78c-3.3-2.2-116-9.8-121.4-6.5c-5.4,3.3-66.1,34.7-66.1,34.7
			s41.2,54.2,46.6,55.3c5.4,1.1,36.8,36.8,36.8,36.8s55.3-4.3,75.9-14.1S1418.4,1297.6,1418.4,1297.6z"/>
		<path fill="#B5A195" d="M942.6,1216.3c0,0,34.7-6.5,62.9-1.1c28.2,5.4,74.8,22.8,74.8,22.8s-34.7,56.4-34.7,53.1
			c0-3.3-19.5-43.4-30.3-48.8C1004.4,1236.9,942.6,1216.3,942.6,1216.3z"/>
		<path fill="#9B8579" d="M1045.6,1210.8c0,0,67.2-46.6,75.9-49.9c8.7-3.3,72.6,13,82.4,11.9c9.8-1.1,23.8,2.2,28.2,3.3
			c4.3,1.1,27.1-6.5,32.5-4.3c5.4,2.2,15.2,33.6,15.2,33.6l-29.3,13l-54.2,27.1l-52-4.3l-55.3-6.5
			C1088.9,1234.7,1048.8,1210.8,1045.6,1210.8z"/>
		<path fill="#B5A195" d="M1123.6,1154.5c0,0,30.3-15.2,34.7-19.5s52,10.8,69.4,10.8c17.3,0,44.4,13,44.4,13s-24.9,2.2-32.5,5.4
			c-7.6,3.3-16.3,8.7-16.3,8.7S1137.7,1162.1,1123.6,1154.5z"/>
		<g>
			<path fill="#443A33" d="M1035.2,1533.7c-5.1-3.9-13.1-4.7-19.2-6.9c-8-2.9-15.8-6.3-23.7-9.5c-4.7-1.8-6.6,5.6-2.1,7.5
				c7.9,3.2,15.7,6.5,23.6,9.6c6.3,2.4,14,6.1,20.7,4.2C1036.9,1537.8,1036.9,1535,1035.2,1533.7z"/>
			<path fill="#443A33" d="M1639.5,1568.3c-13.9-12.3-26.5-26-40.5-38.3c-16-14.1-41.7-22-53.6-40.1c-5.2-7.8-5.9-21.9-9.1-30.9
				c-3.6-10.2-4.7-21-8.4-31.1c-6.6-18.5-7.3-38.1-11.3-56.8c-0.2-1.1-0.9-1.8-1.7-2.2c-4.6-9.3-14.3-18.1-21.1-23.6
				c-18.5-15-35.6-30.1-52-47.1c-0.2-0.5-0.5-1-0.9-1.4c-22.3-21-17.7-59.1-36.7-82.4c0-0.4,0-0.7-0.2-1c0-0.3,0.2-0.5,0.2-0.8
				c0.2-1.7-1.4-3.8-3.1-4.1c-16.6-2.8-33.3-4.5-50.2-4.7c-18.4-0.2-38-2.1-56.7-0.8c0.4-0.9,0.5-2,0-3c-3.3-5.8-4.7-12.1-7.6-18
				c-4.2-8.6-8.5-17.5-9-27.2c0-0.4-0.1-0.7-0.2-1c0.1,0,0.2,0.1,0.4,0.1c4.4,1.2,6-5.1,1.9-6.7c-5-1.9-7.1-6.6-12.5-8.2
				c-10.5-3-20.9-5.7-31.6-7.3c-17.9-2.6-36-4.6-53.8-8.2c-15.7-3.2-23.5-5.2-38.3,2.6c-15.5,8.2-31,14.6-43.7,26.9
				c-0.7,0-1.4,0.4-1.8,1.3c-0.1,0.4-0.3,0.8-0.4,1.2c-0.2,0.5-0.1,0.9,0.1,1.4c-0.3,0.2-0.7,0.3-1.1,0.5
				c-11.2,6.1-21.7,13.4-32.9,19.5c-10.6,5.8-17.1,18-28.5,21.9c-3.7,1.3-2.2,6.9,1.6,5.9c5.2-1.4,11-4.4,14.6-8.4
				c7.2-7.9,15-12.3,24.2-17.5c9.2-5.1,17.7-11.7,27.6-15.5c9.9-3.8,28.9,0.9,38.4,2.4c21.5,3.5,42.6,8.7,64.2,11.9
				c11.7,1.7,20.5-1.8,30.3,8.4c7.7,8,15.2,13.9,18.7,25c0.3,1,1.1,1.6,2,1.9c-5.3,2.5-10.5,5.4-15.4,8.4
				c-8.3,5.2-17.8,8.2-26.1,13.6c-4.5,3-10.7,6.2-16.6,8c-0.4-0.9-1-1.6-2-1.8c-16.4-2.8-33.4-2.4-50-3.8c-18.3-1.6-36.8-3.7-55.2-2
				c-0.2,0-0.3,0.1-0.4,0.1c-0.3-0.7-0.8-1.4-1.6-1.9c-0.2-0.1-0.4-0.3-0.7-0.4c-0.3-0.5-0.8-0.9-1.4-1.2
				c-15.9-7.6-29.9-16.7-47-21.4c-19.3-5.3-37.6-6.6-57.4-9.4c-17.4-2.4-34.6-2.7-51.8,1.1c-2.8,0.6-18.4,7.3-25.4,8.8
				c-1.3-0.1-2.6-0.4-3.9-0.6c-1.1-1-2.5-1.1-3.6-0.4c-5.4-0.4-7.6,7.9-1.9,9.2c13.2,2.9,26.5,1.4,39.5,5.4
				c18.6,5.6,37.3,11.1,55.6,17.6c7.9,2.8,20.3,5.6,23.2,14.2c2,5.9,7.9,10.2,10.8,15.7c3.7,7.2,8.3,14.3,12.8,21.1
				c6.6,10.1,4.9,19.3,3.6,30.1c-0.8,6.4,0.4,13.5,0.4,19.9c0.1,8.9-2.7,17.2-2.3,26.3c0.8,19.9,3.8,37.1-0.2,57.1
				c-3.5,17.8-2.4,36.1-1.7,54.1c0.6,18.2,0.2,36.5,1.4,54.8c-1.8,0.5-3.1,2.4-1.8,4.5c4.9,8,5,18.1,6.9,27.1c1.8,8.5,4.8,17,7,25.3
				c4.5,16.6,12.4,30.9,17.7,46.9c1.2,3.6,6,2.7,6.4-0.9c0.7-6.2-0.8-9.8-3.5-15.2c-5.4-10.8-8.9-21.5-12.4-33.1
				c-3-10-6.2-20.1-8.6-30.2c-1.7-7-2.5-13.5-5.7-19.6c1.5-19.8,1.3-39.8,1.1-59.6c-0.1-9.9-0.3-19.7-0.1-29.6
				c0.2-11.9,3.5-23.1,4.6-34.8c0.8-8.6,1.2-17.3,1.2-25.9c0-12.3-3.7-23.4-1.3-35.8c1.4-7.2,1.4-14.1,1.1-21.4
				c-0.4-10.5,2.6-20.4,2.2-30.8c-0.1-2.7-1.3-5.4-2.8-7.9c6.9-12,17.2-21.7,24.6-33.4c4.4-7.1,12.4-12.6,15-20.7
				c0.2,0.1,0.5,0.2,0.7,0.2c18.4,2,36.9,3.1,55.2,4.9c15.4,1.5,31.5,4,47,2.3c0.4,0.8,1.1,1.3,2.2,1.2c0.8-0.1,1.5-0.2,2.3-0.4
				c-0.5,0.5-0.9,1.1-0.9,2c-0.3,15.4-1,30.8-1.3,46.2c-0.3,14.3,3.7,28.5,4.7,42.8c1,13.7,5.6,26.8,8.3,40.2
				c2,10.1,15.5,20.4,21.6,28.7c8.3,11.3,16.6,23.1,24.3,34.9c6,9.2-1.2,20.7-3.7,29.5c-2.3,8.1-4.6,16.1-7,24.2
				c-4,13.7-9.3,26.7-13.4,40.3c-2.1,6.9-4.6,13.7-7.2,20.5c-2.2,5.9-2.8,12.2-4.7,18.1c-21.4-1.5-47.5,17.6-64,28.4
				c-14.4,9.5-27.8,20.7-42.8,29.2c-12.1,6.8-24,13.5-35.5,21.2c-0.2,0-0.4-0.1-0.6-0.1c-44.3-4-89.4-1.9-133.8-1.8
				c-44.1,0-90-3.3-133.8,1.8c0,0-0.1,0-0.1,0c-4.7-6.7-10.2-11.9-17.2-16.9c-6.1-4.4-12.3-8.3-18.8-12c-8.9-5-6.2-17.8-6.2-25.9
				c-0.1-30.9-6.4-63.4,0.6-93.9c1.1-4.9,1.3-9.5,1.2-14.5c-0.1-8.4,8.1-12.1,12.3-17.7c7.3-9.7,17.8-18.2,26-27.4
				c8.6-9.6,18.4-19,28.1-27.5c4.6-4.1,8.5-8.1,11-13c4.8,17.7,24.8,27.2,39.2,37.1c27.9,19.2,51.7,43.5,78.2,64.4
				c4.8,3.8,11.6-2.9,6.7-6.7c-19.2-15.1-36.2-33.2-55.9-47.7c-9.4-6.9-18.7-14.2-28.3-20.8c-12.8-8.8-31.3-16.7-31.8-34.6
				c-0.7-27.7,0.6-55,2-82.5c0.3-5.8-0.2-11.8-0.1-17.7c0.1-9.5,7.2-19.2,11.8-27.2c7.5-12.9,15-26.6,24.1-38.4
				c2.7-3.4-0.5-7.8-4.6-6l-2.8,1.3c-1.3,0.6-1.4,1.8-1,2.9c-6.9,8.2-11.8,17.7-17.4,26.9c-6.4,10.7-17,22.4-18.4,35.3
				c-3.8,33.8-2.7,68.3-2.9,102.4c-1.2,0.2-2.3,0.9-2.8,2.2c-4.2,11.8-16.9,19.3-25.2,28.2c-5.1,5.4-11,10.1-16.1,15.5
				c-6.1,6.4-11.4,14.8-19.1,19.5c-2.5,1.5-4.5,4.4-6.2,6.7c-4,5.2-10.2,8.7-13.5,14.4c-2,3.4-2.1,6.9-2.4,10.7
				c-0.7,8.6-2.3,16.7-3.7,25.3c-2.3,13.8-0.3,29.2-0.4,43.2c-0.1,7.5,2.2,14.8,2.5,22.3c0.4,9.5-0.4,19.2-0.3,28.7
				c0,7.9-0.6,16,7.2,20.6c14.2,8.5,28.5,16.5,38.2,30.2c2.5,3.6,7.6,1.8,8.3-1.5c43.1,4.8,88.2,1.6,131.5,1.6
				c44.5,0,89.5,2.2,133.8-1.8c1,0.1,1.7-0.3,2.1-0.9c2.2-1.3,4.5-2.6,6.8-3.7c26.3,4.1,51.5,2.7,78.1,1.4
				c12.8-0.6,25.1-3.9,37.7-5.9c16.2-2.6,32.1-3.4,48.3-5c-0.5,1.9,1.4,4.1,3.6,2.9c0.3-0.2,0.6-0.4,0.9-0.5
				c0.6,0.3,1.2,0.6,2.1,0.6c31.9,1.4,63-5.9,94.8-6c16.1-0.1,31.8-4.3,47.7-4.4c21.3-0.2,42.7,0.1,64,0c18.4,0,36.8-0.1,55.2,0
				c8.2,0,15.6-1.3,23.8-2.3c7.6-0.9,15.4,2.4,22.9,0.5c12.1-3,20-16.6,29.5-24.2c15.5-12.5,28-26.3,45.3-36.9
				C1641,1574.2,1641.8,1570.4,1639.5,1568.3z M1079.4,1242.4c-2.7,3.9-6.4,7.1-9.1,11c-4.8,7.1-8.9,14.2-14.3,20.9
				c-3.8,4.7-6.7,9.3-8.6,14.7c-0.3-0.4-0.6-0.8-0.8-1.1c-5.6-7.7-10.4-16.5-14.8-25c-6-11.6-12.1-20.3-24.1-25.3
				c-19-7.8-39-12.9-58.5-19.2c-6.8-2.2-14.4-5.7-21.6-6.4c0,0-0.1,0-0.1,0c10.4-2.5,20.4-4.7,32.1-4.6c21.4,0.2,48.7,2.8,69.1,9
				c10.3,3.2,21,5.3,30.4,10.7c7.3,4.2,14.5,8.2,22.3,11.6C1080.8,1240.1,1080.1,1241.3,1079.4,1242.4z M1416.6,1266.7
				c2.7,9.8,6.3,20.3,12.2,28.8c-8.9,1-18,4.3-25.7,7.3c-11.5,4.6-22.2,7.6-32.7,14.2c-13.8,8.7-34.5,10.5-50.2,13.1
				c-11.8,2-24.7,1.3-36.3,4.2c-6.8-10.4-15.7-23.7-15.4-23.9c1.5-1.4,1.1-3.8-0.3-5c7.2-3.7,13.6-11,20.5-14.6
				c16.8-8.8,32.9-19.9,49.2-29.7c16.3-9.7,31.2-21.6,47-32c5.2-3.4,11.8-5.2,15.9-9.3C1406.7,1235.1,1412.3,1250.8,1416.6,1266.7z
				 M1203,1168.5c-14.2-2.1-27.8-5.9-41.8-8.7c-13.6-2.7-37.4-8.6-54.5-5.9c11.6-7.6,22.8-14.6,35.8-20.4c9.7-4.3,16.8-8.8,27.8-5.8
				c7.9,2.2,15.7,4.3,23.7,5.9c14.8,2.9,30,4.1,44.9,6.4c7.4,1.1,14.6,3.2,21.8,5c5.4,1.4,8.5,4.5,12.5,6.7c-1,0.4-1.9,1.3-2,2.8
				c0,1,0.1,2.1,0.1,3.2c-0.2-0.2-0.4-0.4-0.8-0.5c-13.7-3.5-30.9,6.6-44.1,12.9C1219.1,1168.5,1211.3,1169.8,1203,1168.5z
				 M1256.2,1192.7c-6.5-6.1-13.7-14.2-21.1-19c-0.9-0.6-1.8-1-2.7-1.4c4.8-2,9.7-4,14.6-5.9c7.8-2.9,15.9-3.4,23.7-5.9
				c0.4-0.1,0.6-0.3,0.8-0.6c0.6,8,3.2,16.5,7,23.3c3.6,6.5,3.7,16.2,10.2,20.3c-1.4,0.2-2.8,0.3-4.2,0.5
				c-8.3,1.2-16.5,3.8-24.4,7.2c0.1-0.3,0.2-0.7,0.2-1.1C1260.2,1204.8,1260.4,1196.7,1256.2,1192.7z M1263,1219
				c6.4-1.9,12.4-4.8,18.8-6.5c10-2.8,23.4-1,33.7-0.8c18.4,0.3,37.6-1,55.9,1.9c6.4,1,12.7-0.1,19.2,1.2c8,1.5-1,2.3-5.2,4.3
				c-14.9,6.9-28.5,19.4-42.1,28.6c-14.4,9.7-29.8,17.7-44.4,27.1c-7.7,5-15.7,9.3-23.7,13.8c-4.7,2.6-10.1,10.8-15.4,11.2
				c-2.5,0.2-3.8,2.1-3.9,4c-5-7.4-15.1-11.5-21.1-18.2c-5-5.6-9.6-11.6-14.6-17.2c-5.9-6.6-9.3-15-15.6-21.2
				C1225.3,1241.4,1242.2,1225.3,1263,1219z M1255.4,1640.2C1255.4,1640.2,1255.4,1640.2,1255.4,1640.2c-0.7,0-1.2,0.2-1.7,0.4
				c-0.5-0.8-1.4-1.4-2.6-1.5c-28.4-3.5-55.4,6.4-83.3,9.8c-24.7,3-49.5,3.6-74.1,2.2c4.2-2,8.4-4,12.4-6.5
				c12.8-7.9,25.5-15.8,37.9-24.3c21.5-14.7,42.8-26.9,66.8-35.6c0.8,0.8,1.6,1.6,2.4,2.3c0,2.2,2,4,4.2,3.7
				c5.6,4.8,11.5,9.2,17.3,13.7c8,6.3,14.1,15.7,22.6,21c-1.4,4.1-2.4,8.3-2.8,12.7C1254.6,1639.1,1254.9,1639.7,1255.4,1640.2z
				 M1222.6,1586.9c5.1-6.1,6.2-13.5,8.1-21.6c3.4-14.5,10.3-29.2,15.8-43.1c6.6-16.7,10-35.7,14.9-53c3.4-12.1,6.8-18.6,1.1-30.4
				c-6.6-13.5-18.6-27.1-27.6-39.2c-3.3-4.5-6.6-9.8-10.5-13.9c-8-8.3-9.7-18.9-12.3-29.6c-8.2-33.3-8.6-68.1-9.2-102.2
				c3.4,4.9,5.8,10.6,9.3,15.4c3.3,4.5,7.1,8.8,10.7,13.1c3.8,4.6,7.3,9.4,11.5,13.7c6.3,6.4,14.1,7.7,17.8,17.1
				c1.1,2.8,5.4,3.1,6.3,0.4c3.9,8.8,10.6,16.7,16.6,24.9c-0.8,2.2,1,5.3,3.7,5.3c1.5,2.3,3,4.7,4.2,7.1c7.6,15,17,26.4,27.7,39.5
				c4,4.9,7.4,12,12.5,15.7c11,8.2,10.3,22.3,13.4,34.2c2.8,10.9,4.7,22,3,33.3c-1.1,7.2-10.3,25.9-15.1,30.7
				c-10.8,11-15.6,29.1-23.7,42.2c-10,16.2-20.1,32.4-29,49.2c-3.9,7.4-8.3,15-11.8,22.8C1251.2,1605.2,1235.8,1596.6,1222.6,1586.9
				z M1597.6,1595.9c-5.9,6-12.2,11.3-18.6,16.7c-6.3,5.3-10.3,11.7-17.5,14.1c0.3-6-2-11.7-2.2-17.8c-0.2-7.8-3.3-15.3-4.3-23.1
				c0.2,0,0.5,0,0.7,0c3.9-0.3,3.8-5.6,0-6c-25.5-2.7-51.3,1.9-77,1.5c-25.4-0.4-51.6,2.5-77.1,0.7c1.2-0.5,2.4-1.1,3.5-1.6
				c14.8-6.6,27.6-15.3,41.8-22.8c15-7.9,32.2-15.2,45.4-25.9c7.5-6.1,15.8-9,24-14c7.2-4.5,14.8-8.9,23.3-10.4
				c4.1-0.7,2.8-6.6-0.9-6.9c-10.8-0.7-21.8,7.5-30.4,12.8c-5.9,3.6-12.9,4.7-18.1,9.5c-7.7,7.1-16.6,11.4-25.8,16.1
				c-15.9,8.2-30.5,18.7-46.4,26.6c-10.8,5.4-24.9,16.4-37,16.9c-2.5,0.1-3.4,4.3-0.6,4.7c4,0.6,8.5-0.4,12.8-1.8
				c26.4,4.1,53.4,2.9,80,3.2c25.3,0.2,50.1-0.8,75.2-2.3c0.5,13.9,3.9,27.7,5.7,41.3c0,0.1,0.1,0.2,0.1,0.3c-0.2,0-0.3,0-0.4,0
				c-15.6-0.7-30.8,1.5-46.5,1.5c-19.4,0-38.7,0-58.1,0c-19.1,0-38.3-0.2-57.4-0.1c-15.4,0.1-30.7,4.3-46.3,4.3
				c-25.5,0-51.1,3.8-76.7,5.8c15.8-9.2,31.4-18.7,46.7-28.6c10.9-7,22.1-13.6,33.1-20.3c4.9-3,9.8-3.3,11.2-9.2
				c0.4-1.7-1.6-3.7-3.2-2.5c-15.4,10.9-33.5,19.4-49.5,29.8c-15.3,9.9-30.9,19.7-46.4,29.4c3.9-17.3,15.5-32.7,23.8-48
				c8-14.7,18-28.9,26.9-43.1c8.3-13.2,14-27,23.3-39.5c8.2-11,15-28.1,15.3-42c0.2-7.5-0.9-14.8-2.5-22.1c-1.8-8.4-2.4-17.8-4.7-26
				c-3.6-12.7-13.7-19.4-21.7-29.3c-10.9-13.6-22-25.9-29.6-41.7c-0.3-0.6-1.2-2.1-2.5-4.1c11.1-1.7,23.1-1.7,33.8-3.2
				c14.2-1.9,28.6-5.2,42.2-9.6c22.6-7.3,46-26.7,71.1-25.2c6.8,11.5,19.3,21.8,28.9,28.9c9.5,7,33.4,22.8,41.1,37.5
				c-10.3,6.9-19.7,17.9-26.4,28c-11.3,17.1-27.5,30.8-40.5,46.5c-4,4.8-7.1,10.6-10.7,15.7c-4.7,6.7-25.4,2.2-32.2,1.7
				c-8.3-0.7-31.5,2.8-34.7-6c-1-2.8-5.2-4-6.8-0.9c-5,9.9,6.2,14.7,14.6,15.3c18.5,1.4,39.2,3.4,57.6,1.6
				c5.6-0.5,8.7-6.5,11.5-10.5c6.9-10.1,15.3-18.2,22.5-27.8c7.2-9.6,16.7-17.7,23.2-27.8c5.6-8.7,14.3-20.8,22.9-28.5
				c-0.3,2.3,1.1,4.9,3.7,5.1c1.2,14.2,2.6,28.8,6.8,42.4c3.7,12,6.3,24.3,10.1,36.3c3.2,9.7,4.4,21.2,8.6,30.4
				c7.3,16.2,30.2,27.9,44.7,36.6c18.6,11,32.4,28.2,47.9,42.6C1617.3,1578.4,1607.2,1586.2,1597.6,1595.9z"/>
		</g>
	</g>
	<g>
		<path fill="#797F8F" d="M145.9,726.4c0,0-10.8-230.8-10.8-236.3c0-5.4,88.9-22.8,95.4-22.8s19.5,90,19.5,90s-65,78-66.1,83.5
			c-1.1,5.4,4.3,100.8-1.1,100.8C177.4,741.6,151.3,730.7,145.9,726.4z"/>
		<path fill="#797F8F" d="M411.5,528.1c0,0,7.6-52,7.6-55.3c0-3.3,63.9-22.8,82.4-27.1c18.4-4.3,62.9-14.1,62.9-14.1
			s54.2,75.9,57.4,80.2c3.3,4.3-2.2,81.3-3.3,94.3c-1.1,13-14.1,33.6-14.1,33.6s-66.1,46.6-78,55.3c-11.9,8.7-68.3,52-68.3,52
			s5.4-152.8,5.4-160.4C463.5,579,411.5,528.1,411.5,528.1z"/>
		<path fill="#797F8F" d="M770.2,662.4l60.7,42.3v27.1c0,0-36.8,3.3-48.8,4.3c-11.9,1.1-41.2,15.2-50.9,15.2
			c-9.8,0-14.1-1.1-14.1-1.1L770.2,662.4z"/>
		<path fill="#797F8F" d="M254.3,753.5c0,0-7.6-71.5-5.4-76.9c2.2-5.4,76.9-85.6,82.4-88.9c5.4-3.3,112.7-15.2,119.2-15.2
			c6.5,0,13,14.1,13,14.1S454.8,687.4,457,695s0,57.4,0,57.4s-45.5,5.4-58.5,1.1s-49.9-14.1-49.9-14.1L254.3,753.5z"/>
		<path fill="#626774" d="M458.1,747c0,0,94.3-76.9,108.4-84.5C580.5,654.9,612,644,612,644s61.8,9.8,92.1,6.5
			c30.3-3.3,78-2.2,78-2.2s-8.7,7.6-37.9,46.6c-29.3,39-31.4,50.9-31.4,50.9s-33.6-8.7-40.1-9.8c-6.5-1.1-27.1-2.2-27.1-2.2
			l-61.8,33.6c-24.9,5.4-59.6-4.3-73.7-8.7C496,754.6,460.2,754.6,458.1,747z"/>
		<path fill="#626774" d="M252.1,551.9c-1.1-3.3-16.3-80.2-15.2-85.6c1.1-5.4,133.3-58.5,133.3-58.5l48.8,65l-7.6,55.3l39,44.4
			c0,0-30.3-2.2-48.8,2.2c-18.4,4.3-85.6,10.8-85.6,10.8L252.1,551.9z"/>
		<path fill="#626774" d="M628.2,626.7c0,0,13-54.2,13-66.1c0-11.9,1.1-48.8,1.1-48.8s74.8-30.3,79.1-28.2s22.8,47.7,28.2,56.4
			c5.4,8.7,11.9,24.9,14.1,37.9c2.2,13,9.8,60.7,9.8,60.7S619.5,641.9,628.2,626.7z"/>
		<path fill="#797F8F" d="M563.2,379.6c0,0,9.8-30.3,8.7-47.7c-1.1-17.3-9.8-88.9-9.8-88.9s39,42.3,63.9,57.4s42.3,28.2,46.6,34.7
			c4.3,6.5,3.3,119.2,0,123.6c-3.3,4.3-85.6-41.2-85.6-41.2l-4.3-16.3L563.2,379.6z"/>
		<path fill="#626774" d="M196.9,647.3c0,0-4.3,103-1.1,108.4c3.3,5.4,42.3,1.1,42.3,1.1s0-91-6.5-95.4
			C225,657,196.9,647.3,196.9,647.3z"/>
		<path fill="#989FAF" d="M196.9,647.3c0,0,60.7-81.3,66.1-84.5c5.4-3.3,55.3,13,53.1,22.8c-2.2,9.8-50.9,53.1-50.9,53.1l-33.6,22.8
			L196.9,647.3z"/>
		<path fill="#989FAF" d="M139.4,472.8c0,0,37.9-53.1,44.4-55.3s41.2,0,41.2,0s73.7-151.7,79.1-155c5.4-3.3,233-26,253.6-19.5
			l10.8,60.7c0,0,3.3,42.3,1.1,47.7c-2.2,5.4,0,30.3-6.5,28.2s-49.9-43.4-49.9-43.4s-33.6,8.7-94.3,31.4s-174.5,84.5-189.7,86.7
			C214.2,456.5,139.4,472.8,139.4,472.8z"/>
		<path fill="#989FAF" d="M374.6,405.6c0,0,124.6-52,130.1-54.2c5.4-2.2,76.9,62.9,72.6,67.2c-4.3,4.3-62.9,29.3-75.9,27.1
			s-61.8,11.9-61.8,11.9l-28.2,11.9L374.6,405.6z"/>
		<path fill="#989FAF" d="M588.1,431.6c0,0,46.6,31.4,66.1,39c19.5,7.6,60.7,14.1,60.7,14.1s-49.9,18.4-56.4,21.7
			s-27.1,5.4-27.1,5.4S589.2,445.7,588.1,431.6z"/>
		<path fill="#989FAF" d="M793,629.9c0,0,28.2,31.4,39,39c10.8,7.6,33.6,26,33.6,26l-18.4,3.3l-76.9-35.8L793,629.9z"/>
		<g>
			<path fill="#2D313A" d="M698.1,752.8c0.1,0,0.1-0.2,0-0.2"/>
			<path fill="#2D313A" d="M699.5,751c-0.5,0.5-1.1,1.1-1.6,1.6c-0.1,0.1,0.1,0.3,0.2,0.2l1.6-1.6
				C699.9,751.1,699.7,750.9,699.5,751z"/>
			<path fill="#2D313A" d="M442.7,757.2c-1.6-1.6-2.7-3-5.1-3.2c-7.9-0.3-12.3-0.8-20.5-3.4c-16.3-5-33.8-4.1-50.3-8.6
				c-5.4-1.5-10.3-4.6-15.4-6.7c-6-2.4-16,1.1-21.7,1.7c-16.3,2-30.6,4.1-46.6,8.4c-16.3,4.4-34.6,7.5-51.5,8.8
				c-9.8,0.8-19.6-0.6-29.4,0.2c-3.1,0.4-6.3,0.8-9.4,1.3c-6.7,0.8-4.2-2.7-4.2-8.4c0.1-14.5-1.9-28.2-1.5-42.7
				c0.2-9-1.9-18.1-1.9-27.2c0.1-10.1,0.2-20.2,0.2-30.3c0-1.1,0.1-2.1,0.4-3.1c3.2,1.7,6,3.9,9.5,5.1c6.9,2.4,12.8,5.2,19,9
				c3.7,2.3,9.4,6.8,14.7,8.6c0.8,8.7,2.1,17.4,3.3,25.9c2,14.3,0,29.2,2.9,43.2c0.6,2.9,5.1,2.8,5.7,0c5.1-22.5-1.6-44.7-4.9-66.9
				c0.5,0,1,0,1.5-0.2c6.7-2.5,10.7-6.7,15.4-12.1c8.1-9.2,16.8-16.9,26.9-23.8c7.4-5.1,12.4-13.8,18.5-20.3
				c6.2-6.7,16.5-12.7,21.1-20.4c16.7-0.6,33.9-3.1,50.4-6.1c8.7-1.6,17.5-3.3,26.2-4.9c3.1-0.6,27.3-6,30.3-2.3
				c1.3,1.6,4,0.6,4.5-1.2c0.1-0.4,0.2-0.8,0.3-1.2c0.5-1.8-0.6-3.5-2.3-4.1c-14.1-4.4-31,0.7-44.9,3.6c-20.9,4.4-42.7,9.1-64,11
				c-2.8-7.3-18.6-13.9-22.6-15.6c-13.9-6-28-17.8-43-21.6c-0.1-0.6-0.2-1.2-0.2-1.8c0-6.2-1.6-11.6-3.5-17.5
				c-2.7-8.7-1.9-17.8-3.5-26.7c-2.4-13.4-4.2-27.7-8.1-40.8c-3.1-10.7,5.9-11.6,13.2-14.3c6.3-2.3,12.1-6.4,17.8-9.9
				c14.1-8.7,32.3-12.6,47.8-18.4c0.9-0.3,33.9-14.1,32.9-15.2c2.6,2.9,7.4-0.9,5.4-4.1c-0.4-0.7-0.9-1.4-1.3-2.1
				c-0.8-1.4-2.5-2.1-4.1-1.7c-13.4,4.1-26.4,11.3-39.7,16.2c-15.3,5.6-31.6,9.1-45.7,17.3c-7.6,4.4-14.4,9.1-23,11.4
				c-3.8,1-8,2.2-10.9,5c-0.4,0.4-0.6,0.9-0.9,1.3c-14.9,0.2-32.6,7.4-46.1,10.5c-12.1,2.8-23.6,7.7-35.7,10.5
				c-7.7,1.7-15.1,2.9-22,6.5c9.5-11.6,18.4-23.7,28-35.2c4.9-5.9,11.9-12.2,15.6-19.4c13.8-3.4,30.2-0.3,43.7-0.2
				c14.4,0.1,31.8,3,45.7-0.6c2.6-0.7,3.2-3.4,2.3-5.5l-0.4-0.9c-0.8-1.8-3.5-1.9-4.7-0.6c-1.8,1.9-20.9-0.4-24-0.3
				c-11.8,0.1-23.6,0.3-35.4,0c-8.1-0.2-17.1-0.7-25.2,1.3c-0.9-3.7-6.8-4.4-8.6,0c-2.3,5.7-8.4,10.7-12.3,15.4
				c-5.7,6.9-11.3,13.7-16.8,20.8c-5.6,7.2-11.1,14.6-16.9,21.6c-1.7,2-5.2,5.6-4.8,8.7c4.1,34,3.7,68.1,7.3,102.1
				c3.9,36.9,3.5,73.9,5.2,110.9c0.4,9.1,2.9,17.8,3.1,27c0.1,3.6-0.6,6.7,1.5,9.7c1.1,1.6,2.5,2,4.4,2.1c10.9,0.3,20.7,5.3,31.2,7
				c3.8,0.6,5.4-4.7,1.6-5.9c-6.4-2-12.3-4.8-18.7-6.7c-8.1-2.4-12.1,1.3-11.3-6.2c1.8-16.4-3.7-33.8-4.6-50.2
				c-1.8-31.3,1.5-62.4-3.7-93.6c-2.8-16.9-2.5-35.4-2.6-52.6c-0.1-7.6-0.6-15.2-1.3-22.7c-0.6-6.2-5-17.5-0.6-22.9
				c0.2-0.3,0.4-0.6,0.7-0.8c0.1,0.9,0.7,1.8,1.8,1.8c16.3-0.1,33.9-6.3,49.4-10.8c16.9-4.9,34.6-7.7,51.9-11.4
				c0.3,6.9,3.6,14.7,4.5,20.1c2.8,16.9,5.1,33.8,7.7,50.8c1.1,7.2,3.6,13.3,4,20.6c-1.4,1.4-1.3,4.4,1,4.8c0.2,0.6,0,1.2-1.2,2.2
				c-2.9,2.5-5.2,5.5-7.7,8.4c-10,12-19.5,24.2-29.3,36.3c-5.8,7.2-12.2,14.1-18.1,21.3c-3.8,4.6-10.5,10.6-12.1,16.7
				c-4,15.1-1.7,34.2-1.3,49.8c0.2,8.7,1.9,16.8,1.3,25.6c-0.6,7.8,2.3,14.6,1.9,22.2c-0.3,6.4-3.7,23.3,3.7,27.6
				c4.3,2.5,10.5,1.3,15,0.8c11.4-1.4,22.7-1.2,34.2-0.9c8.7,0.2,17.2-3.2,25.9-3.7c7.7-0.5,15.4-2.3,22.9-4.1
				c8.9-2.1,17.7-4.8,26.5-7c9.2-2.3,19.2-1.6,28.6-3.1c10.5-1.7,19.1,2,28.6,5.3c8.4,2.9,17.7,3.4,26.6,4.3
				c10.3,1,18.7,3.1,28.4,6.4c3.5,1.2,14.9,0.1,16.6,1.9C440.2,768.8,447.1,761.8,442.7,757.2z M199.3,624.9
				c5.6-6.9,11.7-13.4,17.3-20.3c9.8-12.2,19.4-24.4,29.4-36.6c2.8-3.4,6.3-5.8,8.7-9.4c0.2-0.3,0.3-0.7,0.5-1
				c3.4,1.7,6.6,3.9,9.9,6.1c6.6,4.3,13.8,7,20.5,11.2c6.2,3.9,12.7,6.6,18.8,11c7,5-1.2,8.9-5.6,13.2
				c-10.7,10.3-18.6,22.8-31.2,30.9c-12.7,8.2-20.3,22.3-32.6,30.8c-0.1-0.8-0.2-1.5-0.2-2.3c-0.3-3.7-5.5-4-6.2-0.9
				c-5.4-3.1-11.3-5.6-16.4-8.4c-4.1-2.3-8-3.6-12.5-4.6c-4.3-1-8.2-3.2-12.3-4.7C190.2,634.3,195.7,629.3,199.3,624.9z"/>
			<path fill="#2D313A" d="M881.8,694.9c-3.4-6.6-7.4-11.3-12.1-17.3c-8.1-10.4-21.4-14.4-31.3-22.5c-13.5-11-27.9-31-46.3-34.1
				c-2.9-8.5-3.2-21-5.3-27.7c-4.5-14.2-4.2-29.1-9.3-43.3c-4.8-13.5-15.2-23.2-22.2-35.4c-6-10.4-7.4-26.5-16.2-35.3
				c-2-2-4.2-2.7-6.9-3.2c-8.3-1.4-17.1-3.8-24.5-8.1c-4.7-2.8-9.5-3.3-14.9-4.5c-2.7-0.6-5.6-1.7-8.5-2.8c1.6-0.3,3-1.3,3.4-3
				c2.9-11.6,1.3-24.5,2.1-36.4c1.1-14.8,2.5-28.6,1.9-43.5c-0.6-14.1-0.1-28.4-0.2-42.6c-0.1-9.5-8.9-14.4-15.6-19.6
				c-23.1-17.7-50.6-32.7-71.4-53.3c-9-8.9-22.9-16.5-30.4-26.6c-4.1-5.6-12-9.4-19-9.7c-1.7-0.5-3.4-0.8-5.1-0.9
				c-14.6-0.1-29.2,0.4-43.8,0.4c-29.2,0-58.4,5.1-87.6,4.7c-27.2-0.3-54.7,3.3-81.5,8.2c-20.4,3.7-44.6,4.8-55.8,24
				c-3.1,5.4-8.3,8.9-11.4,14.4c-3.5,6-7.1,12-10.6,18c-7.6,12.8-13.3,25.9-19.4,39.4c-5.6,12.4-10.1,25.4-15,38.1
				c-1.1,2.9-15.6,31.2-14.5,32.7c-0.8-1.1-2.7-0.5-2.3,1c0.7,2.7,0.5,2.4,2.6,4.2c1.1,0.9,2.4,0.7,3.2-0.4
				c12-16.6,19.3-37.7,26.4-56.7c9.1-24.1,21.5-45.9,34.6-67.9c4.7-8,11.3-14,16-22c5.7-9.6,26.8-12.2,36.8-14.3
				c28.2-5.7,56.3-7.4,84.8-9.9c23.7-2.1,47.7-1.8,71.5-4.2c11.4-1.1,22.9-0.5,34.3-0.5c12.6,0,34.9-5.1,37.9,11.2
				c4.3,23.5,7.1,47.2,9.4,71c1,10.9,2.1,27.2-3.1,37c-3.1,6-4,13.9-4.5,21.2c-3.3-3.1-6.7-6.1-10-9.3c-9.4-9.1-15.9-19.8-24.1-29.7
				c-4.6-5.6-11.5-5.2-17.6-3.3c-26.3,7.8-52.7,16.4-78.4,26c-23.6,8.8-43.7,23.1-65.4,35.1c-2-1.4-4.3-2.2-7-1.5
				c-2.6,0.7-2.1,3.9,0,4.8c6.3,2.5,11.5,13.3,16.3,18.4c10.2,10.8,15.9,26.5,23.3,39.3c3.1,5.4,8.9,18.6,14.6,21.9
				c0.5,0.3,1,0.5,1.4,0.7c-0.4,10.5-0.9,21-1.9,31.6c-0.7,8.3-3.8,18.8,1.1,26.2c5.5,8.4,13.8,16.2,20.4,23.9
				c7.4,8.6,16,16.9,23.8,25.1c8.1,8.5,3.9,28.5,4,39.1c0.1,14.3-1.7,28.8-1.7,43.3c0,28.8-3.1,57.2-3.1,86c0,0,0,0.1,0,0.1
				c0,0.3,0,0.7,0,1c0,4.4,4.9,5.6,7.6,3.7c0.8,1,1.9,1.6,3.5,1.6c26,0.3,51,8,76,14.6c18.2,4.8,37.5-4,54.8-9.1
				c10-2.9,19.5-7.4,28.5-12.6c5.9-3.4,19.3-16.6,26.3-15.1c18.6,4,37.1,16.1,56.3,12.1c2.6-0.5,2.7-4.9,0-5.3
				c-19.6-3.4-37.7-12-57.1-16.3c-5.6-1.3-13.8,6.1-18.1,8.7c-11.1,6.9-21.3,13.4-33.7,17.9c-9.4,3.4-19.3,5.8-28.8,8.6
				c-12.6,3.7-23.4,2.7-36-1c-22.1-6.5-45.2-12.1-68.3-12c-0.6,0-1.1,0.2-1.6,0.3c0-2.2,0.1-4.4,0.2-6.7c0.3,0.3,0.7,0.6,1.2,0.8
				l1,0.3c2,0.6,3.3-0.8,3.4-2.4c11.7-9.9,24.6-18.4,36.4-28.3c17.1-14.5,34.7-28.8,53.5-41.1c15.9-10.4,34-16,49.4-27.3
				c3.1-2.3,7.4-4.9,11.6-7.9c31.4,3.9,63.4,2.8,95,3.1c14.7,0.1,29.4,0.7,44.1-1.3c8-1.1,16.6-1,24.7-2.6
				c-5.1,6.8-10,13.9-14.8,20.9c-0.2,0-0.3,0-0.5,0c-2.3,0.2-3,2.4-2.2,3.9c-5.6,8.1-11.2,16.3-17.3,24.1
				c-6.1,7.9-12,16.2-17.7,24.4c-2.9,4.2-12.1,28.1-16.8,29c-5.1,0.9-3.9,9.8,1.2,9.1c6.8-0.9,9.8-3.3,12.2-10.1
				c4.9-13.8,13.3-22.8,21-34.8c8.4-13.1,17-26,26-38.8c14.1,4.6,26.6,17.7,39.9,23.9c11,5.2,20.6,11.4,30.8,17.3
				c-1.8,4.9-4,9.6-5.5,14.6c-1,3.3-0.7,7.3-0.6,11.1c-17.1-2.8-32.5-3.2-50.2,0.2c-23.7,4.5-46.3,15.7-70.3,17.2
				c-2.7,0.2-3.7,4.6-0.7,5.1c18.3,2.7,34.4-6.3,51.9-10c12.6-2.7,24.8-6,37.7-7.3c11.9-1.2,22.9,1.1,34.5,3.3
				c2.7,0.5,4.7-1.1,5-3.8c0-0.5,0.1-0.9,0.2-1.3c4.6-2.1,9.2-4.1,13.3-7.2c3.8-2.8,8.9-6.1,11.2-10.5c0.4,3.8,0.8,7.7,2.1,11.2
				c1.1,2.8,5.1,3.1,6,0c1.3-4.6,0.3-9.2-0.4-13.9c-0.4-2.9-1.3-5.6-2-8.5c-0.5-1.7-0.5-3.7-0.5-5.7
				C880,701.2,883.6,698.5,881.8,694.9z M563.7,237.2c3.5,3.1,6.6,6.7,10.4,9.6c10.1,7.7,19,15.6,27.9,24.6c7.9,8,18.8,13.9,27.5,21
				c9.2,7.5,18.6,14.7,28.4,21.5c8.8,6.1,24.5,13.5,24.5,25.7c0,12.8-0.2,25.5,0,38.3c0.3,13-0.6,25.4-1.6,38.3
				c-0.8,10.6-0.1,22.1-1,32.9c-1.2,0.8-2,2.3-1.6,4.3c0.3,1.5,0.6,2.9,0.9,4.4c0.1,0.4,0.3,0.8,0.4,1.1c-4.1-1.9-8.2-3.8-11.9-5.2
				c-16.7-6.1-31.8-15.2-48.1-22.3c-5.1-2.2-9.4-5.6-14.4-7.9c-2.4-1.1-11.2-3.2-13.4-6.1c-0.4-0.6-1-0.9-1.5-1
				c1.5-0.7,2.5-2.1,2.3-4c-0.7-8.2-4.8-11.2-11.1-16.5c-5-4.2-9.9-8.5-14.8-12.8c0.1-0.3,0.3-0.6,0.3-1c0.6-6.7,2.1-13.2,3-19.8
				c0.7-4.9,4.8-9.1,5.2-14.1c0.9-11.8,0.5-24.7-0.7-36.5C571.9,286.7,568.7,261.8,563.7,237.2z M708.6,631.8
				c-27.3,0.2-54.9,1.9-82.2,0.3c3.9-3.6,6.9-7.5,7.4-11.9c2.5-19.3,8-37.2,8.3-56.8c0.1-8.4,1.2-18.5,3-26.6
				c1.2-5.4,2.8-15.2,1.4-21.1c0.6,0.1,1.1,0.1,1.8-0.2c13.2-5.7,26.7-11,40.1-16.2c9.9-3.8,20.8-6.1,30.2-11c1.7-0.9,1.9-3.9,0-4.8
				c-8.8-4-19.7,3.3-28.2,6.4c-15.4,5.6-30.5,13-44.9,20.8c-0.4,0.2-0.7,0.5-0.9,0.8c-2-2.7-4.9-4.7-7.4-6.7
				c-7-5.6-14.8-16.7-19.8-24c-5.3-7.7-9.6-16-14.4-24.1c-5.4-8.9-12.4-15.7-14-26.3c-0.7-5.1-8.8-3.7-8.8,1.2
				c0.2,13.6,10.6,23.3,17.3,34.5c9,14.9,18.7,27.2,29.2,40.9c4.5,5.9,10,7.8,9.5,16.8c-0.4,8.2-2,16.2-2.1,24.3
				c-0.3,20.9-3.7,41.1-7.8,61.5c-3.5,17.2-20.2,27-34.6,36c-16.9,10.6-35.3,17.3-51.6,29.4c-13.9,10.3-27.3,21.7-40.2,33.1
				c-11.9,10.5-25.3,19.3-36.4,30.8c0.9-22.2,3.4-44.3,2.8-66.6c-0.8-27.6,3.8-55.3,1.9-82.8c-0.5-7.6-7.8-12.1-12.1-17.6
				c-8.5-10.8-19.2-19-27.2-30.4c-2.5-3.5-6.3-6.3-9.4-9.4c-4-4.1-1.3-12.7-1.2-17.8c0.1-12.8,1.2-25.4,1-38.2
				c1.1-0.6,2.3-1.2,3.8-1.6c9.9-3.1,18.7-7.8,28-12.7c13.7-7.3,28.6-10.6,43.7-13.5c14.2-2.8,28.5-4.3,42.7-7.4
				c13.9-3.1,25.5-8.6,38.7-13c5.4-1.8,3.2-10.1-2.3-8.5c-11.5,3.2-21.6,9.3-33.6,11.8c-14.1,2.9-28,5.5-42.3,7.7
				c-14.4,2.2-29.1,5.6-42.6,10.9c-10.7,4.2-20.2,11.7-31,15.8c-2.7,1-4.7,1.7-6.3,1.9c-1.1-1.2-3-1.5-4.4-0.9
				c-1.7-1.3-3.2-3.6-5.9-7.4c-8-11.1-13.8-23.6-20.6-35.4c-5.1-8.7-12.1-15.4-18.3-23.1c-0.9-1.1-1.8-2.3-2.7-3.4
				c16.6-7.5,33-16.4,49.4-24.5c21.6-10.5,45.7-16.2,68.5-23.6c9.7-3.2,29.8-13.7,37.3-0.9c4.4,7.6,10.3,13.8,16.2,20.3
				c7.8,8.6,16.6,16.6,25.3,24.3c6.2,5.5,18.6,12.1,20.6,20.7c0.5,2.3,2.5,3.2,4.5,3.2c-0.9,0.7-1.3,1.8-0.6,3.2
				c3.7,7.3,15.7,9.3,22,14c11.4,8.4,26.4,14.6,39.2,20.8c12.8,6.1,28.2,14.5,41.8,17.6c8,1.9,14.7,5.5,22.3,8.3
				c3.4,1.3,18.1,3.5,20,7c7.3,13.6,11.1,28.4,19.6,41.3c9.4,14.1,17,24.9,20.5,42.1c1.4,6.7,1.5,13.6,2.8,20.2
				c1.6,7.7,4.7,14.6,5.5,22.5c0.5,4.9,1.2,9.5,2.9,13.5C759.1,631.5,733.6,631.6,708.6,631.8z M809.7,677
				c-10.6-5.2-19.6-15-30.8-18.5c5.7-7.9,11.5-15.7,17.6-23.2c1.2-1.4,1.8-3.6,1.1-5.3c14.7,8,27,24.5,38.9,34.4
				c7.6,6.3,16.9,9.6,24.4,16.2c2.8,2.4,5.3,5.4,7.7,8.6c-1.4,0.2-2.9,0.7-4.5,1.4c-6,2.6-11.7,4.4-18.1,5.4c-0.1,0-0.1,0.1-0.2,0.1
				C834.3,688.8,822.4,683.2,809.7,677z M870,712.3c-4.6,1.2-8.3,5.5-11.9,8.5c-2.9,2.5-6.2,4.3-9.6,6c1.1-5.9,2.5-11.5,4.1-17.4
				c0.1,0,0.1,0.1,0.2,0.1c4.2,2.2,7.3-3.5,3.7-6.3c-1.4-1.1-2.8-2-4.3-3c3.2-0.5,6.5-1.1,9.6-2.1c2.1-0.7,4.1-1.6,6.2-2.3
				c0.9-0.3,1.6-0.5,2.3-0.6c-0.2,4.9-0.5,9.6,0.5,14.4c0.2,0.9,0.3,1.8,0.4,2.8C870.9,712.2,870.5,712.2,870,712.3z"/>
		</g>
	</g>
</g>
</svg>
