<?xml version="1.0" encoding="UTF-8" standalone="no"?>
<svg
   xmlns:dc="http://purl.org/dc/elements/1.1/"
   xmlns:cc="http://creativecommons.org/ns#"
   xmlns:rdf="http://www.w3.org/1999/02/22-rdf-syntax-ns#"
   xmlns:svg="http://www.w3.org/2000/svg"
   xmlns="http://www.w3.org/2000/svg"
   xmlns:sodipodi="http://sodipodi.sourceforge.net/DTD/sodipodi-0.dtd"
   xmlns:inkscape="http://www.inkscape.org/namespaces/inkscape"
   id="Layer_5"
   enable-background="new 0 0 64 64"
   height="512"
   viewBox="0 0 64 64"
   width="512"
   version="1.1"
   sodipodi:docname="swimwear.svg"
   inkscape:version="0.92.4 (5da689c313, 2019-01-14)">
  <metadata
     id="metadata5196">
    <rdf:RDF>
      <cc:Work
         rdf:about="">
        <dc:format>image/svg+xml</dc:format>
        <dc:type
           rdf:resource="http://purl.org/dc/dcmitype/StillImage" />
      </cc:Work>
    </rdf:RDF>
  </metadata>
  <defs
     id="defs5194" />
  <sodipodi:namedview
     pagecolor="#ffffff"
     bordercolor="#666666"
     borderopacity="1"
     objecttolerance="10"
     gridtolerance="10"
     guidetolerance="10"
     inkscape:pageopacity="0"
     inkscape:pageshadow="2"
     inkscape:window-width="993"
     inkscape:window-height="846"
     id="namedview5192"
     showgrid="false"
     inkscape:zoom="0.65186406"
     inkscape:cx="344.96011"
     inkscape:cy="211.51995"
     inkscape:window-x="2868"
     inkscape:window-y="48"
     inkscape:window-maximized="0"
     inkscape:current-layer="Layer_5" />
  <g
     id="g5245">
    <g
       transform="matrix(0.61648446,0,0,0.61648446,12.656012,1.1505467)"
       id="g5189">
      <g
         id="g5181">
        <g
           id="g5163">
          <path
             style="fill:#ccd1d9"
             inkscape:connector-curvature="0"
             id="path5161"
             d="m 41,6 v 3 c 0,2.48 -1.01,4.74 -2.64,6.36 C 36.74,16.99 34.48,18 32,18 27.03,18 23,13.97 23,9 V 6 h 1 z" />
        </g>
        <g
           id="g5167">
          <path
             style="fill:#fcd770"
             inkscape:connector-curvature="0"
             id="path5165"
             d="M 30.35,59.9 31,62 h -1 c 0,0 -14,-7 -14,-16 6.85,1.87 12.27,7.11 14.35,13.9 z" />
        </g>
        <g
           id="g5171">
          <path
             style="fill:#fcd770"
             inkscape:connector-curvature="0"
             id="path5169"
             d="m 48,46 c 0,9 -14,16 -14,16 h -1 l 0.65,-2.1 C 35.73,53.11 41.15,47.87 48,46 Z" />
        </g>
        <g
           id="g5175">
          <path
             style="fill:#ffeaa7"
             inkscape:connector-curvature="0"
             id="path5173"
             d="M 45.72,37.63 C 46.95,39.51 48,42.23 48,46 41.15,47.87 35.73,53.11 33.65,59.9 L 33,62 H 31 L 30.35,59.9 C 28.27,53.11 22.85,47.87 16,46 c 0,-3.77 1.05,-6.49 2.28,-8.37 2.69,-4.15 3.8,-9.16 2.7,-13.98 C 19.51,17.27 17,15.95 17,11 V 3 c 0,-0.55 0.45,-1 1,-1 h 4 c 0.55,0 1,0.45 1,1 v 3 3 c 0,4.97 4.03,9 9,9 2.48,0 4.74,-1.01 6.36,-2.64 C 39.99,13.74 41,11.48 41,9 V 6 3 c 0,-0.55 0.45,-1 1,-1 h 4 c 0.55,0 1,0.45 1,1 v 8 c 0,4.95 -2.51,6.27 -3.98,12.65 -1.1,4.82 0.01,9.83 2.7,13.98 z" />
        </g>
        <g
           id="g5179">
          <path
             style="fill:#ef7385"
             inkscape:connector-curvature="0"
             id="path5177"
             d="m 39,31.54 c 0,0.93 -0.37,1.83 -1.04,2.5 L 32,40 26.04,34.04 C 25.37,33.37 25,32.47 25,31.54 c 0,-0.98 0.4,-1.86 1.04,-2.5 0.64,-0.64 1.52,-1.04 2.5,-1.04 0.93,0 1.83,0.37 2.5,1.04 L 32,30 32.96,29.04 c 0.67,-0.67 1.57,-1.04 2.5,-1.04 0.98,0 1.86,0.4 2.5,1.04 0.64,0.64 1.04,1.52 1.04,2.5 z" />
        </g>
      </g>
      <g
         id="g5187">
        <path
           inkscape:connector-curvature="0"
           id="path5183"
           d="M 46.561,37.08 C 43.898,32.979 42.988,28.291 43.999,23.878 44.631,21.119 45.47,19.336 46.21,17.763 47.17,15.72 48,13.956 48,11 V 3 C 48,1.897 47.103,1 46,1 H 42 C 40.897,1 40,1.897 40,3 V 5 H 24 V 3 C 24,1.897 23.103,1 22,1 h -4 c -1.103,0 -2,0.897 -2,2 v 8 c 0,2.956 0.83,4.72 1.79,6.763 0.74,1.573 1.579,3.356 2.211,6.115 1.012,4.413 0.102,9.102 -2.562,13.202 C 15.821,39.573 15,42.574 15,46 15,55.509 28.959,62.598 29.553,62.895 L 29.764,63 h 4.473 l 0.211,-0.105 C 35.041,62.598 49,55.509 49,46 49,42.574 48.179,39.573 46.561,37.08 Z M 24,7 h 16 v 2 c 0,4.411 -3.589,8 -8,8 -4.411,0 -8,-3.589 -8,-8 z m -6.873,40.404 c 5.883,2.073 10.416,6.761 12.271,12.788 l 0.128,0.415 C 26.694,59.01 18.257,53.767 17.127,47.404 Z M 32.69,59.604 32.261,61 H 31.739 L 31.31,59.604 c -2.123,-6.899 -7.435,-12.2 -14.288,-14.335 0.107,-2.725 0.805,-5.112 2.095,-7.098 2.96,-4.559 3.967,-9.793 2.833,-14.739 C 21.27,20.463 20.383,18.578 19.6,16.912 18.706,15.011 18,13.509 18,11 V 3 h 4 v 6 c 0,5.514 4.486,10 10,10 5.514,0 10,-4.486 10,-10 V 3 h 4 v 8 c 0,2.509 -0.706,4.011 -1.601,5.911 -0.782,1.665 -1.67,3.551 -2.35,6.52 -1.134,4.946 -0.127,10.181 2.833,14.739 1.29,1.986 1.989,4.373 2.095,7.098 -6.851,2.136 -12.164,7.436 -14.287,14.336 z m 1.785,1.002 0.128,-0.415 C 36.457,54.164 40.991,49.477 46.874,47.403 45.743,53.767 37.306,59.01 34.475,60.606 Z" />
        <path
           inkscape:connector-curvature="0"
           id="path5185"
           d="M 40,31.535 C 40,29.034 37.966,27 35.465,27 c -1.212,0 -2.351,0.472 -3.207,1.328 L 32,28.586 31.742,28.328 C 30.886,27.472 29.747,27 28.535,27 26.034,27 24,29.034 24,31.535 c 0,1.212 0.472,2.351 1.328,3.207 L 32,41.414 38.672,34.742 C 39.528,33.886 40,32.747 40,31.535 Z M 37.258,33.328 32,38.586 26.742,33.328 C 26.264,32.85 26,32.213 26,31.535 26,30.138 27.138,29 28.535,29 c 0.678,0 1.314,0.264 1.793,0.742 L 32,31.414 33.672,29.742 C 34.15,29.264 34.787,29 35.465,29 36.862,29 38,30.138 38,31.535 c 0,0.678 -0.264,1.315 -0.742,1.793 z" />
      </g>
    </g>
    <path
       id="path5206"
       transform="scale(0.125)"
       d="M 207.65625 379.125 C 207.53987 381.84073 206.91807 384.09038 205.79297 385.875 C 204.70669 387.65962 203.17391 388.55078 201.19531 388.55078 C 199.91502 388.55078 198.55849 388.1646 197.12305 387.38867 C 195.72637 386.57395 194.11639 385.36994 192.29297 383.7793 C 190.66354 382.38265 188.9367 381.31527 187.11328 380.57812 C 185.32867 379.80222 183.46716 379.41602 181.52734 379.41602 C 177.53134 379.41602 174.1549 380.90918 171.40039 383.89648 C 168.64584 386.88377 167.11308 391.30585 166.80273 397.16406 L 174.42773 397.16406 C 174.58293 394.21557 175.16318 391.86888 176.17188 390.12305 C 177.18057 388.37722 178.69353 387.50391 180.71094 387.50391 C 182.22397 387.50391 183.60227 387.93164 184.84375 388.78516 C 186.12404 389.59988 187.6766 390.84154 189.5 392.50977 C 191.09066 393.94523 192.77789 395.05026 194.5625 395.82617 C 196.34712 396.56331 198.28586 396.93164 200.38086 396.93164 C 204.68723 396.93164 208.1211 395.43848 210.68164 392.45117 C 213.24217 389.46387 214.73534 385.02201 215.16211 379.125 L 207.65625 379.125 z M 17.419922 382.79102 L 17.419922 473.33984 L 27.662109 473.33984 L 28.359375 470.31445 C 31.036307 471.78871 33.751337 472.95312 36.505859 473.80664 C 39.260383 474.69896 42.480386 475.14453 46.166016 475.14453 C 50.123217 475.14453 53.751158 474.38805 57.048828 472.875 C 60.346496 471.32315 63.372429 469.01411 66.126953 465.94922 C 68.726291 463.00071 70.783826 459.35493 72.296875 455.00977 C 73.848719 450.6646 74.623047 445.7752 74.623047 440.34375 C 74.623047 429.59722 72.393193 421.27591 67.931641 415.37891 C 63.508886 409.4819 57.45702 406.5332 49.775391 406.5332 C 45.469025 406.5332 41.589573 407.34908 38.136719 408.97852 C 34.683866 410.56917 31.424267 412.62474 28.359375 415.14648 L 28.359375 382.79102 L 17.419922 382.79102 z M 352.26758 382.79102 L 352.26758 410.95703 C 349.35788 409.44399 346.58541 408.337 343.94727 407.63867 C 341.30914 406.90153 338.2832 406.5332 334.86914 406.5332 C 331.1059 406.5332 327.45817 407.30948 323.92773 408.86133 C 320.43609 410.41317 317.37057 412.66282 314.73242 415.61133 C 312.0555 418.63741 309.92267 422.30495 308.33203 426.61133 C 306.78019 430.9177 306.00391 435.82493 306.00391 441.33398 C 306.00391 451.92532 308.27337 460.20704 312.8125 466.18164 C 317.39045 472.15625 323.55914 475.14453 331.31836 475.14453 C 335.31436 475.14453 339.01954 474.38805 342.43359 472.875 C 345.84765 471.36195 349.1251 469.24698 352.26758 466.53125 L 352.26758 473.33984 L 363.20898 473.33984 L 363.20898 382.79102 L 352.26758 382.79102 z M 196.13281 406.5332 C 192.29199 406.5332 188.54917 407.32928 184.90234 408.91992 C 181.25551 410.51056 177.72461 412.7206 174.31055 415.55273 L 174.31055 408.33789 L 163.36914 408.33789 L 163.36914 473.33984 L 174.31055 473.33984 L 174.31055 424.80664 C 177.29784 422.51768 180.42081 420.63637 183.67969 419.16211 C 186.93855 417.68787 190.06152 416.95117 193.04883 416.95117 C 195.95853 416.95117 198.32502 417.35717 200.14844 418.17188 C 201.97186 418.94781 203.36799 420.15182 204.33789 421.78125 C 205.26899 423.25551 205.91059 425.3111 206.25977 427.94922 C 206.60894 430.54857 206.7832 433.34084 206.7832 436.32812 L 206.7832 473.33984 L 217.72266 473.33984 L 217.72266 431.15039 C 217.72266 423.19719 215.88094 417.10572 212.19531 412.87695 C 208.50968 408.64817 203.15489 406.5332 196.13281 406.5332 z M 410.17188 406.5332 C 400.97721 406.5332 393.66388 409.61853 388.23242 415.78711 C 382.83977 421.9169 380.14258 430.27585 380.14258 440.86719 C 380.14258 451.45852 382.83977 459.81943 388.23242 465.94922 C 393.66388 472.07901 400.97721 475.14453 410.17188 475.14453 C 419.28897 475.14453 426.5627 472.07901 431.99414 465.94922 C 437.42561 459.81943 440.14062 451.45852 440.14062 440.86719 C 440.14062 430.27585 437.42561 421.9169 431.99414 415.78711 C 426.5627 409.61853 419.28897 406.5332 410.17188 406.5332 z M 113.9043 406.76562 C 109.98589 406.76562 106.0094 407.11613 101.97461 407.81445 C 97.939815 408.51278 94.856443 409.15243 92.722656 409.73438 L 92.722656 420.84961 L 93.304688 420.84961 C 97.067914 419.41415 100.7137 418.32696 104.24414 417.58984 C 107.77459 416.81391 110.97674 416.42578 113.84766 416.42578 C 116.21422 416.42578 118.48367 416.58223 120.65625 416.89258 C 122.82883 417.20295 124.69034 417.803 126.24219 418.69531 C 127.87162 419.62642 129.11328 420.90765 129.9668 422.53711 C 130.85911 424.16654 131.30469 426.22213 131.30469 428.70508 L 131.30469 430.39258 C 124.94213 430.70295 118.98729 431.16833 113.43945 431.78906 C 107.89161 432.4098 103.13884 433.59401 99.181641 435.33984 C 95.26323 437.08567 92.237297 439.49174 90.103516 442.55664 C 88.008524 445.58272 86.960938 449.55922 86.960938 454.48633 C 86.960937 460.49974 88.998676 465.44462 93.072266 469.32422 C 97.14586 473.20384 102.11054 475.14453 107.96875 475.14453 C 111.15004 475.14453 113.92446 474.83363 116.29102 474.21289 C 118.65758 473.63094 120.75275 472.89427 122.57617 472.00195 C 124.12802 471.30363 125.71822 470.37287 127.34766 469.20898 C 129.01589 468.00631 130.33478 467.07555 131.30469 466.41602 L 131.30469 473.33984 L 142.1875 473.33984 L 142.1875 429.22852 C 142.1875 425.03853 141.54785 421.52742 140.26758 418.69531 C 138.98731 415.8632 137.12384 413.55611 134.67969 411.77148 C 132.19674 409.94809 129.24804 408.66682 125.83398 407.92969 C 122.45872 407.15377 118.48223 406.76562 113.9043 406.76562 z M 261.01953 406.76562 C 257.10112 406.76562 253.12464 407.11613 249.08984 407.81445 C 245.05505 408.51278 241.97168 409.15243 239.83789 409.73438 L 239.83789 420.84961 L 240.41992 420.84961 C 244.18314 419.41415 247.82894 418.32696 251.35938 417.58984 C 254.88983 416.81391 258.09003 416.42578 260.96094 416.42578 C 263.32749 416.42578 265.59695 416.58223 267.76953 416.89258 C 269.94211 417.20295 271.80558 417.803 273.35742 418.69531 C 274.98688 419.62642 276.22853 420.90765 277.08203 422.53711 C 277.97434 424.16654 278.41992 426.22213 278.41992 428.70508 L 278.41992 430.39258 C 272.05737 430.70295 266.10253 431.16833 260.55469 431.78906 C 255.00684 432.4098 250.25408 433.59401 246.29688 435.33984 C 242.37848 437.08567 239.35254 439.49174 237.21875 442.55664 C 235.12375 445.58272 234.07617 449.55922 234.07617 454.48633 C 234.07617 460.49974 236.11196 465.44462 240.18555 469.32422 C 244.25914 473.20384 249.22577 475.14453 255.08398 475.14453 C 258.26526 475.14453 261.03968 474.83363 263.40625 474.21289 C 265.77282 473.63094 267.86799 472.89427 269.69141 472.00195 C 271.24325 471.30363 272.83346 470.37287 274.46289 469.20898 C 276.13111 468.00631 277.45002 467.07555 278.41992 466.41602 L 278.41992 473.33984 L 289.30273 473.33984 L 289.30273 429.22852 C 289.30273 425.03853 288.66113 421.52742 287.38086 418.69531 C 286.10057 415.8632 284.23906 413.55611 281.79492 411.77148 C 279.31197 409.94809 276.36328 408.66682 272.94922 407.92969 C 269.57395 407.15377 265.59748 406.76562 261.01953 406.76562 z M 457.13477 408.33789 L 457.13477 473.33984 L 468.07422 473.33984 L 468.07422 427.19336 C 470.98392 424.82679 474.00986 422.9059 477.15234 421.43164 C 480.29482 419.91859 483.55442 419.16211 486.92969 419.16211 C 489.02468 419.16211 490.82875 419.25905 492.3418 419.45312 C 493.89364 419.60828 495.48385 419.87958 497.11328 420.26758 L 497.69531 420.26758 L 497.69531 409.03516 C 495.98829 408.76364 494.70898 408.58937 493.85547 408.51172 C 493.00195 408.39535 491.62366 408.33789 489.72266 408.33789 C 486.26981 408.33789 482.87553 409.07457 479.53906 410.54883 C 476.2414 411.98427 472.41938 414.44779 468.07422 417.93945 L 468.07422 408.33789 L 457.13477 408.33789 z M 410.17188 415.96094 C 416.03009 415.96094 420.60662 418.01651 423.9043 422.12891 C 427.20196 426.2025 428.85156 432.44844 428.85156 440.86719 C 428.85156 449.09195 427.18411 455.30025 423.84766 459.49023 C 420.54998 463.64141 415.99129 465.7168 410.17188 465.7168 C 404.27487 465.7168 399.67656 463.62161 396.37891 459.43164 C 393.08123 455.20286 391.43359 449.01436 391.43359 440.86719 C 391.43359 432.44844 393.06143 426.2025 396.32031 422.12891 C 399.61797 418.01651 404.23607 415.96094 410.17188 415.96094 z M 336.73047 416.54297 C 339.48498 416.54297 342.02574 416.79451 344.35352 417.29883 C 346.68127 417.80318 349.31907 418.71609 352.26758 420.03516 L 352.26758 457.33789 C 349.51306 459.51047 346.54651 461.29474 343.36523 462.69141 C 340.18395 464.04926 337.04119 464.72852 333.9375 464.72852 C 328.11808 464.72852 323.88815 462.73038 321.25 458.73438 C 318.61188 454.69958 317.29297 448.82199 317.29297 441.10156 C 317.29297 433.26476 319 427.21289 322.41406 422.94531 C 325.82812 418.67776 330.60068 416.54297 336.73047 416.54297 z M 47.097656 416.95117 C 52.800684 416.95117 56.933599 418.96716 59.494141 423.00195 C 62.054684 426.99794 63.333984 432.87555 63.333984 440.63477 C 63.333984 449.13113 61.607151 455.37705 58.154297 459.37305 C 54.74024 463.33023 50.00727 465.30859 43.955078 465.30859 C 41.122963 465.30859 38.582204 465.03727 36.332031 464.49414 C 34.120652 463.95099 31.463063 462.98261 28.359375 461.58594 L 28.359375 424.3418 C 31.152694 422.16922 34.178627 420.40278 37.4375 419.04492 C 40.696373 417.64827 43.916375 416.95117 47.097656 416.95117 z M 131.30469 439.23828 L 131.30469 457.33789 C 128.58896 459.43288 125.64026 461.23695 122.45898 462.75 C 119.2777 464.22426 115.76659 464.96094 111.92578 464.96094 C 107.30905 464.96094 103.87713 464.03018 101.62695 462.16797 C 99.376782 460.26697 98.25 457.45294 98.25 453.72852 C 98.25 450.43084 99.220354 447.85049 101.16016 445.98828 C 103.09996 444.08727 105.64072 442.69114 108.7832 441.79883 C 111.42134 441.06173 114.99184 440.49933 119.49219 440.11133 C 124.03133 439.72347 127.96822 439.43236 131.30469 439.23828 z M 278.41992 439.23828 L 278.41992 457.33789 C 275.70421 459.43288 272.75551 461.23695 269.57422 462.75 C 266.39294 464.22426 262.88182 464.96094 259.04102 464.96094 C 254.42428 464.96094 250.99041 464.03018 248.74023 462.16797 C 246.49004 460.26697 245.36523 457.45294 245.36523 453.72852 C 245.36523 450.43084 246.33557 447.85049 248.27539 445.98828 C 250.21519 444.08727 252.75595 442.69114 255.89844 441.79883 C 258.53656 441.06173 262.10511 440.49933 266.60547 440.11133 C 271.14462 439.72347 275.08347 439.43236 278.41992 439.23828 z "
       style="font-style:normal;font-weight:normal;font-size:40px;line-height:1.25;font-family:sans-serif;letter-spacing:0px;word-spacing:0px;fill:#000000;fill-opacity:1;stroke:none;stroke-width:2.97954059" />
  </g>
</svg>
