<?xml version="1.0" encoding="UTF-8" standalone="no"?>
<svg
   xmlns:dc="http://purl.org/dc/elements/1.1/"
   xmlns:cc="http://creativecommons.org/ns#"
   xmlns:rdf="http://www.w3.org/1999/02/22-rdf-syntax-ns#"
   xmlns:svg="http://www.w3.org/2000/svg"
   xmlns="http://www.w3.org/2000/svg"
   xmlns:sodipodi="http://sodipodi.sourceforge.net/DTD/sodipodi-0.dtd"
   xmlns:inkscape="http://www.inkscape.org/namespaces/inkscape"
   id="Layer_5"
   enable-background="new 0 0 64 64"
   height="512"
   viewBox="0 0 64 64"
   width="512"
   version="1.1"
   sodipodi:docname="watermelon.svg"
   inkscape:version="0.92.4 (5da689c313, 2019-01-14)">
  <metadata
     id="metadata5379">
    <rdf:RDF>
      <cc:Work
         rdf:about="">
        <dc:format>image/svg+xml</dc:format>
        <dc:type
           rdf:resource="http://purl.org/dc/dcmitype/StillImage" />
      </cc:Work>
    </rdf:RDF>
  </metadata>
  <defs
     id="defs5377" />
  <sodipodi:namedview
     pagecolor="#ffffff"
     bordercolor="#666666"
     borderopacity="1"
     objecttolerance="10"
     gridtolerance="10"
     guidetolerance="10"
     inkscape:pageopacity="0"
     inkscape:pageshadow="2"
     inkscape:window-width="1151"
     inkscape:window-height="814"
     id="namedview5375"
     showgrid="false"
     inkscape:zoom="0.4609375"
     inkscape:cx="256"
     inkscape:cy="256"
     inkscape:window-x="2751"
     inkscape:window-y="37"
     inkscape:window-maximized="0"
     inkscape:current-layer="Layer_5" />
  <g
     id="g5372"
     transform="matrix(0.65882996,0,0,0.65882996,11.186666,0.8835433)">
    <g
       id="g5350">
      <g
         id="g5316">
        <path
           d="m 14.88,9.5 c 0.84,1.05 1.12,1.4 1.12,2.49 0,1.1 -0.28,1.45 -1.12,2.5 -1.15,1.44 -2.88,3.6 -2.88,7.5 0,3.91 1.73,6.07 2.88,7.5 0.84,1.05 1.12,1.41 1.12,2.5 0,1.1 -0.28,1.45 -1.12,2.5 -1.15,1.43 -2.88,3.6 -2.88,7.5 0,3.9 1.73,6.07 2.88,7.5 0.84,1.05 1.12,1.41 1.12,2.51 0,1.09 -0.28,1.45 -1.12,2.5 -0.56,0.7 -1.26,1.57 -1.83,2.74 C 6.4,51.92 2,42.61 2,32 2,21.39 6.4,12.08 13.05,6.76 13.62,7.93 14.32,8.8 14.88,9.5 Z"
           id="path5314"
           inkscape:connector-curvature="0"
           style="fill:#a0d468" />
      </g>
      <g
         id="g5320">
        <path
           d="M 49.72,27.42 36.05,41.09 C 36.5,36.97 40,36.67 40,31.99 c 0,-5 -4,-5 -4,-10 0,-5 4,-5 4,-10 0,-3.63 -2.11,-4.63 -3.27,-6.82 6.83,4.26 11.8,12.47 12.99,22.25 z"
           id="path5318"
           inkscape:connector-curvature="0"
           style="fill:#b4dd7f" />
      </g>
      <g
         id="g5324">
        <path
           d="M 24.46,52.68 22,55.14 c 2.88,2.88 6.33,4.86 9.98,5.92 C 30.07,61.67 28.07,62 26,62 21.23,62 16.79,60.26 13.05,57.24 13.62,56.07 14.32,55.2 14.88,54.5 15.72,53.45 16,53.09 16,52 16,50.9 15.72,50.54 14.88,49.49 13.73,48.06 12,45.89 12,41.99 c 0,-3.9 1.73,-6.07 2.88,-7.5 C 15.72,33.44 16,33.09 16,31.99 16,30.9 15.72,30.54 14.88,29.49 13.73,28.06 12,25.9 12,21.99 c 0,-3.9 1.73,-6.06 2.88,-7.5 C 15.72,13.44 16,13.09 16,11.99 16,10.9 15.72,10.55 14.88,9.5 14.32,8.8 13.62,7.93 13.05,6.76 16.26,4.17 19.99,2.52 24,2.11 c 0.03,3.83 1.74,5.97 2.88,7.39 0.84,1.05 1.12,1.4 1.12,2.49 0,1.1 -0.28,1.45 -1.12,2.5 -1.15,1.44 -2.88,3.6 -2.88,7.5 0,3.91 1.73,6.07 2.88,7.5 0.84,1.05 1.12,1.41 1.12,2.5 0,1.1 -0.28,1.45 -1.12,2.5 -1.15,1.43 -2.88,3.6 -2.88,7.5 0,3.9 1.73,6.07 2.88,7.5 0.12,0.16 0.23,0.3 0.34,0.43 z"
           id="path5322"
           inkscape:connector-curvature="0"
           style="fill:#b4dd7f" />
      </g>
      <g
         id="g5328">
        <path
           d="m 36.73,5.17 c 1.16,2.19 3.27,3.19 3.27,6.82 0,5 -4,5 -4,10 0,5 4,5 4,10 0,4.68 -3.5,4.98 -3.95,9.1 l -8.83,8.83 C 27.11,49.79 27,49.65 26.88,49.49 25.73,48.06 24,45.89 24,41.99 c 0,-3.9 1.73,-6.07 2.88,-7.5 C 27.72,33.44 28,33.09 28,31.99 28,30.9 27.72,30.54 26.88,29.49 25.73,28.06 24,25.9 24,21.99 c 0,-3.9 1.73,-6.06 2.88,-7.5 C 27.72,13.44 28,13.09 28,11.99 28,10.9 27.72,10.55 26.88,9.5 25.74,8.08 24.03,5.94 24,2.11 24.66,2.03 25.33,2 26,2 c 3.85,0 7.5,1.14 10.73,3.17 z"
           id="path5326"
           inkscape:connector-curvature="0"
           style="fill:#a0d468" />
      </g>
      <g
         id="g5332">
        <path
           d="M 58,38 C 58,32.77 55.97,28.03 52.68,24.46 L 55.14,22 c 9.15,9.15 9.15,23.99 0,33.14 -6.27,6.27 -15.21,8.24 -23.16,5.92 C 28.33,60 24.88,58.02 22,55.14 l 2.46,-2.46 C 28.03,55.97 32.77,58 38,58 49.05,58 58,49.05 58,38 Z"
           id="path5330"
           inkscape:connector-curvature="0"
           style="fill:#a0d468" />
      </g>
      <g
         id="g5336">
        <path
           d="M 52.68,24.46 C 55.97,28.03 58,32.77 58,38 58,49.05 49.05,58 38,58 32.77,58 28.03,55.97 24.46,52.68 l 2.76,-2.76 8.83,-8.83 13.67,-13.67 z"
           id="path5334"
           inkscape:connector-curvature="0"
           style="fill:#ef7385" />
      </g>
      <g
         id="g5340">
        <path
           d="m 53.77,36.94 c 0.7,0.7 0.7,1.83 0,2.52 l -0.31,0.31 c -0.34,0.35 -0.8,0.53 -1.26,0.53 -0.45,0 -0.91,-0.18 -1.26,-0.53 -0.1,-0.1 -0.19,-0.22 -0.26,-0.34 l -1.5,-2.49 c -0.3,-0.5 -0.22,-1.15 0.2,-1.56 0.41,-0.42 1.06,-0.5 1.56,-0.2 l 2.49,1.5 c 0.12,0.07 0.24,0.16 0.34,0.26 z"
           id="path5338"
           inkscape:connector-curvature="0"
           style="fill:#838f9b" />
      </g>
      <g
         id="g5344">
        <path
           d="m 45.83,42.76 c 0.7,0.7 0.7,1.82 0,2.52 l -0.31,0.31 c -0.34,0.35 -0.8,0.53 -1.26,0.53 -0.45,0 -0.91,-0.18 -1.26,-0.53 -0.1,-0.1 -0.19,-0.22 -0.26,-0.34 l -1.5,-2.49 c -0.3,-0.51 -0.22,-1.15 0.2,-1.57 C 41.85,40.78 42.5,40.7 43,41 l 2.49,1.49 c 0.12,0.08 0.24,0.17 0.34,0.27 z"
           id="path5342"
           inkscape:connector-curvature="0"
           style="fill:#838f9b" />
      </g>
      <g
         id="g5348">
        <path
           d="m 39.77,50.94 c 0.7,0.7 0.7,1.83 0,2.52 l -0.31,0.31 c -0.34,0.35 -0.8,0.53 -1.26,0.53 -0.45,0 -0.91,-0.18 -1.26,-0.53 -0.1,-0.1 -0.19,-0.22 -0.26,-0.34 l -1.5,-2.49 c -0.3,-0.5 -0.22,-1.15 0.2,-1.56 0.41,-0.42 1.06,-0.5 1.56,-0.2 l 2.49,1.5 c 0.12,0.07 0.24,0.16 0.34,0.26 z"
           id="path5346"
           inkscape:connector-curvature="0"
           style="fill:#838f9b" />
      </g>
    </g>
    <g
       id="g5370">
      <path
         d="m 49.818,39.943 c 0.117,0.195 0.258,0.376 0.419,0.537 0.542,0.542 1.254,0.813 1.966,0.813 0.712,0 1.424,-0.271 1.966,-0.813 l 0.31,-0.31 c 1.084,-1.084 1.084,-2.849 0,-3.933 -0.161,-0.161 -0.342,-0.302 -0.536,-0.418 l -2.49,-1.494 c -0.899,-0.539 -2.046,-0.398 -2.786,0.343 -0.741,0.741 -0.882,1.887 -0.343,2.787 z m 0.264,-3.861 C 50.136,36.028 50.208,36 50.281,36 c 0.049,0 0.1,0.013 0.145,0.04 l 2.491,1.495 c 0.054,0.032 0.104,0.071 0.149,0.116 0.304,0.305 0.304,0.8 0,1.104 l -0.31,0.31 c -0.305,0.305 -0.8,0.305 -1.104,0 -0.045,-0.045 -0.084,-0.095 -0.117,-0.151 l -1.494,-2.489 c -0.067,-0.111 -0.05,-0.252 0.041,-0.343 z"
         id="path5352"
         inkscape:connector-curvature="0" />
      <path
         d="m 34.325,51.455 1.493,2.488 c 0.117,0.195 0.258,0.376 0.419,0.537 0.542,0.542 1.254,0.813 1.966,0.813 0.712,0 1.424,-0.271 1.966,-0.813 l 0.31,-0.31 c 1.084,-1.084 1.084,-2.849 0,-3.933 -0.161,-0.161 -0.342,-0.302 -0.536,-0.418 l -2.49,-1.494 c -0.898,-0.539 -2.045,-0.398 -2.786,0.343 -0.741,0.741 -0.881,1.887 -0.342,2.787 z m 1.757,-1.373 C 36.136,50.028 36.208,50 36.281,50 c 0.049,0 0.1,0.013 0.145,0.04 l 2.491,1.495 c 0.054,0.032 0.104,0.071 0.149,0.116 0.304,0.305 0.304,0.8 0,1.104 l -0.31,0.31 c -0.305,0.305 -0.8,0.305 -1.104,0 -0.045,-0.045 -0.084,-0.095 -0.117,-0.151 l -1.494,-2.489 c -0.067,-0.111 -0.05,-0.252 0.041,-0.343 z"
         id="path5354"
         inkscape:connector-curvature="0" />
      <path
         d="m 41.878,45.76 c 0.116,0.193 0.256,0.374 0.419,0.538 0.542,0.542 1.254,0.813 1.966,0.813 0.712,0 1.424,-0.271 1.966,-0.813 l 0.31,-0.31 c 1.084,-1.084 1.084,-2.848 0,-3.933 -0.16,-0.161 -0.34,-0.301 -0.535,-0.418 l -2.491,-1.494 c -0.898,-0.539 -2.045,-0.398 -2.786,0.343 -0.741,0.742 -0.882,1.887 -0.343,2.786 z m 0.265,-3.861 c 0.091,-0.091 0.232,-0.108 0.342,-0.042 l 2.49,1.494 c 0.055,0.033 0.105,0.072 0.15,0.117 0.305,0.305 0.305,0.8 0,1.104 l -0.31,0.31 c -0.305,0.304 -0.801,0.304 -1.103,0.001 -0.046,-0.046 -0.086,-0.097 -0.119,-0.152 L 42.1,42.243 c -0.066,-0.111 -0.049,-0.252 0.043,-0.344 z"
         id="path5356"
         inkscape:connector-curvature="0" />
      <path
         d="m 55.844,21.293 -0.707,-0.707 -4.725,4.725 C 47.921,11.109 37.903,1 26,1 12.215,1 1,14.907 1,32 c 0,17.093 11.215,31 25,31 2.04,0 4.065,-0.313 6.026,-0.915 2.138,0.591 4.338,0.903 6.542,0.903 6.256,0 12.513,-2.381 17.276,-7.144 9.526,-9.526 9.526,-25.026 0,-34.551 z M 52.62,25.931 C 55.441,29.339 57,33.578 57,38 57,48.477 48.477,57 38,57 33.578,57 29.339,55.441 25.931,52.62 Z m -3.958,1.131 -8.447,8.447 C 40.673,34.598 41,33.487 41,31.993 41,29.142 39.821,27.668 38.781,26.368 37.825,25.173 37,24.142 37,21.992 c 0,-2.148 0.825,-3.18 1.781,-4.374 1.04,-1.3 2.219,-2.773 2.219,-5.624 0,-0.85 -0.113,-1.567 -0.288,-2.204 4.086,4.302 7.005,10.35 7.95,17.272 z M 36.034,5.955 c 0.365,0.621 0.779,1.15 1.185,1.659 0.956,1.197 1.781,2.23 1.781,4.381 0,2.149 -0.825,3.18 -1.781,4.374 -1.04,1.3 -2.219,2.773 -2.219,5.624 0,2.851 1.179,4.325 2.219,5.625 0.956,1.194 1.781,2.226 1.781,4.375 0,2.148 -0.825,3.18 -1.781,4.374 -0.85,1.062 -1.797,2.267 -2.108,4.244 l -7.808,7.808 C 26.239,47.055 25,45.185 25,41.991 25,38.438 26.536,36.519 27.66,35.116 28.524,34.035 29,33.44 29,31.993 29,30.545 28.523,29.949 27.657,28.866 26.536,27.465 25,25.545 25,21.992 25,18.439 26.536,16.52 27.66,15.117 28.524,14.036 29,13.441 29,11.994 29,10.548 28.523,9.952 27.658,8.871 26.651,7.614 25.32,5.928 25.056,3.029 25.369,3.014 25.683,3 26,3 29.563,3 32.977,4.062 36.034,5.955 Z M 3,32 c 0,-9.786 3.868,-18.449 9.774,-23.703 0.465,0.741 0.942,1.349 1.323,1.825 0.8,1 0.903,1.128 0.903,1.873 0,0.745 -0.103,0.874 -0.904,1.875 C 12.938,15.316 11,17.738 11,21.992 c 0,4.255 1.938,6.677 3.096,8.124 0.801,1.002 0.904,1.131 0.904,1.877 0,0.745 -0.103,0.874 -0.904,1.875 C 12.938,35.315 11,37.736 11,41.991 c 0,4.256 1.938,6.678 3.096,8.125 0.801,1.003 0.904,1.132 0.904,1.88 0,0.748 -0.103,0.876 -0.905,1.879 -0.381,0.477 -0.858,1.086 -1.322,1.827 C 6.868,50.448 3,41.785 3,32 Z m 23,29 c -4.257,0 -8.244,-1.471 -11.667,-4.023 0.441,-0.743 0.92,-1.347 1.324,-1.853 C 16.523,54.042 17,53.445 17,51.996 17,50.547 16.523,49.951 15.657,48.867 14.536,47.465 13,45.545 13,41.991 13,38.438 14.536,36.519 15.66,35.116 16.524,34.035 17,33.44 17,31.993 17,30.545 16.523,29.949 15.657,28.866 14.536,27.465 13,25.545 13,21.992 13,18.439 14.536,16.52 15.66,15.117 16.524,14.036 17,13.441 17,11.994 17,10.548 16.523,9.952 15.658,8.871 15.254,8.366 14.775,7.763 14.334,7.021 c 2.624,-1.956 5.581,-3.27 8.736,-3.778 0.332,3.487 1.987,5.581 3.026,6.879 0.8,1 0.903,1.128 0.903,1.873 0,0.745 -0.103,0.874 -0.904,1.875 C 24.938,15.316 23,17.738 23,21.992 c 0,4.255 1.938,6.677 3.096,8.124 0.801,1.002 0.904,1.131 0.904,1.877 0,0.745 -0.103,0.874 -0.904,1.875 C 24.938,35.315 23,37.736 23,41.991 c 0,3.983 1.69,6.348 2.88,7.852 l -5.294,5.294 0.707,0.707 c 2.152,2.152 4.618,3.791 7.242,4.971 C 27.695,60.931 26.849,61 26,61 Z m 28.43,-6.57 c -8.509,8.508 -22.209,8.739 -31,0.691 l 1.083,-1.083 C 28.303,57.232 33.048,59 38,59 49.58,59 59,49.58 59,38 59,33.048 57.232,28.303 54.038,24.513 l 1.083,-1.083 c 8.048,8.79 7.818,22.491 -0.691,31 z"
         id="path5358"
         inkscape:connector-curvature="0" />
      <path
         d="m 7.333,44.373 c 0.282,0.703 0.593,1.399 0.924,2.069 l 1.794,-0.885 C 9.742,44.932 9.452,44.282 9.189,43.626 Z"
         id="path5360"
         inkscape:connector-curvature="0" />
      <path
         d="M 7,32 C 7,28.274 7.612,24.687 8.82,21.339 L 6.938,20.66 C 5.652,24.227 5,28.042 5,32 5,35.568 5.534,39.035 6.586,42.306 L 8.49,41.694 C 7.501,38.621 7,35.359 7,32 Z"
         id="path5362"
         inkscape:connector-curvature="0" />
      <path
         d="m 44.355,18.929 c -0.276,-0.633 -0.577,-1.261 -0.894,-1.868 l -1.772,0.927 c 0.295,0.565 0.575,1.15 0.832,1.74 z"
         id="path5364"
         inkscape:connector-curvature="0" />
      <path
         d="m 44.639,27.149 1.978,-0.299 c -0.104,-0.687 -0.228,-1.364 -0.372,-2.029 l -1.955,0.423 c 0.135,0.626 0.252,1.261 0.349,1.905 z"
         id="path5366"
         inkscape:connector-curvature="0" />
      <path
         d="m 43.821,23.366 1.924,-0.547 c -0.188,-0.661 -0.4,-1.323 -0.629,-1.967 l -1.884,0.672 c 0.214,0.601 0.411,1.216 0.589,1.842 z"
         id="path5368"
         inkscape:connector-curvature="0" />
    </g>
  </g>
  <text
     xml:space="preserve"
     style="font-style:normal;font-weight:normal;font-size:19.27871513px;line-height:1.25;font-family:sans-serif;letter-spacing:0px;word-spacing:0px;fill:#000000;fill-opacity:1;stroke:none;stroke-width:0.4819679"
     x="0.58900803"
     y="60.514153"
     id="text5383"><tspan
       sodipodi:role="line"
       id="tspan5381"
       x="0.58900803"
       y="60.514153"
       style="stroke-width:0.4819679">sandía</tspan></text>
  <text
     xml:space="preserve"
     style="font-style:normal;font-weight:normal;font-size:5px;line-height:1.25;font-family:sans-serif;letter-spacing:0px;word-spacing:0px;fill:#000000;fill-opacity:1;stroke:none;stroke-width:0.125"
     x="33.898304"
     y="49.084747"
     id="text5387"><tspan
       sodipodi:role="line"
       id="tspan5385"
       x="33.898304"
       y="53.6464"
       style="stroke-width:0.125"></tspan></text>
</svg>
